<svg width="520" height="355" viewBox="0 0 520 355" fill="none" xmlns="http://www.w3.org/2000/svg">
<path d="M520 311.969H0V312.207H520V311.969Z" fill="#EBEBEB"/>
<path d="M467.896 327.3H433.451V327.538H467.896V327.3Z" fill="#EBEBEB"/>
<path d="M420.358 327.3H346.715V327.538H420.358V327.3Z" fill="#EBEBEB"/>
<path d="M306.103 318.458H286.146V318.696H306.103V318.458Z" fill="#EBEBEB"/>
<path d="M90.22 320.058H54.5583V320.297H90.22V320.058Z" fill="#EBEBEB"/>
<path d="M164.32 320.058H99.476V320.297H164.32V320.058Z" fill="#EBEBEB"/>
<path d="M234.146 324.079H195.863V324.318H234.146V324.079Z" fill="#EBEBEB"/>
<path d="M246.48 269.471H45.6663C44.0932 269.468 42.5854 268.894 41.474 267.874C40.3626 266.854 39.7383 265.471 39.7383 264.03V5.39323C39.752 3.96014 40.3823 2.58987 41.4922 1.58006C42.6022 0.570251 44.1022 0.00245495 45.6663 0H246.48C248.055 0 249.565 0.573233 250.679 1.59359C251.793 2.61395 252.418 3.99786 252.418 5.44087V264.03C252.418 265.473 251.793 266.857 250.679 267.877C249.565 268.897 248.055 269.471 246.48 269.471ZM45.6663 0.190574C44.1621 0.193098 42.7205 0.742345 41.6578 1.71776C40.5952 2.69317 39.9983 4.01505 39.9983 5.39323V264.03C39.9983 265.408 40.5952 266.73 41.6578 267.705C42.7205 268.681 44.1621 269.23 45.6663 269.232H246.48C247.985 269.23 249.428 268.681 250.492 267.706C251.556 266.731 252.156 265.409 252.158 264.03V5.39323C252.156 4.01417 251.556 2.69232 250.492 1.71718C249.428 0.742036 247.985 0.193093 246.48 0.190574H45.6663Z" fill="#EBEBEB"/>
<path d="M471.442 269.471H270.618C269.044 269.468 267.535 268.894 266.422 267.874C265.309 266.855 264.683 265.472 264.68 264.03V5.39323C264.696 3.95927 265.329 2.58901 266.441 1.57947C267.552 0.569918 269.053 0.00242818 270.618 0H471.442C473.005 0.00495919 474.502 0.573863 475.61 1.58341C476.717 2.59295 477.346 3.96178 477.36 5.39323V264.03C477.36 265.47 476.737 266.851 475.628 267.87C474.519 268.89 473.014 269.466 471.442 269.471ZM270.618 0.190574C269.113 0.193093 267.671 0.742036 266.606 1.71718C265.542 2.69232 264.943 4.01417 264.94 5.39323V264.03C264.943 265.409 265.542 266.731 266.606 267.706C267.671 268.681 269.113 269.23 270.618 269.232H471.442C472.948 269.23 474.39 268.681 475.455 267.706C476.519 266.731 477.118 265.409 477.121 264.03V5.39323C477.118 4.01417 476.519 2.69232 475.455 1.71718C474.39 0.742036 472.948 0.193093 471.442 0.190574H270.618Z" fill="#EBEBEB"/>
<path d="M350.47 306.613H369.72V178.386H350.47V306.613Z" fill="#F0F0F0"/>
<path d="M153.972 311.959H366.028V306.613H153.972V311.959Z" fill="#F0F0F0"/>
<path d="M350.47 178.396H150.27V306.623H350.47V178.396Z" fill="#F5F5F5"/>
<path d="M350.47 178.396H369.72V173.727H350.47V178.396Z" fill="#E6E6E6"/>
<path d="M350.47 173.727H150.27V178.396H350.47V173.727Z" fill="#F0F0F0"/>
<path d="M343.554 217.063H157.196V188.191H343.554V217.063ZM158.486 215.872H342.264V189.382H158.486V215.872Z" fill="#E0E0E0"/>
<path d="M343.554 296.818H157.196V224.143H343.554V296.818ZM158.486 295.636H342.264V225.324H158.486V295.636Z" fill="#E0E0E0"/>
<path d="M182.302 192.584L318.448 192.584V188.791L182.302 188.791V192.584Z" fill="#E0E0E0"/>
<path d="M182.302 228.526L318.448 228.526V224.733L182.302 224.733V228.526Z" fill="#E0E0E0"/>
<path d="M437.736 308.567C437.327 308.564 436.935 308.414 436.647 308.148C436.359 307.882 436.197 307.522 436.197 307.147V86.9586C436.197 86.5846 436.359 86.2259 436.648 85.9614C436.936 85.6969 437.328 85.5483 437.736 85.5483C438.144 85.5483 438.536 85.6969 438.824 85.9614C439.113 86.2259 439.275 86.5846 439.275 86.9586V307.147C439.275 307.522 439.113 307.882 438.825 308.148C438.537 308.414 438.145 308.564 437.736 308.567Z" fill="#F5F5F5"/>
<path d="M434.637 305.155H440.877C441.997 305.155 443.071 305.563 443.862 306.289C444.654 307.014 445.099 307.998 445.099 309.024V311.959H430.414V309.024C430.414 307.998 430.859 307.014 431.651 306.289C432.443 305.563 433.517 305.155 434.637 305.155Z" fill="#F0F0F0"/>
<path d="M407.826 116.25C407.826 116.25 408.585 89.3026 437.736 89.3026C466.887 89.3026 467.657 116.25 467.657 116.25H407.826Z" fill="#E0E0E0"/>
<path d="M82.264 308.567C81.853 308.567 81.4589 308.417 81.1683 308.151C80.8777 307.885 80.7144 307.524 80.7144 307.147V86.9586C80.7172 86.5837 80.8816 86.225 81.1719 85.9608C81.4623 85.6966 81.8548 85.5483 82.264 85.5483C82.6722 85.5483 83.0637 85.6969 83.3524 85.9614C83.641 86.2259 83.8032 86.5846 83.8032 86.9586V307.147C83.8032 307.522 83.6414 307.882 83.353 308.148C83.0647 308.414 82.6732 308.564 82.264 308.567Z" fill="#F5F5F5"/>
<path d="M79.1648 305.155H85.4048C86.5247 305.155 87.5987 305.563 88.3905 306.289C89.1824 307.014 89.6272 307.998 89.6272 309.024V311.959H74.9424V309.024C74.9424 308.516 75.0517 308.013 75.2639 307.544C75.4761 307.074 75.7871 306.648 76.1792 306.289C76.5712 305.929 77.0367 305.644 77.549 305.45C78.0613 305.256 78.6104 305.155 79.1648 305.155Z" fill="#F0F0F0"/>
<path d="M52.3433 116.25C52.3433 116.25 53.1025 89.3026 82.2641 89.3026C111.426 89.3026 112.175 116.25 112.175 116.25H52.3433Z" fill="#E0E0E0"/>
<path d="M297.492 171.707H223.506V173.727H297.492V171.707Z" fill="#E0E0E0"/>
<path d="M297.492 171.707H223.506L230.62 132.896H304.606L297.492 171.707Z" fill="#E0E0E0"/>
<path d="M296.119 171.707H222.134L229.247 132.896H303.233L296.119 171.707Z" fill="#EBEBEB"/>
<path d="M224.941 168.657L230.994 135.66C231.029 135.456 231.143 135.271 231.315 135.138C231.487 135.005 231.705 134.933 231.93 134.935H299.53C299.668 134.935 299.804 134.962 299.929 135.015C300.054 135.068 300.165 135.145 300.254 135.241C300.343 135.337 300.409 135.45 300.445 135.572C300.482 135.694 300.489 135.821 300.466 135.945L294.413 168.943C294.377 169.147 294.263 169.332 294.091 169.466C293.92 169.601 293.703 169.675 293.477 169.677H225.877C225.739 169.678 225.602 169.65 225.476 169.597C225.35 169.543 225.238 169.465 225.149 169.368C225.06 169.271 224.995 169.157 224.959 169.034C224.923 168.911 224.917 168.783 224.941 168.657Z" fill="#FAFAFA"/>
<path d="M280.748 171.707H206.762V173.727H280.748V171.707Z" fill="#F0F0F0"/>
<path d="M356.606 31.216H160.586V89.2646H356.606V31.216Z" fill="#EBEBEB"/>
<path d="M356.606 89.2549H359.414V31.2063H356.606V89.2549Z" fill="#E0E0E0"/>
<path d="M348.015 39.077H169.166V81.3938H348.015V39.077Z" fill="white"/>
<path d="M269.36 60.2366L258.594 50.3724L247.828 60.2366L258.594 70.1007L269.36 60.2366Z" fill="#F5F5F5"/>
<path d="M240.458 60.2361L229.692 50.372L218.926 60.2361L229.692 70.1002L240.458 60.2361Z" fill="#F5F5F5"/>
<path d="M211.556 60.2358L200.79 50.3716L190.023 60.2358L200.79 70.0999L211.556 60.2358Z" fill="#F5F5F5"/>
<path d="M298.262 60.2371L287.496 50.3729L276.73 60.237L287.496 70.1012L298.262 60.2371Z" fill="#F5F5F5"/>
<path d="M327.164 60.2375L316.398 50.3734L305.632 60.2375L316.398 70.1016L327.164 60.2375Z" fill="#F5F5F5"/>
<path d="M260 355C371.366 355 461.646 350.171 461.646 344.214C461.646 338.256 371.366 333.427 260 333.427C148.634 333.427 58.3544 338.256 58.3544 344.214C58.3544 350.171 148.634 355 260 355Z" fill="#F5F5F5"/>
<path d="M377.458 64.8426C377.553 63.7409 377.397 62.633 376.999 61.5898C376.6 60.5465 375.969 59.5909 375.145 58.7838C374.321 57.9768 373.322 57.3361 372.213 56.9027C371.103 56.4693 369.907 56.2527 368.701 56.2668H224.734C222.201 56.2997 219.774 57.1969 217.925 58.783C216.077 60.369 214.941 62.5297 214.739 64.8426L211.432 110.533L190.705 250.995C190.503 252.064 190.562 253.161 190.879 254.207C191.196 255.252 191.763 256.221 192.538 257.041C193.313 257.862 194.278 258.514 195.362 258.952C196.446 259.389 197.622 259.6 198.806 259.57H342.784C345.372 259.507 347.854 258.614 349.798 257.047C351.742 255.481 353.025 253.339 353.423 250.995L374.15 110.533L377.458 64.8426Z" fill="#407BFF"/>
<path opacity="0.2" d="M377.458 64.8426C377.553 63.7409 377.397 62.633 376.999 61.5898C376.6 60.5465 375.969 59.5909 375.145 58.7838C374.321 57.9768 373.322 57.3361 372.213 56.9027C371.103 56.4693 369.907 56.2527 368.701 56.2668H224.734C222.201 56.2997 219.774 57.1969 217.925 58.783C216.077 60.369 214.941 62.5297 214.739 64.8426L211.432 110.533L190.705 250.995C190.503 252.064 190.562 253.161 190.879 254.207C191.196 255.252 191.763 256.221 192.538 257.041C193.313 257.862 194.278 258.514 195.362 258.952C196.446 259.389 197.622 259.6 198.806 259.57H342.784C345.372 259.507 347.854 258.614 349.798 257.047C351.742 255.481 353.025 253.339 353.423 250.995L374.15 110.533L377.458 64.8426Z" fill="black"/>
<path d="M337.657 259.58H193.679C192.496 259.608 191.32 259.396 190.237 258.958C189.154 258.52 188.19 257.867 187.415 257.047C186.64 256.227 186.074 255.259 185.756 254.214C185.438 253.17 185.377 252.073 185.578 251.004L206.305 110.532H369.023L348.296 250.994C347.9 253.34 346.618 255.484 344.674 257.053C342.73 258.622 340.247 259.516 337.657 259.58Z" fill="#355AAD"/>
<path d="M246.137 52.9127H224.692V53.8655H246.137V52.9127Z" fill="#407BFF"/>
<path d="M214.552 54.8851L214.115 54.018C215.837 53.291 217.711 52.914 219.606 52.9127V53.8655C217.861 53.8667 216.137 54.2145 214.552 54.8851Z" fill="#407BFF"/>
<path d="M363.584 56.219H219.607C217.074 56.252 214.647 57.1492 212.798 58.7352C210.95 60.3212 209.814 62.482 209.612 64.7948L206.305 110.532H369.023L372.32 64.8425C372.425 63.7383 372.276 62.6262 371.883 61.578C371.49 60.5297 370.862 59.5684 370.039 58.7561C369.216 57.9437 368.217 57.2983 367.105 56.8613C365.993 56.4244 364.794 56.2056 363.584 56.219Z" fill="#355AAD"/>
<path opacity="0.9" d="M214.344 99.3458L216.653 67.3961C216.759 66.1782 217.357 65.0403 218.33 64.205C219.304 63.3696 220.582 62.897 221.915 62.8795H360.308C360.944 62.8709 361.574 62.9842 362.159 63.2121C362.743 63.44 363.27 63.7775 363.704 64.2029C364.137 64.6283 364.469 65.1321 364.678 65.6821C364.887 66.232 364.968 66.8159 364.915 67.3961L362.607 99.3458C362.498 100.563 361.899 101.7 360.927 102.535C359.954 103.369 358.677 103.843 357.344 103.862H218.951C218.316 103.87 217.687 103.755 217.103 103.527C216.519 103.298 215.993 102.961 215.56 102.536C215.126 102.111 214.794 101.608 214.585 101.058C214.375 100.509 214.293 99.9257 214.344 99.3458Z" fill="white"/>
<g opacity="0.4">
<path d="M350.334 68.1109L348.764 69.4544C348.726 69.4887 348.68 69.5156 348.63 69.5336C348.58 69.5516 348.527 69.5603 348.473 69.5592H340.153C340.094 69.5605 340.036 69.5501 339.982 69.5287C339.928 69.5073 339.88 69.4754 339.841 69.4353L338.489 68.1013C338.432 68.0457 338.394 67.976 338.38 67.9009C338.366 67.8259 338.376 67.7486 338.409 67.6787C338.442 67.6089 338.497 67.5494 338.567 67.5077C338.636 67.4659 338.718 67.4438 338.801 67.4438H350.064C350.148 67.4447 350.23 67.4689 350.299 67.5133C350.368 67.5576 350.42 67.62 350.449 67.6923C350.479 67.7645 350.483 67.8432 350.463 67.9179C350.442 67.9926 350.398 68.0599 350.334 68.1109Z" fill="#407BFF"/>
<path d="M348.13 92.876H336.866C336.781 92.8761 336.697 92.8525 336.626 92.8084C336.555 92.7643 336.501 92.7017 336.469 92.6286C336.438 92.5556 336.431 92.4756 336.45 92.3991C336.469 92.3225 336.513 92.253 336.575 92.1995L338.135 90.8654C338.215 90.7995 338.319 90.7623 338.426 90.7606H346.746C346.806 90.7591 346.866 90.7704 346.92 90.7936C346.974 90.8167 347.021 90.8511 347.058 90.894L348.421 92.228C348.473 92.2828 348.508 92.3499 348.521 92.4218C348.535 92.4937 348.525 92.5675 348.495 92.635C348.465 92.7024 348.415 92.7607 348.35 92.8033C348.285 92.8459 348.209 92.8711 348.13 92.876Z" fill="#407BFF"/>
<path d="M349.222 80.4219L348.421 81.1175C348.341 81.1835 348.237 81.2207 348.13 81.2223H338.364C338.306 81.2212 338.249 81.2093 338.197 81.1873C338.144 81.1653 338.097 81.1338 338.058 81.0946C338.019 81.0553 337.989 81.0093 337.97 80.9591C337.951 80.909 337.944 80.8559 337.948 80.8031L338.052 79.4595C338.06 79.361 338.108 79.2688 338.187 79.2016C338.267 79.1344 338.371 79.0972 338.478 79.0974H348.275C348.334 79.0968 348.392 79.1075 348.446 79.1288C348.499 79.1502 348.548 79.1817 348.587 79.2213L349.253 79.8788C349.29 79.9161 349.319 79.9599 349.338 80.0075C349.356 80.0552 349.364 80.1058 349.362 80.1564C349.359 80.2069 349.345 80.2564 349.321 80.302C349.297 80.3476 349.263 80.3884 349.222 80.4219Z" fill="#407BFF"/>
<path d="M350.553 81.1557L349.731 91.4753C349.724 91.5506 349.692 91.6222 349.641 91.6816C349.59 91.7409 349.521 91.7854 349.443 91.8096C349.365 91.8338 349.281 91.8367 349.201 91.818C349.121 91.7992 349.049 91.7596 348.993 91.704L347.651 90.37C347.611 90.3306 347.58 90.2841 347.56 90.2333C347.54 90.1824 347.533 90.1284 347.537 90.0746L348.15 82.404C348.152 82.3549 348.165 82.3066 348.188 82.2623C348.212 82.218 348.245 82.1786 348.286 82.1467L349.846 80.8127C349.91 80.7594 349.992 80.7256 350.078 80.7159C350.165 80.7061 350.253 80.721 350.33 80.7584C350.407 80.7957 350.469 80.8539 350.509 80.9249C350.549 80.996 350.564 81.0766 350.553 81.1557Z" fill="#407BFF"/>
<path d="M351.52 68.9113L350.698 79.2594C350.693 79.3355 350.663 79.4083 350.612 79.469C350.562 79.5297 350.493 79.5755 350.415 79.6008C350.336 79.6262 350.251 79.6299 350.17 79.6115C350.09 79.5932 350.016 79.5536 349.96 79.4976L348.608 78.1541C348.571 78.1151 348.543 78.0698 348.525 78.0207C348.507 77.9716 348.5 77.9198 348.504 77.8682L349.107 70.1976C349.117 70.0998 349.165 70.0085 349.242 69.9403L350.802 68.5968C350.865 68.5427 350.944 68.5073 351.029 68.4951C351.114 68.4829 351.201 68.4946 351.279 68.5287C351.356 68.5627 351.421 68.6174 351.464 68.6857C351.507 68.754 351.527 68.8326 351.52 68.9113Z" fill="#407BFF"/>
</g>
<path opacity="0.4" d="M332.301 97.1923C332.334 96.8366 332.51 96.5046 332.794 96.2601C333.078 96.0156 333.45 95.876 333.84 95.8679H351.52C351.727 95.8661 351.931 95.9035 352.122 95.9777C352.312 96.052 352.483 96.1615 352.624 96.2993C352.766 96.4371 352.875 96.6003 352.945 96.7786C353.014 96.9569 353.042 97.1464 353.028 97.3353C352.995 97.6927 352.818 98.026 352.531 98.2707C352.245 98.5153 351.87 98.654 351.478 98.6598H333.84C333.63 98.6686 333.42 98.6362 333.225 98.5648C333.03 98.4934 332.853 98.3846 332.707 98.2457C332.562 98.1068 332.45 97.9409 332.38 97.7593C332.31 97.5776 332.283 97.3843 332.301 97.1923Z" fill="#407BFF"/>
<path opacity="0.4" d="M310.19 97.1923C310.224 96.8366 310.399 96.5046 310.683 96.2601C310.967 96.0156 311.34 95.876 311.73 95.8679H329.41C329.616 95.8661 329.821 95.9035 330.011 95.9777C330.201 96.052 330.372 96.1615 330.514 96.2993C330.656 96.4371 330.765 96.6003 330.834 96.7786C330.903 96.9569 330.932 97.1464 330.918 97.3353C330.884 97.6927 330.707 98.026 330.421 98.2707C330.135 98.5153 329.759 98.654 329.368 98.6598H311.688C311.481 98.6631 311.276 98.6267 311.086 98.5528C310.896 98.479 310.724 98.3693 310.583 98.231C310.442 98.0927 310.334 97.9288 310.266 97.7499C310.199 97.571 310.173 97.381 310.19 97.1923Z" fill="#407BFF"/>
<path opacity="0.4" d="M288.08 97.1923C288.113 96.8365 288.289 96.5045 288.573 96.2601C288.857 96.0156 289.23 95.8759 289.619 95.8678H307.299C307.505 95.8673 307.709 95.9057 307.897 95.9806C308.086 96.0554 308.256 96.1651 308.397 96.3028C308.537 96.4405 308.645 96.6032 308.714 96.7808C308.783 96.9584 308.811 97.1472 308.797 97.3352C308.766 97.6934 308.589 98.0279 308.303 98.273C308.016 98.5181 307.639 98.6561 307.247 98.6597H289.567C289.361 98.6617 289.158 98.6243 288.968 98.5498C288.779 98.4754 288.609 98.3656 288.469 98.2274C288.329 98.0892 288.222 97.9258 288.155 97.7475C288.088 97.5693 288.063 97.3802 288.08 97.1923Z" fill="#407BFF"/>
<path opacity="0.4" d="M265.97 97.1923C266.003 96.8365 266.178 96.5045 266.462 96.2601C266.747 96.0156 267.119 95.8759 267.509 95.8678H285.189C285.395 95.8673 285.598 95.9057 285.787 95.9806C285.976 96.0554 286.146 96.1651 286.286 96.3028C286.427 96.4405 286.535 96.6032 286.604 96.7808C286.673 96.9584 286.701 97.1472 286.686 97.3352C286.655 97.6934 286.479 98.0279 286.192 98.273C285.905 98.5181 285.529 98.6561 285.137 98.6597H267.457C267.251 98.6617 267.047 98.6243 266.858 98.5498C266.669 98.4754 266.499 98.3656 266.359 98.2274C266.219 98.0892 266.112 97.9258 266.045 97.7475C265.978 97.5693 265.952 97.3802 265.97 97.1923Z" fill="#407BFF"/>
<path opacity="0.1" d="M217.142 175.68L223.652 131.591C223.895 130.146 224.684 128.825 225.882 127.858C227.079 126.892 228.609 126.341 230.204 126.302H278.325C279.055 126.284 279.78 126.414 280.448 126.684C281.117 126.954 281.711 127.357 282.189 127.863C282.666 128.369 283.015 128.966 283.21 129.61C283.406 130.255 283.442 130.932 283.317 131.591L276.806 175.68C276.566 177.124 275.779 178.445 274.583 179.412C273.387 180.378 271.859 180.929 270.265 180.968H222.134C221.404 180.987 220.678 180.856 220.01 180.586C219.342 180.317 218.748 179.914 218.27 179.408C217.792 178.902 217.443 178.305 217.248 177.66C217.053 177.015 217.017 176.339 217.142 175.68Z" fill="#263238"/>
<path opacity="0.1" d="M285.698 175.68L292.24 131.591C292.483 130.146 293.272 128.825 294.47 127.858C295.667 126.892 297.197 126.341 298.792 126.302H346.913C347.643 126.282 348.37 126.412 349.039 126.681C349.708 126.95 350.303 127.353 350.781 127.859C351.259 128.366 351.608 128.963 351.803 129.609C351.997 130.254 352.032 130.931 351.905 131.591L345.405 175.68C345.16 177.124 344.37 178.444 343.173 179.41C341.976 180.376 340.448 180.928 338.853 180.968H290.68C289.95 180.987 289.225 180.857 288.558 180.587C287.89 180.317 287.296 179.914 286.819 179.408C286.342 178.901 285.994 178.304 285.8 177.659C285.606 177.015 285.572 176.338 285.698 175.68Z" fill="#263238"/>
<path opacity="0.1" d="M207.875 238.493L214.386 194.385C214.631 192.941 215.42 191.621 216.617 190.654C217.814 189.688 219.343 189.137 220.938 189.096H269.058C269.788 189.078 270.514 189.208 271.182 189.478C271.85 189.748 272.445 190.151 272.922 190.657C273.4 191.163 273.749 191.76 273.944 192.404C274.139 193.049 274.175 193.726 274.05 194.385L267.54 238.483C267.297 239.926 266.509 241.245 265.314 242.209C264.118 243.174 262.591 243.724 260.998 243.762H212.867C212.139 243.78 211.416 243.65 210.75 243.381C210.083 243.112 209.49 242.712 209.013 242.208C208.535 241.704 208.186 241.11 207.989 240.467C207.793 239.825 207.754 239.151 207.875 238.493Z" fill="#263238"/>
<path opacity="0.1" d="M276.432 238.493L282.932 194.385C283.177 192.941 283.967 191.621 285.164 190.654C286.361 189.688 287.889 189.137 289.484 189.096H337.605C338.335 189.078 339.06 189.208 339.728 189.478C340.397 189.748 340.991 190.151 341.469 190.657C341.946 191.163 342.295 191.76 342.491 192.404C342.686 193.049 342.722 193.726 342.597 194.385L336.097 238.483C335.85 239.926 335.059 241.244 333.862 242.208C332.666 243.172 331.138 243.722 329.545 243.762H281.414C280.686 243.78 279.963 243.65 279.297 243.382C278.631 243.113 278.038 242.712 277.562 242.208C277.085 241.704 276.737 241.109 276.541 240.467C276.346 239.824 276.309 239.15 276.432 238.493Z" fill="#263238"/>
<path d="M213.938 175.68L220.48 131.591C220.723 130.146 221.512 128.825 222.71 127.858C223.907 126.892 225.437 126.341 227.032 126.302H275.153C275.883 126.284 276.608 126.414 277.276 126.684C277.944 126.954 278.539 127.357 279.017 127.863C279.494 128.369 279.843 128.966 280.038 129.61C280.234 130.255 280.27 130.932 280.145 131.591L273.634 175.68C273.394 177.124 272.607 178.445 271.411 179.412C270.215 180.378 268.687 180.929 267.093 180.968H218.93C218.2 180.987 217.475 180.856 216.807 180.586C216.139 180.317 215.544 179.914 215.067 179.408C214.589 178.902 214.24 178.305 214.045 177.66C213.85 177.015 213.813 176.339 213.938 175.68Z" fill="#407BFF"/>
<path opacity="0.2" d="M213.938 175.68L220.48 131.591C220.723 130.146 221.512 128.825 222.71 127.858C223.907 126.892 225.437 126.341 227.032 126.302H275.153C275.883 126.284 276.608 126.414 277.276 126.684C277.944 126.954 278.539 127.357 279.017 127.863C279.494 128.369 279.843 128.966 280.038 129.61C280.234 130.255 280.27 130.932 280.145 131.591L273.634 175.68C273.394 177.124 272.607 178.445 271.411 179.412C270.215 180.378 268.687 180.929 267.093 180.968H218.93C218.2 180.987 217.475 180.856 216.807 180.586C216.139 180.317 215.544 179.914 215.067 179.408C214.589 178.902 214.24 178.305 214.045 177.66C213.85 177.015 213.813 176.339 213.938 175.68Z" fill="white"/>
<path d="M282.495 175.68L288.995 131.591C289.238 130.146 290.027 128.825 291.225 127.858C292.422 126.892 293.952 126.341 295.547 126.302H343.668C344.399 126.282 345.125 126.412 345.794 126.681C346.463 126.95 347.058 127.353 347.536 127.859C348.014 128.366 348.363 128.963 348.558 129.609C348.752 130.254 348.787 130.931 348.66 131.591L342.16 175.68C341.915 177.124 341.125 178.444 339.928 179.41C338.731 180.376 337.203 180.928 335.608 180.968H287.477C286.747 180.987 286.022 180.857 285.354 180.587C284.686 180.317 284.093 179.914 283.616 179.408C283.139 178.901 282.791 178.304 282.597 177.659C282.403 177.015 282.368 176.338 282.495 175.68Z" fill="#407BFF"/>
<path opacity="0.2" d="M282.495 175.68L288.995 131.591C289.238 130.146 290.027 128.825 291.225 127.858C292.422 126.892 293.952 126.341 295.547 126.302H343.668C344.399 126.282 345.125 126.412 345.794 126.681C346.463 126.95 347.058 127.353 347.536 127.859C348.014 128.366 348.363 128.963 348.558 129.609C348.752 130.254 348.787 130.931 348.66 131.591L342.16 175.68C341.915 177.124 341.125 178.444 339.928 179.41C338.731 180.376 337.203 180.928 335.608 180.968H287.477C286.747 180.987 286.022 180.857 285.354 180.587C284.686 180.317 284.093 179.914 283.616 179.408C283.139 178.901 282.791 178.304 282.597 177.659C282.403 177.015 282.368 176.338 282.495 175.68Z" fill="white"/>
<path d="M204.672 238.493L211.182 194.385C211.427 192.941 212.217 191.621 213.414 190.654C214.611 189.688 216.14 189.137 217.734 189.096H265.855C266.585 189.078 267.311 189.208 267.979 189.478C268.647 189.748 269.241 190.151 269.719 190.657C270.197 191.163 270.546 191.76 270.741 192.404C270.936 193.049 270.972 193.726 270.847 194.385L264.337 238.483C264.094 239.926 263.306 241.245 262.11 242.209C260.915 243.174 259.388 243.724 257.795 243.762H209.664C208.936 243.78 208.213 243.65 207.547 243.381C206.88 243.112 206.287 242.712 205.81 242.208C205.332 241.704 204.983 241.11 204.786 240.467C204.589 239.825 204.55 239.151 204.672 238.493Z" fill="#407BFF"/>
<path opacity="0.2" d="M204.672 238.493L211.182 194.385C211.427 192.941 212.217 191.621 213.414 190.654C214.611 189.688 216.14 189.137 217.734 189.096H265.855C266.585 189.078 267.311 189.208 267.979 189.478C268.647 189.748 269.241 190.151 269.719 190.657C270.197 191.163 270.546 191.76 270.741 192.404C270.936 193.049 270.972 193.726 270.847 194.385L264.337 238.483C264.094 239.926 263.306 241.245 262.11 242.209C260.915 243.174 259.388 243.724 257.795 243.762H209.664C208.936 243.78 208.213 243.65 207.547 243.381C206.88 243.112 206.287 242.712 205.81 242.208C205.332 241.704 204.983 241.11 204.786 240.467C204.589 239.825 204.55 239.151 204.672 238.493Z" fill="white"/>
<path d="M273.229 238.493L279.76 194.385C280.005 192.941 280.795 191.621 281.992 190.654C283.189 189.688 284.717 189.137 286.312 189.096H334.433C335.163 189.078 335.888 189.208 336.556 189.478C337.224 189.748 337.819 190.151 338.297 190.657C338.774 191.163 339.123 191.76 339.318 192.404C339.513 193.049 339.55 193.726 339.425 194.385L332.925 238.483C332.678 239.926 331.887 241.244 330.69 242.208C329.493 243.172 327.966 243.722 326.373 243.762H278.21C277.483 243.78 276.76 243.65 276.094 243.382C275.428 243.113 274.835 242.712 274.359 242.208C273.882 241.704 273.533 241.109 273.338 240.467C273.143 239.824 273.105 239.15 273.229 238.493Z" fill="#407BFF"/>
<path opacity="0.2" d="M273.229 238.493L279.76 194.385C280.005 192.941 280.795 191.621 281.992 190.654C283.189 189.688 284.717 189.137 286.312 189.096H334.433C335.163 189.078 335.888 189.208 336.556 189.478C337.224 189.748 337.819 190.151 338.297 190.657C338.774 191.163 339.123 191.76 339.318 192.404C339.513 193.049 339.55 193.726 339.425 194.385L332.925 238.483C332.678 239.926 331.887 241.244 330.69 242.208C329.493 243.172 327.966 243.722 326.373 243.762H278.21C277.483 243.78 276.76 243.65 276.094 243.382C275.428 243.113 274.835 242.712 274.359 242.208C273.882 241.704 273.533 241.109 273.338 240.467C273.143 239.824 273.105 239.15 273.229 238.493Z" fill="white"/>
<path d="M244.317 171.983C243.588 171.998 242.865 171.865 242.198 171.594C241.532 171.323 240.939 170.921 240.462 170.415C239.985 169.91 239.636 169.315 239.439 168.671C239.243 168.028 239.204 167.353 239.325 166.694L243.183 140.586C243.43 139.141 244.22 137.821 245.416 136.854C246.613 135.887 248.14 135.333 249.735 135.288C250.466 135.271 251.191 135.403 251.859 135.674C252.528 135.945 253.122 136.348 253.599 136.855C254.077 137.362 254.426 137.959 254.621 138.604C254.816 139.249 254.852 139.926 254.727 140.586L250.879 166.694C250.63 168.139 249.838 169.458 248.64 170.423C247.441 171.389 245.912 171.941 244.317 171.983Z" fill="white"/>
<path d="M227.001 153.64C227.25 152.195 228.042 150.875 229.24 149.907C230.438 148.94 231.967 148.387 233.563 148.342H262.08C262.81 148.327 263.535 148.46 264.202 148.732C264.869 149.003 265.462 149.406 265.94 149.913C266.417 150.419 266.766 151.016 266.961 151.66C267.157 152.305 267.195 152.981 267.072 153.64C266.823 155.083 266.033 156.401 264.836 157.366C263.64 158.332 262.114 158.884 260.52 158.929H232.024C231.293 158.948 230.566 158.818 229.895 158.549C229.225 158.28 228.628 157.878 228.148 157.372C227.668 156.867 227.316 156.27 227.117 155.624C226.919 154.979 226.879 154.301 227.001 153.64Z" fill="white"/>
<path d="M221.686 229.412C219.742 227.354 220.241 223.99 222.789 221.932L245.669 203.466C248.217 201.407 251.909 201.407 253.833 203.466C255.778 205.524 255.278 208.897 252.73 210.955L229.85 229.412C227.302 231.47 223.6 231.47 221.686 229.412Z" fill="white"/>
<path d="M225.514 203.466C228.062 201.407 231.754 201.407 233.688 203.466L251.108 221.932C253.053 223.99 252.554 227.354 250.006 229.412C247.458 231.47 243.766 231.47 241.842 229.412L224.411 210.955C222.466 208.897 222.966 205.524 225.514 203.466Z" fill="white"/>
<path d="M295.547 153.64C295.796 152.195 296.588 150.875 297.786 149.907C298.984 148.94 300.514 148.386 302.11 148.342H330.606C331.336 148.325 332.062 148.457 332.73 148.728C333.398 148.999 333.992 149.402 334.47 149.909C334.947 150.416 335.296 151.013 335.491 151.659C335.686 152.304 335.723 152.981 335.598 153.64C335.349 155.083 334.558 156.401 333.362 157.366C332.166 158.332 330.639 158.884 329.046 158.929H300.56C299.83 158.946 299.104 158.816 298.435 158.546C297.766 158.276 297.17 157.874 296.691 157.369C296.212 156.863 295.861 156.266 295.663 155.622C295.465 154.977 295.426 154.3 295.547 153.64Z" fill="white"/>
<path d="M287.498 208.211C287.747 206.767 288.539 205.447 289.738 204.482C290.936 203.516 292.465 202.964 294.06 202.922H322.556C323.285 202.907 324.008 203.04 324.675 203.311C325.341 203.582 325.934 203.985 326.411 204.49C326.888 204.995 327.237 205.591 327.434 206.234C327.63 206.877 327.669 207.552 327.548 208.211C327.302 209.655 326.512 210.975 325.315 211.943C324.119 212.91 322.591 213.464 320.996 213.509H292.49C291.76 213.524 291.035 213.391 290.368 213.119C289.701 212.848 289.107 212.445 288.63 211.938C288.153 211.432 287.804 210.835 287.608 210.191C287.413 209.546 287.375 208.87 287.498 208.211Z" fill="white"/>
<path d="M285.074 224.667C285.323 223.224 286.114 221.906 287.31 220.941C288.506 219.975 290.033 219.423 291.626 219.378H320.122C320.852 219.362 321.577 219.494 322.244 219.764C322.912 220.035 323.506 220.437 323.984 220.942C324.462 221.448 324.813 222.044 325.01 222.688C325.207 223.331 325.246 224.007 325.125 224.667C324.876 226.112 324.084 227.432 322.886 228.4C321.688 229.367 320.159 229.92 318.562 229.965H290.066C289.336 229.982 288.611 229.85 287.942 229.579C287.274 229.308 286.68 228.905 286.202 228.398C285.725 227.891 285.376 227.294 285.181 226.648C284.986 226.003 284.95 225.326 285.074 224.667Z" fill="white"/>
<path d="M138.694 118.822C136.822 122.005 134.898 125.435 133.141 128.789C131.383 132.144 129.688 135.564 128.232 138.985C127.847 139.843 127.535 140.7 127.192 141.558C127.01 141.997 126.904 142.46 126.88 142.93C126.838 144.282 127.111 145.627 127.681 146.875C129.17 150.081 131.148 153.078 133.557 155.775L130.01 159.586C129.022 159.001 128.07 158.365 127.161 157.68C126.247 157.025 125.376 156.322 124.55 155.575C122.799 154.035 121.265 152.3 119.985 150.41C118.495 148.242 117.563 145.791 117.26 143.244C117.111 141.777 117.241 140.297 117.645 138.871C117.936 137.918 118.206 136.87 118.539 135.888C119.814 131.993 121.352 128.174 123.146 124.454C124.041 122.615 124.956 120.795 125.965 119.004C126.974 117.212 127.941 115.478 129.147 113.648L138.694 118.822Z" fill="#FF8B7B"/>
<path d="M132.08 154.679L137.28 155.937L133.411 162.826C133.411 162.826 129.542 161.473 128.586 158.357L132.08 154.679Z" fill="#FF8B7B"/>
<path d="M144.456 158.109L139.797 163.512L133.422 162.826L137.29 155.937L144.456 158.109Z" fill="#FF8B7B"/>
<path d="M163.218 82.4802C163.332 83.0138 163.738 83.3854 164.112 83.3187C164.486 83.252 164.705 82.7565 164.58 82.2324C164.455 81.7084 164.06 81.2796 163.686 81.3939C163.311 81.5083 163.093 81.9466 163.218 82.4802Z" fill="#263238"/>
<path d="M163.686 83.3948C164.733 84.8874 166 86.2405 167.45 87.4159C167.108 87.7412 166.692 87.9948 166.233 88.1593C165.773 88.3238 165.28 88.3952 164.788 88.3688L163.686 83.3948Z" fill="#FF5652"/>
<path d="M164.466 86.9967C162.77 86.9967 161.086 85.3006 160.576 82.9756C160.298 81.8409 160.381 80.657 160.815 79.5643C160.936 79.1143 161.194 78.705 161.558 78.3838C161.923 78.0627 162.38 77.843 162.875 77.7502C163.371 77.6574 163.885 77.6953 164.358 77.8596C164.831 78.0238 165.243 78.3077 165.547 78.6781C166.392 79.5428 166.97 80.5979 167.222 81.7349C167.474 82.8719 167.391 84.05 166.982 85.1481C166.833 85.5874 166.564 85.9844 166.199 86.3012C165.835 86.6181 165.389 86.8444 164.902 86.9585C164.758 86.9842 164.612 86.9969 164.466 86.9967ZM163.342 77.954C163.204 77.9399 163.065 77.9399 162.926 77.954C162.487 78.0628 162.085 78.272 161.757 78.562C161.43 78.8519 161.188 79.2131 161.054 79.6119C160.64 80.6625 160.56 81.7995 160.826 82.8898C161.356 85.3006 163.166 87.0062 164.871 86.7013C165.312 86.5949 165.716 86.3866 166.043 86.0962C166.371 85.8059 166.612 85.4434 166.743 85.0433C167.134 83.989 167.213 82.8585 166.972 81.7672C166.731 80.6758 166.178 79.6625 165.37 78.8306C165.113 78.5685 164.801 78.356 164.453 78.2055C164.104 78.055 163.727 77.9695 163.342 77.954Z" fill="#263238"/>
<path d="M218.026 137.403L224.692 136.107L225.555 144.397C225.555 144.397 219.794 145.407 217.038 141.234L218.026 137.403Z" fill="#FF8B7B"/>
<path d="M230.994 137.966L230.568 144.016L225.555 144.397L224.692 136.107L230.994 137.966Z" fill="#FF8B7B"/>
<path d="M160.441 79.9361C160.398 79.9363 160.356 79.9288 160.317 79.9141C160.278 79.8994 160.242 79.8777 160.212 79.8503C160.178 79.8217 160.151 79.7871 160.133 79.7486C160.115 79.71 160.105 79.6684 160.105 79.6264C160.105 79.5843 160.115 79.5427 160.133 79.5042C160.151 79.4656 160.178 79.431 160.212 79.4024C160.576 79.0253 161.033 78.7333 161.545 78.5509C162.057 78.3686 162.609 78.3012 163.155 78.3543C163.201 78.3601 163.244 78.3741 163.283 78.3956C163.323 78.417 163.357 78.4455 163.384 78.4792C163.411 78.5129 163.431 78.5513 163.441 78.592C163.452 78.6327 163.454 78.675 163.446 78.7164C163.429 78.7999 163.377 78.874 163.301 78.9235C163.226 78.9731 163.133 78.9945 163.041 78.9832C162.608 78.9441 162.172 79.0008 161.768 79.1484C161.365 79.2959 161.006 79.5301 160.722 79.8312C160.685 79.8657 160.642 79.8928 160.593 79.9109C160.545 79.9289 160.493 79.9375 160.441 79.9361Z" fill="#263238"/>
<path d="M147.16 92.1232C148.2 97.0304 148.845 103.824 145.08 107.093C145.08 107.093 146.536 112.067 156.52 112.067C167.461 112.067 161.782 107.703 161.782 107.703C157.238 106.407 157.279 101.671 158.319 97.8594L147.16 92.1232Z" fill="#FF8B7B"/>
<path d="M158.392 105.902C160.846 104.282 164.476 102.386 165.235 104.368C165.693 105.559 165.88 111.381 163.353 110.942C159.619 110.304 158.392 105.902 158.392 105.902Z" fill="#263238"/>
<path d="M143.052 110.37C142.074 109.113 142.116 105.12 143.156 104.415C144.83 103.281 152.006 103.014 161.678 105.053C160.638 108.922 162.874 110.952 162.874 110.952L143.052 110.37Z" fill="#407BFF"/>
<path d="M110.542 336.591C110.837 336.686 111.15 336.727 111.462 336.71C111.774 336.694 112.08 336.621 112.362 336.495C112.473 336.406 112.55 336.287 112.58 336.154C112.61 336.022 112.592 335.884 112.528 335.762C112.499 335.658 112.445 335.562 112.369 335.482C112.293 335.401 112.198 335.337 112.091 335.295C111.051 334.856 108.826 335.704 108.732 335.743C108.701 335.754 108.674 335.774 108.656 335.799C108.637 335.825 108.628 335.855 108.628 335.885C108.626 335.916 108.634 335.947 108.65 335.974C108.667 336.001 108.692 336.023 108.722 336.038C109.307 336.275 109.917 336.461 110.542 336.591ZM111.738 335.514L111.935 335.581C111.999 335.604 112.056 335.64 112.103 335.686C112.15 335.732 112.185 335.787 112.206 335.847C112.299 336.133 112.206 336.229 112.143 336.257C111.748 336.562 110.282 336.257 109.262 335.905C110.046 335.608 110.891 335.474 111.738 335.514Z" fill="#407BFF"/>
<path d="M108.763 336.048H108.846C109.678 335.819 111.446 334.666 111.467 333.913C111.468 333.793 111.424 333.677 111.343 333.584C111.261 333.49 111.147 333.425 111.02 333.399C110.895 333.356 110.761 333.339 110.628 333.349C110.495 333.359 110.366 333.395 110.25 333.456C109.273 333.913 108.659 335.762 108.638 335.847C108.632 335.868 108.63 335.89 108.633 335.911C108.636 335.932 108.644 335.953 108.655 335.971C108.667 335.99 108.682 336.006 108.701 336.019C108.719 336.032 108.741 336.042 108.763 336.048ZM110.843 333.675H110.916C111.134 333.742 111.134 333.837 111.134 333.885C111.134 334.332 109.949 335.238 109.054 335.6C109.277 334.856 109.742 334.191 110.386 333.694C110.526 333.634 110.687 333.627 110.833 333.675H110.843Z" fill="#407BFF"/>
<path d="M164.549 337.715C165.495 337.715 166.4 337.591 166.702 337.21C166.778 337.107 166.818 336.986 166.818 336.862C166.818 336.738 166.778 336.617 166.702 336.514C166.642 336.421 166.563 336.34 166.468 336.276C166.373 336.212 166.265 336.167 166.15 336.143C164.934 335.838 162.375 337.172 162.271 337.229C162.24 337.245 162.215 337.269 162.199 337.298C162.182 337.326 162.175 337.359 162.178 337.391C162.185 337.424 162.203 337.454 162.229 337.478C162.254 337.501 162.287 337.518 162.323 337.524C163.057 337.648 163.802 337.712 164.549 337.715ZM165.714 336.409C165.824 336.399 165.936 336.399 166.046 336.409C166.187 336.439 166.31 336.518 166.39 336.629C166.514 336.829 166.462 336.924 166.39 336.981C166.046 337.42 164.195 337.429 162.843 337.248C163.733 336.803 164.707 336.518 165.714 336.409Z" fill="#407BFF"/>
<path d="M162.344 337.524H162.417C163.301 337.162 165.048 335.714 164.913 334.952C164.913 334.771 164.746 334.551 164.268 334.513C164.095 334.495 163.921 334.51 163.754 334.556C163.588 334.601 163.434 334.678 163.301 334.78C162.64 335.513 162.244 336.415 162.167 337.362C162.166 337.384 162.169 337.407 162.177 337.427C162.186 337.448 162.199 337.467 162.215 337.483C162.232 337.499 162.252 337.512 162.274 337.521C162.296 337.529 162.32 337.534 162.344 337.534V337.524ZM164.122 334.809H164.226C164.538 334.809 164.559 334.942 164.57 334.98C164.653 335.438 163.457 336.581 162.562 337.077C162.642 336.312 162.98 335.589 163.53 335.009C163.692 334.876 163.904 334.804 164.122 334.809Z" fill="#407BFF"/>
<path d="M154.294 337.372H161.616L162.344 321.85H155.022L154.294 337.372Z" fill="#FF8B7B"/>
<path d="M100.61 334.266L107.754 335.685L114.941 321.23L107.786 319.811L100.61 334.266Z" fill="#FF8B7B"/>
<path d="M108.441 335.028L100.412 333.437C100.27 333.409 100.122 333.426 99.9916 333.484C99.8614 333.543 99.7566 333.64 99.6943 333.761L96.9071 339.306C96.8329 339.441 96.7945 339.589 96.795 339.74C96.7955 339.89 96.8349 340.038 96.91 340.172C96.9851 340.306 97.0937 340.422 97.227 340.51C97.3602 340.598 97.5143 340.656 97.6767 340.678C100.495 341.183 101.899 341.307 105.425 342.003C107.598 342.441 112.507 343.537 115.502 344.128C118.498 344.719 119.538 342.079 118.373 341.593C113.173 339.392 110.926 337.458 109.512 335.657C109.252 335.333 108.87 335.109 108.441 335.028Z" fill="#263238"/>
<path d="M161.564 336.591H153.577C153.431 336.59 153.29 336.635 153.176 336.718C153.063 336.801 152.984 336.918 152.953 337.048L151.507 343.032C151.465 343.176 151.46 343.327 151.493 343.473C151.526 343.619 151.595 343.756 151.697 343.873C151.798 343.989 151.927 344.083 152.075 344.145C152.223 344.208 152.384 344.238 152.547 344.233C155.428 344.185 159.598 344.033 163.218 344.033C167.45 344.033 171.111 344.242 176.082 344.242C179.078 344.242 179.92 341.46 178.662 341.203C172.931 340.059 168.262 339.935 163.322 337.143C162.803 336.813 162.194 336.622 161.564 336.591Z" fill="#263238"/>
<path d="M131.997 108.627C125.143 110.066 119.517 126.102 119.517 126.102L133.286 135.717C136.844 132.236 139.353 127.967 140.566 123.33C142.917 114.906 139.006 107.14 131.997 108.627Z" fill="#407BFF"/>
<path opacity="0.4" d="M131.997 108.627C125.143 110.066 119.517 126.102 119.517 126.102L133.286 135.717C136.844 132.236 139.353 127.967 140.566 123.33C142.917 114.906 139.006 107.14 131.997 108.627Z" fill="white"/>
<path d="M173.108 116.25L184.662 125.988C186.586 127.608 188.51 129.218 190.445 130.8C192.379 132.382 194.314 133.964 196.175 135.336L194.563 134.545C195.458 134.85 196.394 135.145 197.382 135.383C198.37 135.622 199.389 135.822 200.439 136.012C202.601 136.371 204.78 136.629 206.97 136.784C209.206 136.956 211.494 137.07 213.793 137.127C216.091 137.184 218.473 137.232 220.73 137.241L221.77 142.177C219.394 142.966 216.962 143.603 214.49 144.083C212.013 144.573 209.505 144.924 206.981 145.131C204.391 145.348 201.787 145.383 199.191 145.236C196.432 145.091 193.701 144.659 191.048 143.95L190.268 143.74L189.446 143.159C187.158 141.548 185.13 139.976 183.092 138.394C181.054 136.813 179.078 135.174 177.102 133.544C173.17 130.266 169.27 127.008 165.454 123.625L173.108 116.25Z" fill="#FF8B7B"/>
<path opacity="0.2" d="M137.873 120.404C134.15 123.777 132.933 129.933 132.673 135.269L133.286 135.698C136.842 132.215 139.35 127.947 140.566 123.31C140.702 122.815 140.826 122.358 140.92 121.814L137.873 120.404Z" fill="black"/>
<path d="M175.323 115.297C176.821 122.539 177.757 137.413 173.41 166.856H134.285C134.014 161.358 137.79 134.507 131.997 108.579C136.325 107.818 140.702 107.312 145.101 107.064C150.643 106.773 156.199 106.773 161.741 107.064C163.571 107.217 165.37 107.464 166.941 107.722C169.01 108.06 170.918 108.965 172.415 110.318C173.911 111.67 174.925 113.406 175.323 115.297Z" fill="#407BFF"/>
<path opacity="0.4" d="M175.323 115.297C176.821 122.539 177.757 137.413 173.41 166.856H134.285C134.014 161.358 137.79 134.507 131.997 108.579C136.325 107.818 140.702 107.312 145.101 107.064C150.643 106.773 156.199 106.773 161.741 107.064C163.571 107.217 165.37 107.464 166.941 107.722C169.01 108.06 170.918 108.965 172.415 110.318C173.911 111.67 174.925 113.406 175.323 115.297Z" fill="white"/>
<path opacity="0.2" d="M169.333 126.036L176.405 124.483C176.623 128.408 176.644 133.268 176.322 139.281C173.066 135.888 168.917 130.59 169.333 126.036Z" fill="black"/>
<path opacity="0.2" d="M162.344 321.85L161.97 329.854H154.648L155.022 321.85H162.344Z" fill="black"/>
<path opacity="0.2" d="M107.786 319.811L114.941 321.23L111.228 328.682L104.083 327.262L107.786 319.811Z" fill="black"/>
<path d="M143.676 84.9576C145.558 91.3799 146.307 95.2295 150.634 97.8975C157.144 101.919 165.194 97.3067 165.495 90.4937C165.724 84.3668 162.614 74.8857 155.095 73.5898C153.436 73.2969 151.723 73.3973 150.118 73.8816C148.514 74.3659 147.071 75.218 145.927 76.357C144.783 77.4959 143.975 78.884 143.581 80.3892C143.187 81.8945 143.22 83.4671 143.676 84.9576Z" fill="#FF8B7B"/>
<path d="M159.588 85.4435C162.874 85.0147 161.928 81.5368 160.701 79.8312C160.701 79.8312 167.981 71.7794 159.588 68.5302C151.195 65.2809 153.223 70.3501 153.223 70.3501C153.223 70.3501 146.64 65.824 140.92 69.483C135.2 73.142 140.14 74.7238 140.14 74.7238C140.14 74.7238 129.74 77.5252 133.9 82.3467C138.06 87.1682 142.355 86.6823 142.355 86.6823C142.355 86.6823 133.734 89.7981 140.275 93.2952C146.817 96.7922 149.271 96.9446 149.271 96.9446C151.02 97.144 152.789 96.7703 154.266 95.8897C155.743 95.009 156.832 93.6783 157.342 92.1327L159.588 85.4435Z" fill="#263238"/>
<path d="M156.759 85.4627C156.9 87.1151 157.631 88.6791 158.839 89.9125C160.43 91.5229 162.094 90.5129 162.386 88.5595C162.635 86.7871 162.115 83.7951 160.16 82.9376C158.205 82.08 156.634 83.4712 156.759 85.4627Z" fill="#FF8B7B"/>
<path d="M159.536 166.885C159.536 166.885 151.216 218.102 146.671 237.292C141.679 258.303 114.92 327.815 114.92 327.815L101.826 325.213C101.826 325.213 120.546 268.556 124.706 239.179C127.93 216.615 134.264 166.866 134.264 166.866L159.536 166.885Z" fill="#263238"/>
<path d="M118.061 323.822L115.617 328.167L100.88 325.242L102.128 321.183L118.061 323.822Z" fill="#407BFF"/>
<path opacity="0.3" d="M154.284 185.132C144.685 186.857 145.704 219.655 146.858 236.53C149.625 224.6 153.681 201.655 156.447 185.371C155.777 185.067 155.014 184.983 154.284 185.132Z" fill="black"/>
<path d="M173.41 166.885C173.41 166.885 174.45 216.996 173.628 237.397C172.796 258.656 164.694 328.263 164.694 328.263H152.298C152.298 328.263 151.85 259.894 151.258 239.017C150.696 216.301 147.68 166.885 147.68 166.885H173.41Z" fill="#263238"/>
<path d="M167.076 323.784C167.138 323.784 166.379 328.491 166.379 328.491H151.299L150.894 324.289L167.076 323.784Z" fill="#407BFF"/>
<path d="M159.994 117.527C156.478 126.188 177.091 136.393 177.091 136.393L186.014 125.912C186.014 125.912 180.055 115.059 172.754 110.161C163.727 104.091 162.656 110.933 159.994 117.527Z" fill="#407BFF"/>
<path opacity="0.4" d="M159.994 117.527C156.478 126.188 177.091 136.393 177.091 136.393L186.014 125.912C186.014 125.912 180.055 115.059 172.754 110.161C163.727 104.091 162.656 110.933 159.994 117.527Z" fill="white"/>
<path d="M219.19 140.024C220.603 140.024 221.749 139.235 221.749 138.261C221.749 137.287 220.603 136.498 219.19 136.498C217.777 136.498 216.632 137.287 216.632 138.261C216.632 139.235 217.777 140.024 219.19 140.024Z" fill="#263238"/>
<path d="M218.202 143.883C218.125 143.884 218.049 143.869 217.978 143.839C217.908 143.809 217.846 143.766 217.797 143.711C217.709 143.615 217.667 143.491 217.679 143.366C217.69 143.241 217.755 143.126 217.859 143.044C217.922 142.997 219.253 141.882 218.681 139.29C218.667 139.229 218.667 139.167 218.68 139.106C218.693 139.045 218.719 138.987 218.757 138.936C218.795 138.884 218.843 138.84 218.9 138.806C218.957 138.772 219.02 138.749 219.086 138.737C219.153 138.725 219.222 138.725 219.289 138.736C219.356 138.748 219.42 138.772 219.477 138.807C219.534 138.841 219.583 138.886 219.621 138.938C219.66 138.989 219.686 139.048 219.7 139.109C220.407 142.282 218.608 143.711 218.535 143.769C218.442 143.841 218.324 143.881 218.202 143.883Z" fill="#263238"/>
<path opacity="0.4" d="M221.27 138.166C221.27 138.89 220.345 139.471 219.19 139.471C218.036 139.471 217.11 138.89 217.11 138.166C217.11 137.442 218.036 136.87 219.19 136.87C220.345 136.87 221.27 137.413 221.27 138.166Z" fill="white"/>
<path d="M163.218 107.169C158.434 110.304 150.145 122.415 148.658 129.571C148.647 129.618 148.622 129.661 148.584 129.695C148.547 129.729 148.499 129.751 148.447 129.76C148.395 129.768 148.342 129.761 148.294 129.741C148.246 129.721 148.206 129.688 148.179 129.647C143.663 122.944 140.984 115.34 140.369 107.483C140.366 107.452 140.357 107.421 140.341 107.393C140.326 107.365 140.304 107.341 140.278 107.32C140.252 107.3 140.222 107.284 140.189 107.275C140.157 107.265 140.122 107.262 140.088 107.264C138.923 107.335 137.763 107.466 136.614 107.655C136.558 107.669 136.508 107.7 136.472 107.743C136.436 107.786 136.417 107.839 136.417 107.893C136.981 117.713 140.798 127.143 147.358 134.926C147.37 134.95 147.377 134.976 147.377 135.002C147.377 135.029 147.37 135.055 147.358 135.078C146.723 145.798 147.566 164.96 147.67 167.238C147.672 167.299 147.701 167.357 147.749 167.4C147.798 167.442 147.862 167.466 147.93 167.466H151.05C151.085 167.466 151.119 167.46 151.152 167.447C151.184 167.435 151.213 167.416 151.237 167.393C151.261 167.37 151.28 167.343 151.293 167.313C151.305 167.283 151.311 167.251 151.31 167.218C151.164 165.027 150.186 148.38 151.31 134.726C153.067 124.568 163.582 110.837 167.274 108.122C167.313 108.095 167.343 108.057 167.36 108.015C167.376 107.972 167.378 107.926 167.366 107.882C167.354 107.838 167.328 107.798 167.291 107.768C167.254 107.738 167.208 107.718 167.159 107.712C165.599 107.398 163.81 107.197 163.384 107.159C163.329 107.146 163.27 107.149 163.218 107.169Z" fill="#355AAD"/>
</svg>
