<svg width="521" height="355" viewBox="0 0 521 355" fill="none" xmlns="http://www.w3.org/2000/svg">
<path d="M0.234009 311.959H520.234V312.197H0.234009V311.959Z" fill="#EBEBEB"/>
<path d="M52.338 327.29H86.7828V327.528H52.338V327.29Z" fill="#EBEBEB"/>
<path d="M175.765 329.882H184.803V330.12H175.765V329.882Z" fill="#EBEBEB"/>
<path d="M87.8228 318.448H107.78V318.686H87.8228V318.448Z" fill="#EBEBEB"/>
<path d="M420.758 320.049H465.676V320.286H420.758V320.049Z" fill="#EBEBEB"/>
<path d="M404.908 320.049H411.492V320.286H404.908V320.049Z" fill="#EBEBEB"/>
<path d="M286.078 324.07H383.505V324.307H286.078V324.07Z" fill="#EBEBEB"/>
<path d="M273.754 269.461H474.568C476.141 269.458 477.649 268.884 478.76 267.864C479.871 266.844 480.496 265.461 480.496 264.02V5.38355C480.482 3.95046 479.852 2.5802 478.742 1.57039C477.632 0.560577 476.132 -0.00721912 474.568 -0.00967407H273.754C272.179 -0.00967407 270.669 0.563559 269.555 1.58392C268.441 2.60428 267.816 3.98819 267.816 5.43119V264.02C267.816 265.463 268.441 266.847 269.555 267.867C270.669 268.888 272.179 269.461 273.754 269.461ZM474.568 0.1809C476.072 0.183424 477.513 0.732671 478.576 1.70808C479.639 2.6835 480.236 4.00537 480.236 5.38355V264.02C480.236 265.398 479.639 266.72 478.576 267.696C477.513 268.671 476.072 269.22 474.568 269.223H273.754C272.249 269.22 270.806 268.671 269.742 267.696C268.678 266.721 268.078 265.399 268.076 264.02V5.38355C268.078 4.0045 268.678 2.68264 269.742 1.7075C270.806 0.732361 272.249 0.183419 273.754 0.1809H474.568Z" fill="#EBEBEB"/>
<path d="M48.7916 269.461H249.616C251.19 269.458 252.699 268.884 253.812 267.865C254.925 266.845 255.551 265.462 255.554 264.02V5.38355C255.538 3.94959 254.905 2.57934 253.793 1.56979C252.682 0.560244 251.181 -0.00724589 249.616 -0.00967407H48.7916C47.2292 -0.00471488 45.7319 0.564189 44.6242 1.57373C43.5165 2.58327 42.8877 3.95211 42.874 5.38355V264.02C42.874 265.46 43.4968 266.841 44.6059 267.861C45.7151 268.88 47.2202 269.456 48.7916 269.461ZM249.616 0.1809C251.121 0.183419 252.563 0.732361 253.628 1.7075C254.692 2.68264 255.291 4.0045 255.294 5.38355V264.02C255.291 265.399 254.692 266.721 253.628 267.696C252.563 268.671 251.121 269.22 249.616 269.223H48.7916C47.2864 269.22 45.8437 268.671 44.7794 267.696C43.7151 266.721 43.116 265.399 43.1132 264.02V5.38355C43.116 4.0045 43.7151 2.68264 44.7794 1.7075C45.8437 0.732361 47.2864 0.183419 48.7916 0.1809H249.616Z" fill="#EBEBEB"/>
<path d="M450.772 311.959H309.644L309.644 38.6862H450.772V311.959Z" fill="#E6E6E6"/>
<path d="M453.903 311.959H312.775L312.775 38.6862H453.903V311.959Z" fill="#F5F5F5"/>
<path d="M318.401 306.165V44.4797L448.266 44.4797V306.165H318.401Z" fill="#FAFAFA"/>
<path d="M348.311 306.165L381.217 44.4797H418.366L385.46 306.165H348.311Z" fill="white"/>
<path d="M445.895 306.165V44.4797H448.266V306.165H445.895Z" fill="#E6E6E6"/>
<path d="M451.573 74.9238L315.104 74.9238V67.1484L451.573 67.1484V74.9238Z" fill="#F5F5F5"/>
<path d="M235.035 311.959V153.402H292.016V311.959H235.035Z" fill="#F0F0F0"/>
<path d="M238.165 204.504V158.033H288.886V204.504H238.165Z" fill="#F5F5F5"/>
<path d="M238.165 255.149V208.678H288.886V255.149H238.165Z" fill="#F5F5F5"/>
<path d="M238.165 305.794V259.323H288.886V305.794H238.165Z" fill="#F5F5F5"/>
<path d="M252.299 157.423H274.794C274.801 158.057 274.67 158.685 274.408 159.272C274.147 159.859 273.76 160.392 273.271 160.84C272.782 161.288 272.2 161.642 271.56 161.882C270.92 162.121 270.234 162.241 269.542 162.235H257.603C256.909 162.24 256.221 162.119 255.579 161.88C254.936 161.64 254.351 161.287 253.859 160.84C253.366 160.392 252.974 159.86 252.706 159.274C252.439 158.688 252.3 158.059 252.299 157.423Z" fill="#E6E6E6"/>
<path d="M252.299 208.068H274.794C274.794 209.345 274.241 210.57 273.256 211.474C272.272 212.378 270.936 212.887 269.542 212.889H257.603C256.909 212.893 256.221 212.771 255.578 212.531C254.935 212.29 254.351 211.936 253.858 211.488C253.365 211.04 252.974 210.507 252.706 209.92C252.439 209.333 252.3 208.704 252.299 208.068Z" fill="#E6E6E6"/>
<path d="M252.299 258.713H274.794C274.794 259.99 274.241 261.215 273.256 262.119C272.272 263.023 270.936 263.532 269.542 263.534H257.603C256.909 263.538 256.221 263.416 255.578 263.176C254.935 262.935 254.351 262.581 253.858 262.133C253.365 261.685 252.974 261.152 252.706 260.565C252.439 259.978 252.3 259.349 252.299 258.713Z" fill="#E6E6E6"/>
<path d="M206.58 311.959V153.402H235.045V311.959H206.58Z" fill="#F5F5F5"/>
<path d="M82.9241 308.062H67.1265L67.1265 188.686H82.9241L82.9241 308.062Z" fill="#F0F0F0"/>
<path d="M221.005 311.959H69.3108V308.062H221.005V311.959Z" fill="#F0F0F0"/>
<path d="M82.9244 188.686H223.2V308.062H82.9244V188.686Z" fill="#FAFAFA"/>
<path d="M195.754 258.446H110.412C106.382 258.446 102.517 256.979 99.6676 254.368C96.8181 251.758 95.2173 248.217 95.2173 244.525C95.2173 240.832 96.8181 237.291 99.6676 234.681C102.517 232.07 106.382 230.603 110.412 230.603H195.754C199.784 230.603 203.649 232.07 206.498 234.681C209.348 237.291 210.948 240.832 210.948 244.525C210.948 248.217 209.348 251.758 206.498 254.368C203.649 256.979 199.784 258.446 195.754 258.446ZM110.391 231.537C108.529 231.537 106.686 231.873 104.966 232.526C103.246 233.178 101.684 234.135 100.368 235.341C99.0512 236.547 98.0071 237.979 97.2947 239.554C96.5823 241.13 96.2157 242.819 96.2157 244.525C96.2157 246.23 96.5823 247.919 97.2947 249.495C98.0071 251.07 99.0512 252.502 100.368 253.708C101.684 254.914 103.246 255.871 104.966 256.523C106.686 257.176 108.529 257.512 110.391 257.512H195.754C199.514 257.512 203.119 256.144 205.777 253.708C208.436 251.272 209.929 247.969 209.929 244.525C209.929 241.08 208.436 237.777 205.777 235.341C203.119 232.905 199.514 231.537 195.754 231.537H110.391Z" fill="#F0F0F0"/>
<path d="M195.754 293.083H110.412C106.382 293.083 102.517 291.616 99.6676 289.005C96.8181 286.394 95.2173 282.853 95.2173 279.161C95.2173 275.469 96.8181 271.928 99.6676 269.317C102.517 266.706 106.382 265.24 110.412 265.24H195.754C199.784 265.24 203.649 266.706 206.498 269.317C209.348 271.928 210.948 275.469 210.948 279.161C210.948 282.853 209.348 286.394 206.498 289.005C203.649 291.616 199.784 293.083 195.754 293.083ZM110.412 266.174C108.519 266.127 106.634 266.428 104.87 267.059C103.106 267.69 101.498 268.639 100.141 269.849C98.7839 271.059 97.7052 272.507 96.9686 274.105C96.232 275.704 95.8526 277.421 95.8526 279.156C95.8526 280.892 96.232 282.609 96.9686 284.208C97.7052 285.806 98.7839 287.253 100.141 288.464C101.498 289.674 103.106 290.622 104.87 291.254C106.634 291.885 108.519 292.186 110.412 292.139H195.754C197.647 292.186 199.531 291.885 201.295 291.254C203.06 290.622 204.668 289.674 206.025 288.464C207.382 287.253 208.461 285.806 209.197 284.208C209.934 282.609 210.313 280.892 210.313 279.156C210.313 277.421 209.934 275.704 209.197 274.105C208.461 272.507 207.382 271.059 206.025 269.849C204.668 268.639 203.06 267.69 201.295 267.059C199.531 266.428 197.647 266.127 195.754 266.174H110.412Z" fill="#F0F0F0"/>
<path d="M165.937 241.523H140.187C139.346 241.52 138.541 241.213 137.947 240.669C137.353 240.124 137.017 239.387 137.015 238.617C137.017 237.847 137.353 237.109 137.947 236.564C138.541 236.02 139.346 235.713 140.187 235.71H165.937C166.778 235.713 167.583 236.02 168.177 236.564C168.771 237.109 169.106 237.847 169.109 238.617C169.106 239.387 168.771 240.124 168.177 240.669C167.583 241.213 166.778 241.52 165.937 241.523Z" fill="#EBEBEB"/>
<path d="M195.754 223.809H110.412C106.382 223.809 102.517 222.342 99.6676 219.732C96.8181 217.121 95.2173 213.58 95.2173 209.888C95.2173 206.196 96.8181 202.655 99.6676 200.044C102.517 197.433 106.382 195.966 110.412 195.966H195.754C199.784 195.966 203.649 197.433 206.498 200.044C209.348 202.655 210.948 206.196 210.948 209.888C210.948 213.58 209.348 217.121 206.498 219.732C203.649 222.342 199.784 223.809 195.754 223.809ZM110.412 196.9C106.652 196.9 103.047 198.269 100.388 200.704C97.7299 203.14 96.2365 206.443 96.2365 209.888C96.2365 213.332 97.7299 216.636 100.388 219.071C103.047 221.507 106.652 222.875 110.412 222.875H195.754C199.514 222.875 203.119 221.507 205.777 219.071C208.436 216.636 209.929 213.332 209.929 209.888C209.929 206.443 208.436 203.14 205.777 200.704C203.119 198.269 199.514 196.9 195.754 196.9H110.412Z" fill="#F0F0F0"/>
<path d="M165.937 206.886H140.187C139.346 206.884 138.541 206.577 137.947 206.032C137.353 205.488 137.017 204.75 137.015 203.98C137.028 203.218 137.369 202.491 137.962 201.956C138.555 201.421 139.354 201.121 140.187 201.121H165.937C166.769 201.121 167.568 201.421 168.162 201.956C168.755 202.491 169.095 203.218 169.109 203.98C169.106 204.75 168.771 205.488 168.177 206.032C167.583 206.577 166.778 206.884 165.937 206.886Z" fill="#EBEBEB"/>
<path d="M165.937 276.15H140.187C139.354 276.15 138.555 275.851 137.962 275.316C137.369 274.781 137.028 274.054 137.015 273.292C137.031 272.53 137.372 271.804 137.965 271.27C138.558 270.736 139.355 270.435 140.187 270.433H165.937C166.769 270.435 167.566 270.736 168.159 271.27C168.752 271.804 169.093 272.53 169.109 273.292C169.095 274.054 168.755 274.781 168.162 275.316C167.568 275.851 166.769 276.15 165.937 276.15Z" fill="#EBEBEB"/>
<path d="M226.091 188.686L82.9347 188.686V182.617L226.091 182.617V188.686Z" fill="#F0F0F0"/>
<path d="M64.0275 182.626H82.9243V188.696H64.0275V182.626Z" fill="#E6E6E6"/>
<path d="M185.354 87.0728C182.161 88.5403 173.508 86.9585 176.389 92.3231C178.048 95.1333 180.032 97.772 182.307 100.194C185.531 103.843 184.917 107.817 181.111 109.227C180.294 109.483 179.573 109.946 179.031 110.561C177.273 112.867 181.412 115.954 183.451 118.26C185.489 120.566 186.3 122.834 184.803 124.549C183.139 126.455 179.686 125.74 176.94 126.312C170.347 127.694 177.128 136.031 176.431 140.309C175.952 143.244 173.311 144.064 169.827 144.474C166.946 144.817 163.108 145.055 162.952 147.751C162.807 150.095 166.135 152.744 167.008 155.203C167.423 156.261 167.58 157.389 167.469 158.508C167.357 159.627 166.98 160.711 166.364 161.682C165.778 162.501 165.014 163.2 164.119 163.735C163.224 164.27 162.218 164.628 161.164 164.789C157.898 165.418 152.958 164.789 152.719 168.143C152.615 169.648 153.759 171.001 152.968 172.373C152.53 172.952 151.96 173.437 151.298 173.794C150.635 174.151 149.896 174.372 149.131 174.441C146.003 174.879 142.817 174.827 139.708 174.289C135.871 173.641 130.203 170.544 132.283 167.561C132.641 167.134 133.089 166.775 133.599 166.507C134.11 166.239 134.673 166.066 135.257 165.999C136.172 165.827 138.856 166.094 139.199 165.522C139.542 164.951 138.616 162.75 138.585 161.959C138.49 159.762 138.868 157.57 139.698 155.508C140.757 152.811 142.447 150.359 144.648 148.323C145.564 147.475 147.009 146.856 147.196 145.626C147.384 144.397 146.541 143.044 145.605 141.815C144.139 139.909 141.861 138.118 141.04 136.098C139.75 132.915 142.88 131.905 145.782 131.181C148.403 130.524 151.856 129.685 150.982 126.769C150.337 124.663 147.436 122.958 146.572 120.881C145.397 118.127 148.247 118.022 150.275 117.069C152.927 115.792 153.592 113.505 152.636 110.618C151.044 105.854 141.508 99.1171 146.396 96.0203C147.633 95.2294 148.788 94.9721 149.516 93.781C150.244 92.5899 150.431 90.9224 151.471 89.798C153.114 87.9781 156.515 87.6731 158.283 85.9866C161.933 82.5181 154.06 76.3721 161.247 74.9047C162.764 74.7258 164.201 74.1761 165.407 73.3134C166.062 72.7513 166.603 70.0356 167.341 69.845C170.638 69.0065 176.576 74.8666 178.448 76.6675C180.726 78.8401 189.14 85.3196 185.354 87.0728Z" fill="#E0E0E0"/>
<path d="M128.788 167.895C130.744 164.57 139.303 161.225 133.624 157.414C130.562 155.504 127.267 153.928 123.807 152.716C118.836 150.81 117.068 146.427 119.584 142.797C120.163 142.033 120.521 141.148 120.624 140.224C120.832 136.87 115.372 136.069 112.232 134.859C109.091 133.649 107.032 131.8 107.375 129.19C107.728 126.331 111.181 125.054 113.272 122.91C118.284 117.746 107.427 113.067 105.544 108.284C104.255 105.006 106.064 102.69 108.935 100.261C111.275 98.2691 114.53 95.8488 113.095 92.9902C111.847 90.5127 107.364 89.6933 105.16 87.6732C104.142 86.7599 103.333 85.6704 102.78 84.4681C102.226 83.2657 101.939 81.9745 101.936 80.6696C101.985 78.3833 102.969 76.1971 104.692 74.5427C107.208 72.0367 111.972 69.8927 110.193 66.3004C109.403 64.6996 107.604 63.9849 107.5 62.1078C107.531 61.295 107.74 60.4961 108.113 59.7582C108.486 59.0202 109.017 58.358 109.673 57.8104C112.109 55.6234 114.956 53.8577 118.076 52.5982C121.841 51.0736 128.653 51.026 128.56 55.2662C128.443 56.5147 127.837 57.6822 126.854 58.5536C126.136 59.2587 123.62 60.507 123.651 61.2883C123.682 62.0697 125.731 63.7944 126.282 64.5852C127.661 66.8327 128.6 69.2834 129.059 71.827C129.702 75.199 129.642 78.6522 128.882 82.0037C128.58 83.3853 127.655 84.8623 128.216 86.2153C128.778 87.5684 130.296 88.4831 131.825 89.1787C134.228 90.2841 137.296 90.8462 139.199 92.4471C142.204 94.9722 140.031 97.7926 137.888 100.184C135.954 102.347 133.406 105.168 135.892 107.655C137.691 109.446 141.258 109.561 143.172 111.171C145.813 113.334 143.369 115.059 142.132 117.231C140.551 120.09 141.289 122.758 143.827 125.168C147.987 129.151 160.363 130.619 157.856 136.603C157.222 138.118 156.369 139.042 156.4 140.681C156.432 142.32 157.253 144.111 157.004 145.874C156.619 148.676 153.8 150.924 153.218 153.659C152.032 159.291 162.578 161.111 157.087 166.694C155.804 167.796 154.852 169.18 154.32 170.716C154.06 171.668 155.184 174.746 154.643 175.366C152.22 178.1 143.556 175.489 140.852 174.699C137.66 173.698 126.448 171.849 128.788 167.895Z" fill="#F5F5F5"/>
<path d="M106.865 160.396C106.865 160.396 107.905 182.626 147.613 182.626C187.32 182.626 188.36 160.396 188.36 160.396H106.865Z" fill="#F0F0F0"/>
<path d="M260.234 354.99C148.868 354.99 58.5883 350.161 58.5883 344.204C58.5883 338.247 148.868 333.417 260.234 333.417C371.6 333.417 461.88 338.247 461.88 344.204C461.88 350.161 371.6 354.99 260.234 354.99Z" fill="#F5F5F5"/>
<g opacity="0.2">
<path d="M145.075 336.228L211.313 224.057L277.55 336.228H145.075Z" fill="#407BFF"/>
<path d="M145.075 146.465L211.313 258.627L277.55 146.465H145.075Z" fill="#407BFF"/>
</g>
<path d="M199.176 212.689L208.869 229.098C209.107 229.502 209.459 229.839 209.89 230.075C210.32 230.31 210.812 230.434 211.313 230.434C211.814 230.434 212.306 230.31 212.736 230.075C213.166 229.839 213.519 229.502 213.757 229.098L223.449 212.689C224.323 211.206 224.762 209.541 224.721 207.855C224.681 206.17 224.164 204.524 223.22 203.077C222.277 201.63 220.939 200.433 219.338 199.602C217.738 198.772 215.929 198.337 214.089 198.339H208.484C206.649 198.345 204.847 198.786 203.253 199.62C201.66 200.454 200.329 201.652 199.392 203.098C198.454 204.543 197.941 206.186 197.904 207.867C197.866 209.548 198.304 211.21 199.176 212.689Z" fill="#355AAD"/>
<path d="M210.262 307.909L180.154 319.248C179.567 319.475 179.082 319.881 178.782 320.396C178.482 320.912 178.385 321.506 178.507 322.079C178.629 322.653 178.963 323.17 179.452 323.545C179.941 323.919 180.556 324.128 181.194 324.136H241.379C242.016 324.128 242.631 323.919 243.121 323.545C243.61 323.17 243.944 322.653 244.066 322.079C244.188 321.506 244.09 320.912 243.791 320.396C243.491 319.881 243.006 319.475 242.419 319.248L212.394 307.909C212.056 307.779 211.694 307.713 211.328 307.713C210.962 307.713 210.6 307.779 210.262 307.909Z" fill="#355AAD"/>
<path d="M211.312 286.336C209.182 286.336 207.454 284.754 207.454 282.801C207.454 280.849 209.182 279.266 211.312 279.266C213.443 279.266 215.171 280.849 215.171 282.801C215.171 284.754 213.443 286.336 211.312 286.336Z" fill="#355AAD"/>
<path d="M211.312 247.698C210.215 247.698 209.326 246.883 209.326 245.878C209.326 244.872 210.215 244.058 211.312 244.058C212.409 244.058 213.299 244.872 213.299 245.878C213.299 246.883 212.409 247.698 211.312 247.698Z" fill="#355AAD"/>
<path d="M211.313 265.545C210.066 265.545 209.056 264.619 209.056 263.477C209.056 262.335 210.066 261.409 211.313 261.409C212.559 261.409 213.569 262.335 213.569 263.477C213.569 264.619 212.559 265.545 211.313 265.545Z" fill="#355AAD"/>
<path d="M145.408 330.692H277.217C278.817 330.697 280.35 331.282 281.48 332.32C282.61 333.357 283.247 334.763 283.249 336.228C283.244 337.693 282.607 339.095 281.476 340.131C280.346 341.166 278.815 341.75 277.217 341.755H145.408C143.81 341.75 142.278 341.166 141.148 340.131C140.018 339.095 139.381 337.693 139.376 336.228C139.378 334.763 140.014 333.357 141.145 332.32C142.275 331.282 143.808 330.697 145.408 330.692Z" fill="#355AAD"/>
<path d="M145.408 140.938H277.217C278.815 140.943 280.346 141.527 281.476 142.563C282.607 143.598 283.244 145.001 283.249 146.465C283.244 147.929 282.607 149.332 281.476 150.367C280.346 151.403 278.815 151.987 277.217 151.992H145.408C143.81 151.987 142.278 151.403 141.148 150.367C140.018 149.332 139.381 147.929 139.376 146.465C139.381 145.001 140.018 143.598 141.148 142.563C142.278 141.527 143.81 140.943 145.408 140.938Z" fill="#355AAD"/>
<path d="M317.819 334.142L325.151 331.959L320.596 316.113L313.264 318.295L317.819 334.142Z" fill="#FF8B7B"/>
<path d="M325.265 331.064L317.028 333.513C316.889 333.55 316.772 333.636 316.7 333.751C316.628 333.867 316.608 334.003 316.644 334.132L318.36 340.23C318.469 340.544 318.711 340.806 319.03 340.958C319.35 341.109 319.722 341.139 320.065 341.04C322.915 340.145 324.225 339.582 327.855 338.506C330.091 337.839 337.433 336.104 340.512 335.19C343.59 334.275 342.519 331.512 341.125 331.645C334.885 332.245 329.269 331.979 326.669 331.102C326.219 330.947 325.725 330.934 325.265 331.064Z" fill="#263238"/>
<path opacity="0.2" d="M313.264 318.305L320.596 316.113L322.946 324.289L315.604 326.471L313.264 318.305Z" fill="black"/>
<path d="M293.223 157.899C293.223 157.899 306.379 213.69 309.467 233.748C312.847 255.711 325.546 321.669 325.546 321.669L311.932 325.118C311.932 325.118 293.067 261.152 287.555 239.798C281.575 216.615 265.715 157.852 265.715 157.852L293.223 157.899Z" fill="#355AAD"/>
<path opacity="0.3" d="M276.957 176.194C282.157 187 284.726 210.498 282.708 221.313C279.027 207.448 274.596 190.964 271.175 178.281C272.329 174.603 274.243 170.553 276.957 176.194Z" fill="black"/>
<path d="M311.589 325.366L326.17 321.688L325.879 316.247L309.468 321.44L311.589 325.366Z" fill="#263238"/>
<path d="M328.281 331.464C327.603 331.645 326.906 331.76 326.201 331.807C326.166 331.809 326.132 331.802 326.101 331.787C326.07 331.771 326.045 331.749 326.028 331.721C326.01 331.693 326.002 331.662 326.003 331.63C326.004 331.598 326.015 331.567 326.035 331.54C326.222 331.321 327.834 329.406 328.843 329.463C328.959 329.468 329.072 329.501 329.17 329.558C329.268 329.614 329.349 329.693 329.404 329.787C329.509 329.925 329.571 330.086 329.586 330.253C329.601 330.421 329.567 330.588 329.488 330.74C329.193 331.105 328.765 331.362 328.281 331.464ZM326.628 331.464C328.021 331.312 328.978 330.988 329.207 330.578C329.255 330.481 329.273 330.374 329.261 330.269C329.248 330.163 329.204 330.062 329.134 329.978C329.108 329.932 329.069 329.893 329.022 329.865C328.974 329.836 328.92 329.819 328.864 329.816C328.323 329.758 327.304 330.692 326.628 331.435V331.464Z" fill="#263238"/>
<path d="M326.274 331.798H326.191C326.16 331.792 326.132 331.779 326.109 331.761C326.085 331.742 326.067 331.719 326.055 331.693C326.055 331.616 325.171 329.73 325.681 328.834C325.744 328.721 325.836 328.624 325.948 328.549C326.06 328.475 326.189 328.426 326.326 328.405C326.473 328.365 326.632 328.371 326.775 328.423C326.919 328.475 327.039 328.569 327.116 328.691C327.543 329.377 326.95 331.102 326.357 331.721L326.274 331.798ZM326.274 328.777C326.204 328.795 326.14 328.827 326.084 328.87C326.029 328.912 325.983 328.965 325.951 329.025C325.777 329.792 325.876 330.59 326.232 331.302C326.736 330.589 326.925 329.727 326.763 328.891C326.763 328.806 326.617 328.71 326.357 328.758L326.274 328.777Z" fill="#263238"/>
<path d="M279.224 104.93C279.619 105.787 279.952 106.435 280.316 107.159C280.68 107.883 281.075 108.55 281.46 109.236C282.23 110.618 283.041 111.962 283.883 113.305C285.585 116.003 287.46 118.606 289.499 121.1C291.586 123.679 293.899 126.097 296.415 128.332C299.096 130.749 302.135 132.809 305.443 134.449L305.703 134.573C306.123 134.772 306.571 134.92 307.034 135.012C309.403 135.463 311.856 135.375 314.179 134.754C316.108 134.225 317.944 133.442 319.628 132.429C322.453 130.689 324.99 128.583 327.158 126.178C329.172 123.985 331.004 121.657 332.639 119.213C334.253 116.811 335.688 114.312 336.934 111.733C337.255 111.051 337.297 110.286 337.051 109.577C336.806 108.869 336.291 108.266 335.599 107.878C334.908 107.49 334.087 107.344 333.287 107.465C332.487 107.587 331.762 107.969 331.245 108.541L331.141 108.655C329.425 110.561 327.563 112.591 325.691 114.439C323.867 116.28 321.93 118.023 319.888 119.661C318.084 121.159 316.078 122.44 313.919 123.472C313.111 123.853 312.245 124.116 311.35 124.254C310.848 124.339 310.331 124.3 309.852 124.139L311.443 124.702C309.294 123.374 307.334 121.805 305.609 120.032C303.731 118.1 301.994 116.056 300.409 113.915C298.766 111.723 297.206 109.427 295.739 107.064C294.991 105.892 294.273 104.701 293.597 103.491L292.557 101.69C292.235 101.109 291.881 100.442 291.631 99.9746L291.569 99.8412C290.811 98.3753 289.455 97.2405 287.794 96.6805C286.132 96.1206 284.297 96.1802 282.683 96.8467C281.069 97.5131 279.804 98.7332 279.162 100.245C278.519 101.756 278.549 103.438 279.245 104.93H279.224Z" fill="#263238"/>
<path opacity="0.3" d="M296.228 117.869C292.963 109.923 286.026 109.789 283.02 111.895C283.239 112.267 283.467 112.638 283.696 113.01C285.328 115.611 287.116 118.128 289.052 120.547C291.04 123.036 293.226 125.387 295.594 127.579C296.343 128.256 297.112 128.923 297.913 129.571C298.189 125.607 297.616 121.632 296.228 117.869Z" fill="black"/>
<path d="M337.194 112.229L343.954 112.457L342.269 105.835C339.942 105.941 337.632 106.26 335.374 106.788C334.963 106.902 334.587 107.103 334.276 107.375C333.966 107.647 333.73 107.982 333.587 108.353C333.444 108.724 333.399 109.121 333.454 109.511C333.51 109.901 333.665 110.274 333.907 110.599C334.273 111.092 334.762 111.497 335.334 111.78C335.906 112.064 336.544 112.217 337.194 112.229Z" fill="#FF8B7B"/>
<path d="M333.408 106.635C334.072 106.153 334.831 105.794 335.644 105.578C336.206 108.284 339.804 112.848 339.804 112.848H336.986C336.623 112.849 336.265 112.777 335.936 112.637C335.607 112.497 335.316 112.292 335.083 112.038L333.107 109.865C332.89 109.637 332.726 109.371 332.624 109.084C332.522 108.796 332.483 108.493 332.512 108.192C332.54 107.891 332.634 107.598 332.788 107.33C332.942 107.063 333.153 106.826 333.408 106.635Z" fill="#355AAD"/>
<path d="M349.133 109.408L347.24 104.739L342.29 105.844L343.975 112.457L349.133 109.408Z" fill="#FF8B7B"/>
<path d="M264.134 337.229H271.84L272.111 320.868H264.404L264.134 337.229Z" fill="#FF8B7B"/>
<path d="M272.246 336.409H263.583C263.51 336.407 263.438 336.417 263.37 336.441C263.302 336.464 263.24 336.499 263.187 336.544C263.134 336.589 263.091 336.643 263.061 336.704C263.03 336.764 263.014 336.829 263.011 336.895L262.595 343.175C262.595 343.505 262.737 343.822 262.99 344.058C263.242 344.293 263.586 344.428 263.947 344.433C266.963 344.385 268.398 344.223 272.267 344.223C274.607 344.223 282.438 344.442 285.672 344.442C288.907 344.442 288.792 341.507 287.451 341.241C281.294 340.059 275.803 338.382 273.629 336.848C273.238 336.558 272.749 336.403 272.246 336.409Z" fill="#263238"/>
<path opacity="0.2" d="M264.394 320.878H272.111L271.965 329.311H264.259L264.394 320.878Z" fill="black"/>
<path d="M278.184 157.899C278.184 157.899 281.128 219.274 279.88 239.503C278.507 261.647 275.636 327.271 275.636 327.271H261.513C261.513 327.271 257.956 263.429 257.104 241.513C256.178 217.692 251.987 157.899 251.987 157.899H278.184Z" fill="#355AAD"/>
<path d="M260.941 327.271H276.198L277.363 322.069L260.525 322.841L260.941 327.271Z" fill="#263238"/>
<path d="M274.981 337.639C274.28 337.623 273.583 337.54 272.901 337.391C272.868 337.381 272.839 337.363 272.815 337.34C272.792 337.317 272.775 337.288 272.766 337.258C272.762 337.227 272.767 337.196 272.78 337.168C272.792 337.14 272.813 337.115 272.839 337.096C273.088 336.934 275.272 335.571 276.219 335.914C276.324 335.953 276.417 336.015 276.49 336.095C276.562 336.175 276.612 336.27 276.635 336.371C276.682 336.526 276.686 336.69 276.646 336.846C276.606 337.003 276.524 337.148 276.406 337.267C275.997 337.547 275.49 337.679 274.981 337.639ZM273.421 337.153C274.804 337.4 275.813 337.362 276.177 337.038C276.252 336.958 276.303 336.862 276.325 336.758C276.347 336.655 276.339 336.548 276.302 336.448C276.295 336.397 276.272 336.349 276.237 336.308C276.203 336.268 276.157 336.237 276.104 336.219C275.595 336.038 274.316 336.629 273.421 337.153Z" fill="#263238"/>
<path d="M272.964 337.391C272.937 337.399 272.907 337.399 272.88 337.391C272.854 337.377 272.832 337.358 272.816 337.335C272.799 337.312 272.79 337.285 272.787 337.258C272.787 337.172 272.61 335.142 273.39 334.456C273.489 334.367 273.609 334.3 273.741 334.261C273.872 334.221 274.012 334.21 274.149 334.227C274.301 334.233 274.447 334.284 274.564 334.374C274.681 334.464 274.762 334.586 274.794 334.723C274.981 335.495 273.827 336.972 273.057 337.391C273.027 337.4 272.994 337.4 272.964 337.391ZM274.004 334.532C273.932 334.531 273.861 334.542 273.795 334.567C273.729 334.592 273.669 334.628 273.619 334.675C273.189 335.355 273.01 336.144 273.109 336.924C273.775 336.4 274.544 335.276 274.43 334.771C274.43 334.675 274.347 334.561 274.087 334.532H274.004Z" fill="#263238"/>
<path d="M248.128 100.937C248.013 100.341 248.03 99.7304 248.178 99.1409C248.327 98.5513 248.603 97.9953 248.992 97.506C249.38 97.0167 249.872 96.6042 250.439 96.2932C251.005 95.9823 251.634 95.7793 252.288 95.6963H252.372C254.857 95.3628 257.977 95.0197 261.035 94.8863C266.871 94.5812 272.722 94.5812 278.559 94.8863C281.252 95.115 283.884 95.5247 285.984 95.8964H286.068C287.381 96.1394 288.597 96.7062 289.585 97.5357C290.573 98.3652 291.295 99.4259 291.673 100.604C294.19 108.369 297.196 124.225 293.264 157.89H252.028C251.737 154.517 252.559 143.54 251.956 129.561C251.353 119.954 250.074 110.393 248.128 100.937Z" fill="#263238"/>
<path opacity="0.3" d="M248.524 103.014C249.376 107.531 250.427 113.677 251.155 120.166C251.155 120.166 254.92 113.401 255.606 107.617C256.292 101.833 250.874 101.394 248.524 103.014Z" fill="black"/>
<g opacity="0.2">
<path d="M276.177 103.91C276.263 103.906 276.345 103.877 276.411 103.827C276.477 103.777 276.523 103.709 276.543 103.632C276.563 103.556 276.555 103.476 276.521 103.404C276.487 103.332 276.429 103.272 276.354 103.233L263.5 97.1255C263.408 97.0847 263.303 97.0778 263.206 97.1062C263.109 97.1346 263.028 97.1961 262.98 97.2779C262.932 97.3627 262.923 97.4612 262.954 97.5522C262.985 97.6432 263.054 97.7193 263.146 97.7639L276 103.853C276.055 103.882 276.115 103.901 276.177 103.91Z" fill="white"/>
<path d="M270.291 104.463C270.341 104.464 270.392 104.456 270.439 104.438C270.486 104.42 270.527 104.392 270.561 104.358L277.612 97.9449C277.682 97.8762 277.72 97.7861 277.72 97.6924C277.72 97.5988 277.682 97.5086 277.612 97.4399C277.539 97.3741 277.44 97.3373 277.337 97.3373C277.234 97.3373 277.135 97.3741 277.061 97.4399L270.02 103.862C269.949 103.93 269.908 104.02 269.908 104.115C269.908 104.209 269.949 104.3 270.02 104.367C270.056 104.399 270.099 104.423 270.145 104.44C270.191 104.456 270.241 104.464 270.291 104.463Z" fill="white"/>
<path d="M261.004 94.8767C266.837 94.5716 272.684 94.5716 278.517 94.8767H278.809C278.95 95.3671 278.984 95.8784 278.907 96.3807C278.83 96.883 278.645 97.3662 278.361 97.802C277.384 99.2313 275.335 100.032 272.257 100.184H271.102C262.782 100.184 259.569 95.5533 259.433 95.3532L259.142 94.9244L261.004 94.8767Z" fill="white"/>
</g>
<path d="M277.685 94.8197C272.589 93.7143 271.695 90.8271 272.038 87.6541C272.119 86.8594 272.254 86.0701 272.444 85.291L266.058 80.4314L261.368 76.8676C262.668 82.0417 264.134 91.4656 260.328 94.9149C260.328 94.9149 263.448 99.6793 272.215 99.26C279.568 98.8884 277.685 94.8197 277.685 94.8197Z" fill="#FF8B7B"/>
<path opacity="0.2" d="M272.443 85.291C272.254 86.0701 272.119 86.8593 272.038 87.6541C269.656 87.2157 266.474 84.8907 266.141 82.661C266.024 81.9229 265.996 81.1751 266.058 80.4313L272.443 85.291Z" fill="black"/>
<path d="M275.834 60.4974C279.297 62.4031 278.746 67.1674 279.682 70.5787C277.477 70.7788 274.004 67.1865 274.004 67.1865L271.924 61.7266L275.834 60.4974Z" fill="#263238"/>
<path d="M257.416 70.0832C259.631 76.8104 260.536 80.841 265.236 83.652C266.748 84.5783 268.507 85.1082 270.324 85.1844C272.141 85.2607 273.946 84.8803 275.544 84.0846C277.142 83.2888 278.471 82.1079 279.39 80.6696C280.308 79.2313 280.779 77.5903 280.753 75.9242C280.753 69.5115 277.155 59.5826 269.126 58.2105C267.395 57.8716 265.598 57.9558 263.914 58.4546C262.23 58.9533 260.719 59.8491 259.533 61.0521C258.347 62.255 257.526 63.7227 257.155 65.3079C256.783 66.8931 256.873 68.5399 257.416 70.0832Z" fill="#FF8B7B"/>
<path d="M264.332 75.7909C259.132 70.2643 265.632 67.5391 260.317 63.699C266.297 63.9563 276.146 63.5656 277.904 59.8113C279.661 56.057 274.253 50.9687 269.75 50.4923C264.55 49.9396 265.673 55.8379 265.673 55.8379C265.673 55.8379 245.778 54.704 252.091 62.5079C247.307 62.2411 248.628 69.3305 256.948 75.3145C259.038 75.9529 264.332 75.7909 264.332 75.7909Z" fill="#263238"/>
<path d="M253.287 62.6032C253.287 62.6032 249.189 61.4883 249.324 58.5154C247.848 59.4492 247.692 62.2887 253.287 62.6032Z" fill="#263238"/>
<path d="M256.199 77.1058C257.395 78.4604 259.068 79.3932 260.931 79.7453C263.291 80.136 263.843 78.1349 262.667 76.1816C261.627 74.4283 259.1 72.1128 256.979 72.5988C254.857 73.0847 254.691 75.4002 256.199 77.1058Z" fill="#FF8B7B"/>
<path d="M269.261 69.9117C269.407 70.4644 269.844 70.8646 270.249 70.7788C270.655 70.693 270.852 70.1976 270.707 69.6449C270.561 69.0922 270.124 68.692 269.729 68.7683C269.334 68.8445 269.116 69.3495 269.261 69.9117Z" fill="#263238"/>
<path d="M276.156 68.6444C276.302 69.1971 276.739 69.5973 277.134 69.5211C277.529 69.4448 277.748 68.9398 277.602 68.3871C277.456 67.8345 277.02 67.4343 276.624 67.5105C276.229 67.5867 276.011 68.0918 276.156 68.6444Z" fill="#263238"/>
<path d="M274.035 69.321C275.209 70.8897 276.608 72.3063 278.195 73.5326C277.841 73.8818 277.409 74.1558 276.927 74.3353C276.446 74.5147 275.927 74.5953 275.408 74.5713L274.035 69.321Z" fill="#FF5652"/>
<path d="M273.286 76.515C272.566 76.577 271.84 76.5042 271.152 76.301C270.463 76.0979 269.827 75.7687 269.282 75.3335C269.264 75.3192 269.25 75.3015 269.24 75.2818C269.231 75.2621 269.226 75.2407 269.226 75.2191C269.226 75.1975 269.231 75.1761 269.24 75.1564C269.25 75.1367 269.264 75.1191 269.282 75.1048C269.317 75.0739 269.363 75.0567 269.412 75.0567C269.46 75.0567 269.507 75.0739 269.542 75.1048C270.14 75.5704 270.847 75.903 271.608 76.0766C272.37 76.2502 273.165 76.26 273.931 76.1053C273.954 76.1012 273.978 76.1014 274.001 76.1059C274.024 76.1104 274.046 76.1192 274.066 76.1316C274.085 76.1441 274.101 76.16 274.114 76.1784C274.127 76.1967 274.135 76.2173 274.139 76.2387C274.148 76.2829 274.138 76.3286 274.111 76.366C274.083 76.4034 274.041 76.4296 273.993 76.4388L273.286 76.515Z" fill="#263238"/>
<path d="M266.599 68.3681C266.541 68.3856 266.479 68.3856 266.422 68.3681C266.378 68.3507 266.339 68.3253 266.306 68.2936C266.273 68.2619 266.248 68.2244 266.232 68.1835C266.215 68.1426 266.208 68.099 266.21 68.0554C266.212 68.0118 266.224 67.9691 266.245 67.9298C266.468 67.4426 266.82 67.0136 267.268 66.6811C267.716 66.3486 268.247 66.1229 268.814 66.0241C268.91 66.0131 269.007 66.0367 269.085 66.0901C269.163 66.1434 269.214 66.2222 269.23 66.31C269.236 66.3538 269.232 66.3983 269.219 66.4407C269.206 66.4832 269.183 66.5229 269.154 66.5575C269.124 66.5921 269.086 66.6208 269.044 66.6421C269.002 66.6634 268.955 66.6768 268.908 66.6816C268.467 66.7668 268.055 66.9482 267.708 67.2103C267.36 67.4724 267.087 67.8075 266.911 68.1871C266.88 68.2394 266.835 68.2836 266.781 68.3153C266.726 68.3471 266.663 68.3653 266.599 68.3681Z" fill="#263238"/>
<path d="M277.862 64.8519C277.806 64.8706 277.746 64.8751 277.687 64.865C277.628 64.855 277.574 64.8307 277.529 64.7948C277.17 64.5209 276.746 64.3274 276.291 64.2299C275.836 64.1323 275.363 64.1332 274.908 64.2326C274.863 64.2463 274.814 64.2517 274.766 64.2484C274.718 64.2451 274.671 64.2331 274.628 64.2132C274.585 64.1933 274.547 64.1658 274.516 64.1324C274.484 64.0989 274.461 64.0601 274.446 64.0182C274.43 63.9763 274.425 63.932 274.428 63.8881C274.432 63.8441 274.445 63.8011 274.467 63.7618C274.488 63.7224 274.518 63.6873 274.555 63.6586C274.591 63.6298 274.634 63.6079 274.68 63.5942C275.249 63.4653 275.843 63.4594 276.415 63.5768C276.987 63.6942 277.521 63.9317 277.976 64.2707C278.052 64.3252 278.101 64.4049 278.113 64.4924C278.124 64.5798 278.098 64.668 278.039 64.7376C277.997 64.7938 277.934 64.8344 277.862 64.8519Z" fill="#263238"/>
<path d="M247.754 98.2214L246.891 99.2981L246.111 100.308C245.591 100.985 245.123 101.661 244.634 102.338C243.688 103.7 242.793 105.082 241.93 106.473C240.2 109.254 238.631 112.117 237.229 115.049C236.501 116.497 235.877 118.003 235.212 119.48C234.546 120.957 233.984 122.491 233.475 124.035C232.379 127.107 231.476 130.234 230.771 133.401L230.688 133.763C230.535 134.403 230.522 135.064 230.648 135.708C230.775 136.352 231.039 136.967 231.426 137.518C232.766 139.402 234.355 141.127 236.158 142.654C238.012 144.21 240.117 145.496 242.398 146.465C244.65 147.427 247.061 148.039 249.532 148.275C250.742 148.39 251.96 148.409 253.172 148.333C253.776 148.333 254.379 148.228 254.982 148.142L255.897 147.98L256.937 147.742C257.06 147.715 257.165 147.644 257.232 147.546C257.298 147.448 257.319 147.33 257.291 147.218L255.856 141.691C255.856 141.644 255.585 141.634 255.419 141.596L254.847 141.491C254.452 141.415 254.067 141.329 253.672 141.234C252.901 141.043 252.147 140.801 251.415 140.51C249.997 139.977 248.67 139.261 247.473 138.385C245.131 136.619 243.26 134.386 242.003 131.858L242.658 135.974C243.552 133.277 244.499 130.609 245.643 127.97C246.787 125.33 248.035 122.739 249.397 120.185C250.76 117.631 252.216 115.106 253.786 112.648C254.556 111.419 255.367 110.208 256.178 109.008L257.416 107.236L258.029 106.378L258.601 105.616L258.809 105.33C259.838 103.987 260.242 102.324 259.933 100.708C259.624 99.0913 258.627 97.6537 257.161 96.7111C255.695 95.7685 253.88 95.398 252.116 95.6813C250.352 95.9645 248.783 96.8782 247.754 98.2214Z" fill="#263238"/>
<path d="M261.503 147.189L263.739 150.543L254.036 150.191C254.036 150.191 251.488 144.207 254.961 143.263L256.313 143.597C258.476 144.152 260.329 145.435 261.503 147.189Z" fill="#FF8B7B"/>
<path d="M257.509 142.492C258.208 142.925 258.809 143.478 259.277 144.121C256.636 145.436 252.954 149.914 252.954 149.914L252.101 147.456C251.993 147.139 251.962 146.804 252.01 146.474C252.059 146.145 252.186 145.83 252.382 145.55L253.994 143.168C254.17 142.906 254.403 142.679 254.678 142.502C254.953 142.325 255.264 142.201 255.593 142.138C255.922 142.074 256.261 142.073 256.591 142.134C256.92 142.195 257.233 142.316 257.509 142.492Z" fill="#355AAD"/>
<path d="M262.886 155.708L254.888 155.06L254.036 150.191L263.739 150.543L262.886 155.708Z" fill="#FF8B7B"/>
<path d="M361.052 39.3818L361.582 38.5623C360.057 37.7342 358.469 37.0082 356.829 36.3898L356.434 37.276C358.028 37.872 359.572 38.5759 361.052 39.3818Z" fill="#407BFF"/>
<path d="M376.236 56.2095L377.276 55.8855C374.81 49.6309 370.35 44.1996 364.473 40.2966L363.86 41.0685C369.551 44.8625 373.863 50.1384 376.236 56.2095Z" fill="#407BFF"/>
<path d="M343.226 96.3919C325.547 96.3919 311.215 83.2607 311.215 67.0627C311.215 50.8646 325.547 37.7334 343.226 37.7334C360.905 37.7334 375.237 50.8646 375.237 67.0627C375.237 83.2607 360.905 96.3919 343.226 96.3919Z" fill="#355AAD"/>
<path opacity="0.6" d="M316.488 67.0626C316.49 72.7781 318.673 78.313 322.659 82.7093C326.645 87.1056 332.184 90.0865 338.315 91.1362C344.447 92.1858 350.787 91.238 356.237 88.4569C361.686 85.6758 365.903 81.2364 368.158 75.9072C370.412 70.578 370.561 64.6943 368.58 59.2748C366.599 53.8552 362.612 49.2408 357.31 46.2303C352.007 43.2198 345.723 42.0028 339.544 42.7898C333.365 43.5768 327.682 46.3184 323.476 50.5399C323.468 50.5365 323.459 50.5347 323.45 50.5347C323.441 50.5347 323.433 50.5365 323.424 50.5399C318.941 55.0603 316.466 60.9545 316.488 67.0626Z" fill="white"/>
<path d="M316.488 67.0627C316.488 71.8247 318.003 76.4834 320.847 80.4691C323.691 84.4547 327.742 87.5944 332.503 89.5041C337.264 91.4139 342.53 92.0108 347.656 91.2219C352.781 90.433 357.545 88.2926 361.364 85.0623C366.033 80.4006 368.552 74.2646 368.395 67.9392C368.237 61.6137 365.415 55.5894 360.518 51.1278C355.622 46.6662 349.031 44.1133 342.127 44.0037C335.222 43.8942 328.539 46.2364 323.477 50.54C323.468 50.5365 323.46 50.5348 323.451 50.5348C323.442 50.5348 323.433 50.5365 323.425 50.54C318.941 55.0603 316.466 60.9546 316.488 67.0627Z" fill="white"/>
<path d="M343.226 68.4919C343.431 68.4923 343.634 68.4554 343.823 68.3835C344.012 68.3115 344.184 68.2059 344.328 68.0727L357.37 56.1237C357.523 55.9929 357.646 55.8351 357.731 55.6598C357.817 55.4844 357.863 55.2952 357.866 55.1033C357.87 54.9113 357.831 54.7207 357.753 54.5427C357.674 54.3648 357.558 54.2031 357.41 54.0674C357.261 53.9316 357.085 53.8246 356.891 53.7528C356.696 53.6809 356.488 53.6456 356.279 53.649C356.069 53.6524 355.863 53.6944 355.672 53.7725C355.48 53.8506 355.308 53.9632 355.165 54.1037L343.226 65.0426L336.331 58.7251C336.035 58.4726 335.644 58.3351 335.24 58.3417C334.836 58.3482 334.45 58.4982 334.164 58.7601C333.878 59.022 333.715 59.3752 333.707 59.7455C333.7 60.1158 333.85 60.4742 334.126 60.7451L342.124 68.0727C342.416 68.3399 342.813 68.4906 343.226 68.4919Z" fill="#263238"/>
</svg>
