<svg width="513" height="397" viewBox="0 0 513 397" fill="none" xmlns="http://www.w3.org/2000/svg">
<path d="M513 348.878H6.10352e-05V349.144H513V348.878Z" fill="#EBEBEB"/>
<path d="M168.869 365.309H134.888V365.576H168.869V365.309Z" fill="#EBEBEB"/>
<path d="M265.57 362.421H256.654V362.688H265.57V362.421Z" fill="#EBEBEB"/>
<path d="M73.513 357.925H53.8241V358.191H73.513V357.925Z" fill="#EBEBEB"/>
<path d="M426.59 356.134H399.832V356.401H426.59V356.134Z" fill="#EBEBEB"/>
<path d="M390.691 356.134H366.641V356.401H390.691V356.134Z" fill="#EBEBEB"/>
<path d="M461.608 368.922H365.492V369.188H461.608V368.922Z" fill="#EBEBEB"/>
<path d="M243.162 301.352H45.0516C43.4996 301.349 42.0122 300.707 40.9157 299.566C39.8192 298.425 39.2034 296.879 39.2034 295.267V6.0313C39.2169 4.42866 39.8387 2.89628 40.9337 1.767C42.0287 0.637717 43.5085 0.0027454 45.0516 0H243.162C244.716 0 246.206 0.641052 247.304 1.78213C248.403 2.92321 249.02 4.47085 249.02 6.08458V295.267C249.02 296.881 248.403 298.429 247.304 299.57C246.206 300.711 244.716 301.352 243.162 301.352ZM45.0516 0.213121C43.5677 0.215944 42.1454 0.830172 41.0971 1.92099C40.0487 3.0118 39.4599 4.49007 39.4599 6.0313V295.267C39.4599 296.808 40.0487 298.287 41.0971 299.377C42.1454 300.468 43.5677 301.083 45.0516 301.085H243.162C244.647 301.083 246.07 300.469 247.12 299.378C248.17 298.288 248.761 296.809 248.764 295.267V6.0313C248.761 4.48909 248.17 3.01085 247.12 1.92034C246.07 0.829826 244.647 0.215938 243.162 0.213121H45.0516Z" fill="#EBEBEB"/>
<path d="M465.096 301.352H266.976C265.423 301.349 263.934 300.707 262.836 299.567C261.738 298.426 261.12 296.88 261.117 295.267V6.0313C261.133 4.42769 261.757 2.89532 262.854 1.76633C263.951 0.637345 265.431 0.00271546 266.976 0H465.096C466.637 0.00554591 468.115 0.641757 469.207 1.77074C470.3 2.89972 470.921 4.4305 470.934 6.0313V295.267C470.934 296.877 470.32 298.422 469.225 299.562C468.131 300.703 466.646 301.346 465.096 301.352ZM266.976 0.213121C265.491 0.215938 264.067 0.829826 263.017 1.92034C261.967 3.01085 261.376 4.48909 261.374 6.0313V295.267C261.376 296.809 261.967 298.288 263.017 299.378C264.067 300.469 265.491 301.083 266.976 301.085H465.096C466.581 301.083 468.004 300.469 469.054 299.378C470.104 298.288 470.695 296.809 470.698 295.267V6.0313C470.695 4.48909 470.104 3.01085 469.054 1.92034C468.004 0.829826 466.581 0.215938 465.096 0.213121H266.976Z" fill="#EBEBEB"/>
<path d="M326.884 345.702H351.046V235.903H326.884V345.702Z" fill="#F0F0F0"/>
<path d="M240.033 348.878H346.419V345.702H240.033V348.878Z" fill="#F0F0F0"/>
<path d="M326.884 235.903H235.385V345.702H326.884V235.903Z" fill="#F5F5F5"/>
<path d="M317.383 242.062H244.886V288.351H317.383V242.062Z" fill="#F0F0F0"/>
<path d="M317.383 293.253H244.886V339.543H317.383V293.253Z" fill="#F0F0F0"/>
<path d="M299.931 250.128H262.348C261.173 250.13 260.009 249.89 258.924 249.423C257.838 248.955 256.852 248.269 256.022 247.405C255.193 246.54 254.536 245.514 254.09 244.385C253.644 243.256 253.417 242.046 253.422 240.826H308.826C308.831 242.044 308.605 243.251 308.161 244.378C307.717 245.505 307.063 246.529 306.236 247.394C305.41 248.258 304.428 248.944 303.346 249.413C302.264 249.883 301.103 250.126 299.931 250.128Z" fill="#F5F5F5"/>
<path d="M299.931 301.32H262.348C259.984 301.32 257.716 300.344 256.044 298.608C254.372 296.871 253.432 294.516 253.432 292.06H308.836C308.836 294.514 307.898 296.868 306.228 298.604C304.559 300.34 302.293 301.317 299.931 301.32Z" fill="#F5F5F5"/>
<path d="M425.564 345.702H449.727V235.903H425.564V345.702Z" fill="#F0F0F0"/>
<path d="M338.703 348.878H445.089V345.702H338.703V348.878Z" fill="#F0F0F0"/>
<path d="M425.564 235.903H334.066V345.702H425.564V235.903Z" fill="#F5F5F5"/>
<path d="M416.064 242.062H343.566V288.351H416.064V242.062Z" fill="#F0F0F0"/>
<path d="M416.064 293.253H343.566V339.543H416.064V293.253Z" fill="#F0F0F0"/>
<path d="M398.601 250.128H361.019C358.654 250.128 356.386 249.153 354.714 247.416C353.042 245.68 352.103 243.324 352.103 240.868H407.507C407.507 243.322 406.569 245.676 404.899 247.412C403.229 249.149 400.964 250.126 398.601 250.128Z" fill="#F5F5F5"/>
<path d="M398.601 301.32H361.019C358.654 301.32 356.386 300.344 354.714 298.608C353.042 296.871 352.103 294.516 352.103 292.06H407.507C407.507 294.514 406.569 296.868 404.899 298.604C403.229 300.34 400.964 301.317 398.601 301.32Z" fill="#F5F5F5"/>
<path d="M114.317 88.3809H155.706V38.692L114.317 38.692V88.3809Z" fill="#E6E6E6"/>
<path d="M109.597 88.3809H154.598V38.692L109.597 38.692V88.3809Z" fill="#F5F5F5"/>
<path d="M150.822 84.4701V42.6133H113.363V84.4701H150.822Z" fill="white"/>
<path d="M141.752 74.3256V72.8018C141.749 67.4867 139.715 62.3901 136.097 58.6317C132.478 54.8733 127.571 52.7607 122.453 52.7578V54.2817C122.453 59.5976 124.486 64.6959 128.106 68.4549C131.725 72.2138 136.634 74.3256 141.752 74.3256Z" fill="#F5F5F5"/>
<path d="M294.093 182.164L449.737 182.164V30.9557L294.093 30.9557V182.164Z" fill="#E6E6E6"/>
<path d="M289.27 182.164L447.48 182.164V30.9557L289.27 30.9557V182.164Z" fill="#F0F0F0"/>
<path d="M294.093 187.556L449.737 187.556V182.164L294.093 182.164V187.556Z" fill="#E6E6E6"/>
<path d="M281.227 187.556L439.436 187.556V182.164L281.227 182.164V187.556Z" fill="#F0F0F0"/>
<path d="M440.718 174.044V39.0756L296.011 39.0756V174.044H440.718Z" fill="#FAFAFA"/>
<path d="M399.689 174.055L375.588 39.0755H335.882L359.982 174.055H399.689Z" fill="white"/>
<path d="M437.599 128.256C437.736 128.245 437.864 128.178 437.954 128.071C438.044 127.963 438.09 127.823 438.082 127.68V44.3609C438.082 44.2281 438.031 44.1007 437.94 44.0068C437.85 43.9129 437.727 43.8601 437.599 43.8601C437.471 43.8601 437.349 43.9129 437.258 44.0068C437.168 44.1007 437.117 44.2281 437.117 44.3609V127.68C437.109 127.823 437.154 127.963 437.245 128.071C437.335 128.178 437.462 128.245 437.599 128.256Z" fill="#F0F0F0"/>
<path d="M351.446 174.055L327.356 39.0755H311.873L335.964 174.055H351.446Z" fill="white"/>
<path d="M296.873 174.044V39.0755H296.011V174.044H296.873Z" fill="#E6E6E6"/>
<path opacity="0.4" d="M287.67 49.4651H443.304L443.93 42.2404H288.286L287.67 49.4651Z" fill="#E6E6E6"/>
<path opacity="0.4" d="M287.67 57.7875H443.304L443.93 50.5521H288.286L287.67 57.7875Z" fill="#E6E6E6"/>
<path opacity="0.4" d="M287.67 66.0992H443.304L443.93 58.8745H288.286L287.67 66.0992Z" fill="#E6E6E6"/>
<path opacity="0.4" d="M287.67 74.4216H443.304L443.93 67.1862H288.286L287.67 74.4216Z" fill="#E6E6E6"/>
<path opacity="0.4" d="M287.67 82.7332H443.304L443.93 75.5084H288.286L287.67 82.7332Z" fill="#E6E6E6"/>
<path opacity="0.4" d="M287.67 91.0555H443.304L443.93 83.8201H288.286L287.67 91.0555Z" fill="#E6E6E6"/>
<path opacity="0.4" d="M287.67 99.3673H443.304L443.93 92.1425H288.286L287.67 99.3673Z" fill="#E6E6E6"/>
<path opacity="0.4" d="M287.67 107.69H443.304L443.93 100.454H288.286L287.67 107.69Z" fill="#E6E6E6"/>
<path opacity="0.4" d="M287.67 116.001H443.304L443.93 108.776H288.286L287.67 116.001Z" fill="#E6E6E6"/>
<path d="M84.9734 169.441H117.262V130.962H84.9734V169.441Z" fill="#E6E6E6"/>
<path d="M81.3208 169.441H116.174V130.962H81.3208V169.441Z" fill="#F5F5F5"/>
<path d="M113.26 166.404V133.989H84.2449V166.404H113.26Z" fill="white"/>
<path d="M106.222 150.793V149.61C106.222 148.591 106.028 147.581 105.652 146.639C105.276 145.697 104.725 144.842 104.031 144.121C103.336 143.401 102.511 142.829 101.604 142.44C100.696 142.051 99.7241 141.851 98.7423 141.853C96.7685 141.864 94.8792 142.686 93.4873 144.14C92.0954 145.594 91.3141 147.56 91.3141 149.61V150.793C91.3141 152.851 92.101 154.824 93.5018 156.279C94.9026 157.733 96.8024 158.551 98.7834 158.551C100.759 158.542 102.651 157.721 104.045 156.267C105.439 154.813 106.222 152.845 106.222 150.793Z" fill="#F5F5F5"/>
<path d="M165.504 155.652H209.838V102.607H165.504V155.652Z" fill="#E6E6E6"/>
<path d="M160.477 155.652H208.514V102.607H160.477V155.652Z" fill="#F5F5F5"/>
<path d="M204.492 151.486V106.805H164.499V151.486H204.492Z" fill="white"/>
<path d="M186.168 120.85L193.76 134.511C193.93 134.815 194.019 135.161 194.019 135.513C194.018 135.865 193.929 136.21 193.76 136.515C193.59 136.819 193.346 137.072 193.053 137.248C192.759 137.424 192.427 137.516 192.088 137.516H176.903C176.564 137.516 176.231 137.424 175.938 137.248C175.644 137.072 175.401 136.819 175.231 136.515C175.062 136.21 174.972 135.865 174.972 135.513C174.972 135.161 175.061 134.815 175.231 134.511L182.823 120.85C182.994 120.547 183.238 120.296 183.532 120.121C183.825 119.947 184.157 119.855 184.495 119.855C184.833 119.855 185.166 119.947 185.459 120.121C185.752 120.296 185.997 120.547 186.168 120.85Z" fill="#F5F5F5"/>
<path d="M92.3606 348.867H116.728L116.728 269.075H92.3606L92.3606 348.867Z" fill="#E6E6E6"/>
<path d="M96.9877 348.878H92.3605V335.206H101.841L96.9877 348.878Z" fill="#F0F0F0"/>
<path d="M183.418 348.867H207.786V269.075H183.418V348.867Z" fill="#E6E6E6"/>
<path d="M92.3708 340.481H187.461V269.075H92.3708L92.3708 340.481Z" fill="#F0F0F0"/>
<path d="M95.9517 273.561V323.399H138.356V273.561H95.9517Z" fill="#E6E6E6"/>
<path d="M141.465 273.561V323.399H183.869V273.561H141.465Z" fill="#E6E6E6"/>
<path d="M158.476 277.386H166.858C168.659 277.392 170.441 277.017 172.098 276.284C173.754 275.552 175.249 274.476 176.493 273.124H148.791C150.039 274.484 151.543 275.564 153.208 276.297C154.874 277.03 156.667 277.401 158.476 277.386Z" fill="#F0F0F0"/>
<path d="M112.532 277.386H120.924C122.725 277.392 124.507 277.016 126.163 276.283C127.819 275.551 129.315 274.476 130.559 273.124H102.857C104.105 274.482 105.607 275.56 107.27 276.293C108.934 277.026 110.725 277.398 112.532 277.386Z" fill="#F0F0F0"/>
<path d="M182.833 348.878H187.461V335.206H177.98L182.833 348.878Z" fill="#F0F0F0"/>
<path d="M157.748 258.387C157.746 259.473 158.054 260.535 158.633 261.439C159.212 262.342 160.037 263.048 161.002 263.465C161.968 263.882 163.03 263.992 164.056 263.781C165.082 263.571 166.024 263.049 166.764 262.282C167.504 261.515 168.008 260.537 168.213 259.472C168.418 258.407 168.314 257.303 167.914 256.3C167.515 255.296 166.837 254.439 165.968 253.835C165.099 253.232 164.077 252.91 163.031 252.91C161.633 252.912 160.292 253.49 159.302 254.516C158.312 255.543 157.753 256.934 157.748 258.387Z" fill="#E0E0E0"/>
<path d="M165.422 260.305C168.335 260.305 170.696 257.853 170.696 254.828C170.696 251.803 168.335 249.351 165.422 249.351C162.51 249.351 160.148 251.803 160.148 254.828C160.148 257.853 162.51 260.305 165.422 260.305Z" fill="#E0E0E0"/>
<path d="M131.328 259.271C131.328 260.354 131.637 261.413 132.217 262.314C132.796 263.215 133.62 263.917 134.584 264.331C135.547 264.746 136.607 264.854 137.63 264.643C138.653 264.432 139.593 263.91 140.331 263.144C141.068 262.378 141.57 261.402 141.774 260.34C141.977 259.277 141.873 258.176 141.474 257.175C141.075 256.174 140.399 255.319 139.532 254.717C138.664 254.115 137.645 253.794 136.602 253.794C135.203 253.794 133.862 254.371 132.873 255.398C131.884 256.425 131.328 257.819 131.328 259.271Z" fill="#E0E0E0"/>
<path d="M172.481 262.447C176.056 262.447 178.955 259.436 178.955 255.723C178.955 252.009 176.056 248.999 172.481 248.999C168.905 248.999 166.007 252.009 166.007 255.723C166.007 259.436 168.905 262.447 172.481 262.447Z" fill="#E0E0E0"/>
<path d="M153.182 249.532C153.18 250.862 153.558 252.163 154.268 253.27C154.978 254.377 155.988 255.241 157.171 255.751C158.354 256.262 159.656 256.397 160.913 256.138C162.169 255.88 163.324 255.24 164.23 254.301C165.136 253.361 165.754 252.163 166.005 250.858C166.255 249.553 166.128 248.201 165.638 246.972C165.148 245.742 164.319 244.692 163.254 243.952C162.189 243.213 160.937 242.818 159.656 242.818C157.941 242.821 156.298 243.529 155.085 244.787C153.871 246.045 153.187 247.751 153.182 249.532Z" fill="#E0E0E0"/>
<path d="M142.922 251.247C142.92 252.578 143.298 253.879 144.008 254.986C144.718 256.093 145.729 256.956 146.911 257.467C148.094 257.977 149.396 258.112 150.653 257.854C151.909 257.596 153.064 256.956 153.97 256.016C154.877 255.076 155.494 253.878 155.745 252.574C155.995 251.269 155.868 249.916 155.378 248.687C154.888 247.458 154.059 246.407 152.994 245.668C151.929 244.929 150.677 244.534 149.396 244.534C147.681 244.534 146.036 245.241 144.822 246.5C143.608 247.758 142.925 249.466 142.922 251.247Z" fill="#E0E0E0"/>
<path d="M147.262 256.671C147.262 257.936 147.623 259.172 148.299 260.223C148.976 261.275 149.937 262.094 151.062 262.578C152.187 263.062 153.425 263.189 154.619 262.942C155.813 262.695 156.91 262.086 157.771 261.192C158.632 260.298 159.218 259.159 159.456 257.918C159.693 256.678 159.571 255.393 159.105 254.224C158.639 253.056 157.85 252.058 156.838 251.355C155.826 250.653 154.635 250.278 153.418 250.278C151.785 250.278 150.219 250.951 149.065 252.15C147.91 253.349 147.262 254.975 147.262 256.671Z" fill="#E0E0E0"/>
<path d="M136.55 256.256C136.55 257.621 136.94 258.956 137.671 260.092C138.401 261.227 139.44 262.112 140.655 262.635C141.869 263.158 143.206 263.294 144.496 263.028C145.786 262.762 146.97 262.104 147.9 261.138C148.83 260.173 149.463 258.942 149.72 257.603C149.976 256.263 149.844 254.875 149.341 253.613C148.838 252.351 147.986 251.273 146.892 250.514C145.799 249.755 144.514 249.351 143.199 249.351C141.435 249.351 139.744 250.078 138.498 251.373C137.251 252.668 136.55 254.424 136.55 256.256Z" fill="#E0E0E0"/>
<path d="M182.803 258.387C182.803 258.387 182.084 269.043 154.31 269.043C126.537 269.043 125.808 258.387 125.808 258.387H182.803Z" fill="#F0F0F0"/>
<path d="M256.5 397C366.367 397 455.431 391.599 455.431 384.937C455.431 378.275 366.367 372.875 256.5 372.875C146.633 372.875 57.5688 378.275 57.5688 384.937C57.5688 391.599 146.633 397 256.5 397Z" fill="#F5F5F5"/>
<path d="M315.772 69.1575C314.938 66.2941 313.831 63.524 312.468 60.8884L314.52 53.9087L301.254 40.1198L294.534 42.251C291.996 40.8357 289.329 39.6863 286.572 38.8198L283.268 32.4262H264.493L261.199 38.8198C258.441 39.6843 255.774 40.8338 253.237 42.251L246.517 40.1198L233.241 53.9087L235.293 60.8884C233.938 63.5265 232.835 66.2961 231.999 69.1575L225.792 72.5887V92.0892L231.999 95.5098C232.832 98.3719 233.936 101.142 235.293 103.779L233.241 110.758L246.517 124.547L253.237 122.416C255.776 123.825 258.443 124.971 261.199 125.837L264.493 132.23H283.268L286.572 125.837C289.327 124.969 291.994 123.823 294.534 122.416L301.254 124.547L314.531 110.758L312.479 103.779C313.843 101.144 314.95 98.3739 315.782 95.5098L321.99 92.0892V72.5887L315.772 69.1575ZM273.88 110.034C268.604 110.034 263.447 108.409 259.06 105.365C254.673 102.32 251.254 97.9933 249.235 92.9307C247.216 87.8682 246.688 82.2975 247.717 76.9232C248.746 71.5488 251.287 66.6121 255.018 62.7374C258.748 58.8627 263.502 56.224 268.676 55.155C273.851 54.086 279.214 54.6347 284.089 56.7316C288.963 58.8286 293.129 62.3797 296.061 66.9359C298.992 71.492 300.556 76.8486 300.556 82.3283C300.556 89.6762 297.746 96.7233 292.743 101.919C287.74 107.115 280.955 110.034 273.88 110.034Z" fill="#407BFF"/>
<path opacity="0.2" d="M315.772 69.1575C314.938 66.2941 313.831 63.524 312.468 60.8884L314.52 53.9087L301.254 40.1198L294.534 42.251C291.996 40.8357 289.329 39.6863 286.572 38.8198L283.268 32.4262H264.493L261.199 38.8198C258.441 39.6843 255.774 40.8338 253.237 42.251L246.517 40.1198L233.241 53.9087L235.293 60.8884C233.938 63.5265 232.835 66.2961 231.999 69.1575L225.792 72.5887V92.0892L231.999 95.5098C232.832 98.3719 233.936 101.142 235.293 103.779L233.241 110.758L246.517 124.547L253.237 122.416C255.776 123.825 258.443 124.971 261.199 125.837L264.493 132.23H283.268L286.572 125.837C289.327 124.969 291.994 123.823 294.534 122.416L301.254 124.547L314.531 110.758L312.479 103.779C313.843 101.144 314.95 98.3739 315.782 95.5098L321.99 92.0892V72.5887L315.772 69.1575ZM273.88 110.034C268.604 110.034 263.447 108.409 259.06 105.365C254.673 102.32 251.254 97.9933 249.235 92.9307C247.216 87.8682 246.688 82.2975 247.717 76.9232C248.746 71.5488 251.287 66.6121 255.018 62.7374C258.748 58.8627 263.502 56.224 268.676 55.155C273.851 54.086 279.214 54.6347 284.089 56.7316C288.963 58.8286 293.129 62.3797 296.061 66.9359C298.992 71.492 300.556 76.8486 300.556 82.3283C300.556 89.6762 297.746 96.7233 292.743 101.919C287.74 107.115 280.955 110.034 273.88 110.034Z" fill="#355AAD"/>
<path d="M273.881 73.1534C272.131 73.1534 270.421 73.6922 268.967 74.7015C267.513 75.7108 266.379 77.1454 265.71 78.8238C265.04 80.5022 264.865 82.3491 265.206 84.1309C265.548 85.9127 266.39 87.5494 267.627 88.834C268.864 90.1186 270.44 90.9935 272.155 91.3479C273.871 91.7023 275.649 91.5204 277.265 90.8252C278.881 90.13 280.262 88.9526 281.234 87.4421C282.206 85.9316 282.725 84.1556 282.725 82.3389C282.725 79.9028 281.793 77.5664 280.134 75.8438C278.476 74.1212 276.226 73.1534 273.881 73.1534Z" fill="#407BFF"/>
<path d="M449.388 100.092C448.196 95.9981 446.618 92.0363 444.679 88.2636L447.613 78.2896L428.663 58.608L419.049 61.6663C415.43 59.6287 411.616 57.986 407.671 56.7645L402.962 47.5577H376.132L371.412 56.7645C367.468 57.9899 363.655 59.6324 360.034 61.6663L350.43 58.608L331.46 78.3109L334.394 88.285C332.446 92.0534 330.868 96.0161 329.685 100.113L320.81 105.004V132.87L329.674 137.771C330.856 141.866 332.434 145.825 334.384 149.589L331.449 159.552L350.42 179.255L360.023 176.208C363.649 178.235 367.465 179.871 371.412 181.088L376.132 190.306H402.962L407.671 181.099C411.613 179.868 415.426 178.226 419.049 176.197L428.663 179.245L447.634 159.542L444.699 149.568C446.634 145.799 448.204 141.84 449.388 137.75L458.253 132.848V104.983L449.388 100.092ZM389.542 169.43C379.921 169.43 370.516 166.467 362.517 160.916C354.518 155.365 348.283 147.475 344.602 138.244C340.92 129.012 339.957 118.854 341.833 109.054C343.71 99.2544 348.343 90.2526 355.146 83.1872C361.949 76.1218 370.616 71.3103 380.052 69.3609C389.488 67.4116 399.268 68.4121 408.156 72.2358C417.045 76.0596 424.641 82.5348 429.986 90.8428C435.331 99.1508 438.184 108.918 438.184 118.91C438.184 125.545 436.926 132.114 434.481 138.244C432.037 144.373 428.454 149.942 423.937 154.633C419.42 159.325 414.058 163.046 408.156 165.585C402.255 168.124 395.929 169.43 389.542 169.43Z" fill="#407BFF"/>
<path d="M389.542 75.4764C381.269 75.4785 373.182 78.0283 366.305 82.8033C359.427 87.5784 354.067 94.3642 350.903 102.303C347.738 110.241 346.912 118.976 348.527 127.403C350.142 135.83 354.127 143.57 359.977 149.645C365.828 155.719 373.281 159.856 381.395 161.531C389.509 163.207 397.919 162.346 405.562 159.057C413.205 155.769 419.737 150.201 424.333 143.056C428.929 135.912 431.382 127.513 431.382 118.921C431.368 107.401 426.955 96.3575 419.111 88.2129C411.268 80.0682 400.633 75.4877 389.542 75.4764ZM389.542 156.579C382.37 156.581 375.358 154.375 369.394 150.238C363.43 146.101 358.781 140.221 356.035 133.34C353.289 126.459 352.57 118.886 353.968 111.581C355.366 104.275 358.818 97.564 363.889 92.2963C368.959 87.0286 375.42 83.441 382.454 81.987C389.488 80.5331 396.779 81.2782 403.405 84.1282C410.031 86.9782 415.694 91.8049 419.679 97.998C423.663 104.191 425.79 111.472 425.79 118.921C425.779 128.903 421.957 138.474 415.162 145.533C408.366 152.593 399.153 156.565 389.542 156.579Z" fill="#407BFF"/>
<path opacity="0.2" d="M389.542 75.4764C381.269 75.4785 373.182 78.0283 366.305 82.8033C359.427 87.5784 354.067 94.3642 350.903 102.303C347.738 110.241 346.912 118.976 348.527 127.403C350.142 135.83 354.127 143.57 359.977 149.645C365.828 155.719 373.281 159.856 381.395 161.531C389.509 163.207 397.919 162.346 405.562 159.057C413.205 155.769 419.737 150.201 424.333 143.056C428.929 135.912 431.382 127.513 431.382 118.921C431.368 107.401 426.955 96.3575 419.111 88.2129C411.268 80.0682 400.633 75.4877 389.542 75.4764ZM389.542 156.579C382.37 156.581 375.358 154.375 369.394 150.238C363.43 146.101 358.781 140.221 356.035 133.34C353.289 126.459 352.57 118.886 353.968 111.581C355.366 104.275 358.818 97.564 363.889 92.2963C368.959 87.0286 375.42 83.441 382.454 81.987C389.488 80.5331 396.779 81.2782 403.405 84.1282C410.031 86.9782 415.694 91.8049 419.679 97.998C423.663 104.191 425.79 111.472 425.79 118.921C425.779 128.903 421.957 138.474 415.162 145.533C408.366 152.593 399.153 156.565 389.542 156.579Z" fill="black"/>
<path d="M293.436 193.044C293.164 193.044 292.903 192.932 292.711 192.732C292.518 192.532 292.41 192.261 292.41 191.979V189.847C292.41 189.565 292.518 189.294 292.711 189.094C292.903 188.894 293.164 188.782 293.436 188.782C293.708 188.782 293.969 188.894 294.162 189.094C294.354 189.294 294.462 189.565 294.462 189.847V191.979C294.462 192.261 294.354 192.532 294.162 192.732C293.969 192.932 293.708 193.044 293.436 193.044Z" fill="#407BFF"/>
<path d="M277.461 165.509C276.519 164.88 275.783 163.97 275.348 162.898C275.24 162.638 275.038 162.433 274.785 162.328C274.532 162.224 274.249 162.227 273.998 162.339C273.748 162.451 273.551 162.661 273.45 162.924C273.349 163.186 273.352 163.48 273.46 163.74C274.063 165.195 275.065 166.434 276.343 167.299C276.508 167.41 276.7 167.469 276.897 167.47C277.119 167.472 277.336 167.398 277.514 167.261C277.693 167.124 277.824 166.93 277.888 166.709C277.951 166.488 277.944 166.252 277.867 166.035C277.79 165.819 277.648 165.634 277.461 165.509Z" fill="#407BFF"/>
<path d="M273.88 152.2C274.153 152.2 274.413 152.087 274.606 151.888C274.798 151.688 274.906 151.417 274.906 151.134V147.053C274.906 146.77 274.798 146.499 274.606 146.299C274.413 146.099 274.153 145.987 273.88 145.987C273.608 145.987 273.347 146.099 273.155 146.299C272.963 146.499 272.854 146.77 272.854 147.053V151.134C272.854 151.417 272.963 151.688 273.155 151.888C273.347 152.087 273.608 152.2 273.88 152.2Z" fill="#407BFF"/>
<path d="M284.561 166.447H280.621C280.349 166.447 280.088 166.559 279.896 166.759C279.703 166.959 279.595 167.23 279.595 167.512C279.595 167.795 279.703 168.066 279.896 168.266C280.088 168.466 280.349 168.578 280.621 168.578H284.561C284.833 168.578 285.094 168.466 285.287 168.266C285.479 168.066 285.587 167.795 285.587 167.512C285.587 167.23 285.479 166.959 285.287 166.759C285.094 166.559 284.833 166.447 284.561 166.447Z" fill="#407BFF"/>
<path d="M274.906 159.307V155.226C274.906 154.943 274.798 154.672 274.606 154.472C274.413 154.273 274.153 154.16 273.88 154.16C273.608 154.16 273.347 154.273 273.155 154.472C272.963 154.672 272.854 154.943 272.854 155.226V159.307C272.854 159.59 272.963 159.861 273.155 160.061C273.347 160.261 273.608 160.373 273.88 160.373C274.153 160.373 274.413 160.261 274.606 160.061C274.798 159.861 274.906 159.59 274.906 159.307Z" fill="#407BFF"/>
<path d="M294.4 173.373C294.365 173.093 294.224 172.84 294.008 172.668C293.793 172.496 293.521 172.42 293.251 172.457C293.118 172.48 292.99 172.53 292.875 172.605C292.76 172.68 292.661 172.778 292.583 172.893C292.504 173.008 292.449 173.137 292.419 173.275C292.39 173.412 292.387 173.554 292.41 173.693C292.443 173.94 292.46 174.189 292.461 174.439V177.636C292.461 177.918 292.569 178.189 292.762 178.389C292.954 178.589 293.215 178.701 293.487 178.701C293.759 178.701 294.02 178.589 294.213 178.389C294.405 178.189 294.513 177.918 294.513 177.636V174.439C294.498 174.081 294.46 173.725 294.4 173.373Z" fill="#407BFF"/>
<path d="M293.436 180.609C293.164 180.609 292.903 180.721 292.711 180.921C292.518 181.12 292.41 181.392 292.41 181.674V185.766C292.41 186.049 292.518 186.32 292.711 186.52C292.903 186.719 293.164 186.832 293.436 186.832C293.708 186.832 293.969 186.719 294.162 186.52C294.354 186.32 294.462 186.049 294.462 185.766V181.674C294.462 181.392 294.354 181.12 294.162 180.921C293.969 180.721 293.708 180.609 293.436 180.609Z" fill="#407BFF"/>
<path d="M292.543 169.143C291.539 167.951 290.213 167.101 288.737 166.702C288.606 166.667 288.47 166.66 288.336 166.679C288.203 166.699 288.074 166.746 287.958 166.817C287.842 166.888 287.74 166.982 287.659 167.094C287.578 167.206 287.519 167.334 287.485 167.47C287.451 167.605 287.444 167.747 287.463 167.886C287.482 168.024 287.527 168.158 287.595 168.279C287.664 168.399 287.755 168.505 287.863 168.589C287.97 168.673 288.093 168.735 288.224 168.77C289.302 169.059 290.271 169.679 291.004 170.549C291.1 170.663 291.219 170.754 291.352 170.817C291.484 170.879 291.628 170.911 291.774 170.912C291.971 170.911 292.164 170.852 292.33 170.741C292.495 170.63 292.626 170.471 292.708 170.285C292.789 170.098 292.816 169.891 292.787 169.689C292.758 169.486 292.673 169.297 292.543 169.143Z" fill="#407BFF"/>
<path d="M273.88 143.984C273.608 143.984 273.347 143.872 273.155 143.672C272.963 143.472 272.854 143.201 272.854 142.918V140.787C272.854 140.504 272.963 140.233 273.155 140.034C273.347 139.834 273.608 139.721 273.88 139.721C274.153 139.721 274.413 139.834 274.606 140.034C274.798 140.233 274.906 140.504 274.906 140.787V142.918C274.906 143.201 274.798 143.472 274.606 143.672C274.413 143.872 274.153 143.984 273.88 143.984Z" fill="#407BFF"/>
<path d="M342.038 246.697H104.478V250.651H342.038V246.697Z" fill="#407BFF"/>
<path d="M342.038 250.651H393.584V246.697H342.038V250.651Z" fill="#407BFF"/>
<path opacity="0.2" d="M342.038 250.651H393.584V246.697H342.038V250.651Z" fill="black"/>
<path d="M376.368 254.881H121.694L113.178 250.651H384.883L376.368 254.881Z" fill="#407BFF"/>
<path opacity="0.6" d="M376.368 254.881H121.694L113.178 250.651H384.883L376.368 254.881Z" fill="white"/>
<path d="M129.389 254.881V380.984H132.652L136.756 254.881H129.389Z" fill="#407BFF"/>
<path d="M167.905 254.881V380.984H171.168L175.272 254.881H167.905Z" fill="#407BFF"/>
<path d="M376.368 254.881V380.984H373.115L369.001 254.881H376.368Z" fill="#407BFF"/>
<path d="M337.862 254.881V380.984H334.599L330.495 254.881H337.862Z" fill="#407BFF"/>
<path d="M260.337 198.83L249.616 244.193L249.318 246.697H323.272L323.58 244.193L334.291 198.83H260.337Z" fill="#407BFF"/>
<path opacity="0.3" d="M260.337 198.83L249.616 244.193L249.318 246.697H323.272L323.58 244.193L334.291 198.83H260.337Z" fill="black"/>
<path d="M332.024 198.83H258.06L247.348 244.193H321.302L332.024 198.83Z" fill="#407BFF"/>
<path d="M319.732 242.115L329.479 200.908H259.629L249.893 242.115H319.732Z" fill="white"/>
<path d="M302.034 244.193L301.726 246.697H220.293L220.59 244.193H302.034Z" fill="#407BFF"/>
<path opacity="0.6" d="M302.034 244.193L301.726 246.697H220.293L220.59 244.193H302.034Z" fill="white"/>
<path d="M148.196 238.449C148.144 236.826 147.532 235.277 146.472 234.083C145.411 232.89 143.973 232.132 142.419 231.949V230.724C142.418 230.653 142.403 230.583 142.375 230.518C142.348 230.453 142.308 230.395 142.258 230.346C142.208 230.298 142.15 230.26 142.086 230.235C142.022 230.21 141.954 230.199 141.886 230.202H130.805C130.736 230.199 130.668 230.21 130.603 230.235C130.538 230.259 130.479 230.297 130.429 230.346C130.378 230.394 130.337 230.452 130.309 230.517C130.28 230.582 130.264 230.652 130.261 230.724V246.708H142.419V244.96C143.975 244.779 145.416 244.02 146.477 242.824C147.538 241.628 148.149 240.075 148.196 238.449ZM142.419 242.893V234.016C143.445 234.173 144.381 234.708 145.059 235.523C145.736 236.338 146.109 237.378 146.109 238.455C146.109 239.531 145.736 240.572 145.059 241.387C144.381 242.201 143.445 242.736 142.419 242.893Z" fill="#407BFF"/>
<path d="M355.571 246.697H365.872L362.825 223.265H355.571V246.697Z" fill="#263238"/>
<path d="M340.468 246.697H359.982L363.604 219.269H344.1L340.468 246.697Z" fill="#407BFF"/>
<path opacity="0.3" d="M340.468 246.697H359.982L363.604 219.269H344.1L340.468 246.697Z" fill="black"/>
<path d="M337.862 246.697H358.166L361.799 219.269H341.494L337.862 246.697Z" fill="#407BFF"/>
<path opacity="0.4" d="M356.371 244.534L359.428 221.432H343.289L340.232 244.534H356.371Z" fill="white"/>
<path d="M202.676 206.204L201.835 207.142L200.932 208.208C200.326 208.932 199.721 209.668 199.147 210.424C197.997 211.937 196.889 213.482 195.853 215.07C193.791 218.141 192.07 221.444 190.723 224.916C190.096 226.567 189.608 228.271 189.266 230.01C189.102 230.99 188.999 231.416 188.948 231.832C188.891 232.163 188.891 232.502 188.948 232.834C189.12 233.355 189.39 233.835 189.742 234.246C190.095 234.658 190.522 234.993 191 235.231C191.693 235.675 192.42 236.056 193.175 236.371C193.572 236.542 193.982 236.702 194.406 236.851C194.796 237 195.289 237.149 195.597 237.277V243.149C194.878 243.255 194.355 243.34 193.75 243.383C193.144 243.426 192.56 243.436 191.954 243.383C190.71 243.357 189.472 243.193 188.261 242.893C186.896 242.56 185.589 242.014 184.382 241.273C182.964 240.411 181.745 239.236 180.812 237.831C179.851 236.336 179.214 234.642 178.945 232.866C178.876 232.45 178.831 232.03 178.811 231.608C178.791 231.204 178.791 230.798 178.811 230.393V229.797C178.8 229.637 178.8 229.477 178.811 229.317L178.893 228.379C179.156 225.944 179.651 223.542 180.371 221.208C181.76 216.725 183.716 212.454 186.188 208.506C187.376 206.568 188.667 204.7 190.056 202.912C190.744 202.017 191.452 201.143 192.19 200.28C192.549 199.843 192.929 199.416 193.319 198.99C193.709 198.564 194.068 198.191 194.601 197.658L202.676 206.204Z" fill="#B55B52"/>
<path d="M193.555 237.149L198.336 233.505L201.055 243.713C201.055 243.713 196.818 245.344 193.586 243.149L193.555 237.149Z" fill="#B55B52"/>
<path d="M204.974 231.054L206.842 239.6L201.055 243.713L198.336 233.505L204.974 231.054Z" fill="#B55B52"/>
<path d="M235.21 167.033C234.995 167.662 235.149 168.29 235.549 168.429C235.949 168.567 236.442 168.184 236.647 167.555C236.852 166.926 236.708 166.287 236.319 166.148C235.929 166.01 235.426 166.393 235.21 167.033Z" fill="#263238"/>
<path d="M235.098 168.269C235.178 170.463 235.547 172.636 236.195 174.726C235.679 174.88 235.136 174.916 234.605 174.832C234.073 174.747 233.566 174.544 233.117 174.236L235.098 168.269Z" fill="#A02724"/>
<path d="M234.226 162.749C234.302 162.776 234.385 162.776 234.462 162.749C234.912 162.593 235.391 162.55 235.86 162.625C236.329 162.699 236.775 162.887 237.16 163.175C237.237 163.234 237.333 163.259 237.427 163.248C237.522 163.236 237.609 163.188 237.671 163.113C237.733 163.038 237.766 162.941 237.762 162.842C237.759 162.743 237.72 162.649 237.652 162.579C237.171 162.206 236.61 161.958 236.018 161.856C235.425 161.754 234.818 161.801 234.246 161.993C234.171 162.019 234.106 162.069 234.06 162.136C234.014 162.203 233.99 162.283 233.99 162.366C233.99 162.448 234.014 162.528 234.06 162.595C234.106 162.662 234.171 162.712 234.246 162.738L234.226 162.749Z" fill="#263238"/>
<path d="M212.71 169.356C213.86 175.419 214.998 186.533 210.915 190.583C210.915 190.583 212.515 196.731 223.371 196.731C235.303 196.731 229.075 190.583 229.075 190.583C222.56 188.963 222.724 183.944 223.863 179.234L212.71 169.356Z" fill="#B55B52"/>
<path d="M209.355 192.692C208.494 190.742 207.56 188.515 209.499 187.823C211.643 187.055 223.381 186.267 227.423 187.705C227.958 187.856 228.458 188.117 228.894 188.471C229.331 188.825 229.695 189.266 229.965 189.768C230.236 190.27 230.407 190.823 230.469 191.395C230.531 191.967 230.483 192.545 230.327 193.097L209.355 192.692Z" fill="#263238"/>
<path d="M250.344 203.093C252.858 207.792 255.556 212.63 258.285 217.276C261.014 221.922 263.877 226.547 266.934 230.766C267.694 231.832 268.484 232.844 269.263 233.857C269.653 234.379 270.064 234.805 270.464 235.285L271.059 235.988L271.213 236.169L271.285 236.254L271.357 236.35C271.835 236.83 272.409 237.194 273.039 237.416C274.009 237.766 275.009 238.02 276.025 238.172C281.012 238.695 286.04 238.635 291.015 237.991L292.574 243.639C291.189 244.278 289.896 244.704 288.521 245.237C287.147 245.77 285.792 246.122 284.417 246.484C281.503 247.243 278.516 247.658 275.512 247.72C273.826 247.748 272.142 247.573 270.495 247.198C268.472 246.781 266.566 245.9 264.913 244.619L264.226 244.033L264.062 243.884L263.959 243.777L263.764 243.575L262.964 242.754C262.441 242.211 261.866 241.689 261.394 241.113C260.368 239.995 259.404 238.876 258.511 237.725C254.926 233.226 251.62 228.496 248.61 223.563C247.112 221.133 245.669 218.679 244.28 216.2C242.885 213.696 241.541 211.245 240.238 208.602L250.344 203.093Z" fill="#B55B52"/>
<path d="M196.623 192.458C189.133 194.238 180.555 215.432 180.555 215.432L195.586 226.088C199.325 220.52 202.642 214.66 205.508 208.559C209.95 198.905 204.277 190.636 196.623 192.458Z" fill="#355AAD"/>
<path opacity="0.2" d="M201.978 205.97L194.879 225.62L195.576 226.131C195.576 226.131 198.654 221.645 201.978 215.592V205.97Z" fill="black"/>
<path d="M241.356 192.874C241.356 192.874 249.852 202.848 241.828 264.546H199.116C198.829 257.737 202.943 224.533 196.623 192.447C201.343 191.503 206.117 190.877 210.915 190.572C216.963 190.204 223.027 190.204 229.075 190.572C233.22 191.005 237.327 191.775 241.356 192.874Z" fill="#355AAD"/>
<path opacity="0.2" d="M236.606 210.722C237.72 217.725 240.634 224.286 245.04 229.711C245.214 225.737 245.286 222.167 245.276 218.981L236.606 210.722Z" fill="black"/>
<path d="M232.902 199.608C231.876 207.462 246.753 227.516 246.753 227.516L261.722 216.86C261.722 216.86 257.567 205.81 250.58 198.564C242.618 190.252 234.072 191.062 232.902 199.608Z" fill="#355AAD"/>
<path d="M289.332 238.044L295.426 235.444L301.695 240.367C301.695 240.367 295.714 245.866 290.276 243.724L289.332 238.044Z" fill="#B55B52"/>
<path d="M299.448 235.189L304.045 238.599L301.665 240.367L295.396 235.444L299.448 235.189Z" fill="#B55B52"/>
<path d="M215.368 158.359C213.234 166.287 211.592 170.816 214.034 176.154C217.697 184.2 228.111 183.976 232.502 176.879C236.442 170.485 239.274 158.593 232.994 152.871C231.616 151.599 229.947 150.715 228.147 150.301C226.346 149.888 224.474 149.96 222.708 150.51C220.941 151.059 219.34 152.069 218.055 153.443C216.77 154.817 215.845 156.509 215.368 158.359Z" fill="#B55B52"/>
<path d="M231.62 158.444C228.542 167.544 224.92 177.54 216.076 175.643C210.371 174.417 209.92 164.88 207.868 160.543C206.052 156.739 206.164 149.088 209.92 148.992C208.237 146.456 216.743 137.175 222.55 142.076C224.037 139.945 234.759 133.669 242.7 143.632C250.18 153.052 246.517 160.906 231.62 158.444Z" fill="#263238"/>
<path d="M224.694 164.262C224.489 166.295 224.928 168.342 225.946 170.091C227.31 172.371 229.311 171.498 230.05 169.164C230.706 167.033 230.778 163.357 228.88 161.875C226.982 160.394 224.981 161.811 224.694 164.262Z" fill="#B55B52"/>
<path d="M290.235 374.963C291.261 374.963 292.287 374.814 292.584 374.335C292.669 374.208 292.715 374.057 292.715 373.903C292.715 373.749 292.669 373.598 292.584 373.472C292.448 373.247 292.236 373.084 291.989 373.013C290.655 372.64 287.885 374.292 287.752 374.367C287.717 374.385 287.689 374.415 287.672 374.451C287.655 374.488 287.651 374.53 287.66 374.569C287.666 374.607 287.683 374.643 287.709 374.671C287.734 374.699 287.767 374.719 287.803 374.729C288.606 374.881 289.419 374.959 290.235 374.963ZM291.507 373.354C291.626 373.337 291.747 373.337 291.866 373.354C291.944 373.369 292.017 373.402 292.081 373.45C292.145 373.498 292.197 373.56 292.236 373.631C292.369 373.877 292.328 373.994 292.236 374.058C291.866 374.601 289.845 374.612 288.357 374.388C289.333 373.835 290.403 373.483 291.507 373.354Z" fill="#407BFF"/>
<path d="M287.824 374.729H287.906C288.87 374.281 290.779 372.491 290.625 371.532C290.625 371.308 290.44 371.042 289.927 370.978C289.743 370.961 289.557 370.983 289.381 371.042C289.205 371.1 289.042 371.194 288.901 371.319C287.875 372.182 287.67 374.42 287.66 374.516C287.656 374.55 287.66 374.584 287.673 374.616C287.686 374.648 287.706 374.676 287.731 374.697C287.76 374.714 287.791 374.725 287.824 374.729ZM289.773 371.372H289.886C290.225 371.372 290.245 371.553 290.255 371.596C290.348 372.161 289.045 373.567 288.06 374.175C288.142 373.237 288.5 372.347 289.086 371.628C289.277 371.458 289.522 371.367 289.773 371.372Z" fill="#407BFF"/>
<path d="M278.539 374.537H286.521L288.337 355.324H280.355L278.539 374.537Z" fill="#B55B52"/>
<path d="M286.972 373.578H278.262C278.101 373.579 277.946 373.636 277.821 373.741C277.696 373.845 277.609 373.991 277.574 374.154L275.994 381.485C275.953 381.663 275.953 381.849 275.992 382.028C276.031 382.207 276.109 382.375 276.22 382.518C276.33 382.661 276.471 382.775 276.631 382.853C276.791 382.931 276.967 382.969 277.143 382.966C280.283 382.913 284.828 382.721 288.778 382.721C293.405 382.721 297.396 382.977 302.814 382.977C306.097 382.977 307.01 379.535 305.635 379.226C299.387 377.809 294.288 377.659 288.891 374.196C288.318 373.811 287.654 373.597 286.972 373.578Z" fill="#263238"/>
<path opacity="0.2" d="M288.327 355.335L287.403 365.235H279.411L280.344 355.335H288.327Z" fill="black"/>
<path d="M258.234 374.953C258.573 374.999 258.916 374.974 259.246 374.881C259.575 374.788 259.883 374.627 260.153 374.409C260.247 374.275 260.298 374.112 260.298 373.946C260.298 373.779 260.247 373.617 260.153 373.482C260.092 373.365 260.007 373.263 259.904 373.184C259.801 373.105 259.683 373.05 259.558 373.024C258.388 372.736 256.182 374.303 256.09 374.367C256.06 374.39 256.037 374.421 256.023 374.457C256.009 374.492 256.003 374.531 256.008 374.569C256.015 374.606 256.032 374.64 256.058 374.666C256.083 374.693 256.116 374.711 256.151 374.718C256.835 374.873 257.534 374.952 258.234 374.953ZM259.26 373.376C259.335 373.365 259.411 373.365 259.486 373.376C259.559 373.387 259.629 373.416 259.69 373.46C259.75 373.505 259.8 373.563 259.835 373.631C260.009 373.962 259.906 374.09 259.835 374.143C259.496 374.601 257.865 374.612 256.664 374.409C257.436 373.867 258.317 373.513 259.239 373.376H259.26Z" fill="#407BFF"/>
<path d="M256.203 374.729H256.285C257.116 374.26 258.716 372.449 258.542 371.532C258.515 371.385 258.441 371.253 258.33 371.158C258.219 371.062 258.08 371.01 257.936 371.01C257.793 370.992 257.648 371.005 257.51 371.049C257.372 371.093 257.245 371.167 257.136 371.266C256.213 372.054 256.018 374.463 256.008 374.548C256.007 374.584 256.015 374.619 256.031 374.651C256.048 374.682 256.071 374.709 256.1 374.729C256.133 374.74 256.169 374.74 256.203 374.729ZM257.813 371.372H257.895C258.142 371.372 258.162 371.522 258.172 371.575C258.275 372.118 257.249 373.493 256.428 374.143C256.483 373.197 256.812 372.291 257.372 371.543C257.495 371.433 257.651 371.373 257.813 371.372Z" fill="#407BFF"/>
<path d="M247.051 374.537H255.033L259.044 355.324H251.062L247.051 374.537Z" fill="#B55B52"/>
<path d="M255.597 373.578H246.63C246.471 373.579 246.317 373.637 246.194 373.742C246.071 373.847 245.986 373.992 245.953 374.154L244.373 381.485C244.336 381.665 244.338 381.851 244.38 382.03C244.422 382.209 244.502 382.376 244.614 382.518C244.727 382.66 244.868 382.774 245.029 382.852C245.19 382.93 245.365 382.969 245.542 382.966C248.672 382.913 250.2 382.721 254.14 382.721C256.572 382.721 259.681 382.977 263.036 382.977C266.391 382.977 266.822 379.535 265.447 379.226C259.291 377.83 258.87 375.901 256.9 374.058C256.537 373.738 256.073 373.567 255.597 373.578Z" fill="#263238"/>
<g opacity="0.2">
<path d="M251.062 355.335H259.045L256.972 365.235H248.99L251.062 355.335Z" fill="black"/>
</g>
<path d="M241.828 264.556C241.828 264.556 301.644 271.131 300.987 302.822C300.563 322.725 296.879 342.408 290.091 361.025H278.231C278.231 361.025 278.836 340.917 278.436 308.47C278.313 298.741 259.404 295.534 240.925 294.404C233.1 293.893 225.569 291.121 219.18 286.401C212.791 281.68 207.8 275.199 204.769 267.689L203.507 264.556H241.828Z" fill="#263238"/>
<path d="M292.995 357.722C293.056 357.722 292.225 363.551 292.225 363.551H275.809L275.358 358.351L292.995 357.722Z" fill="#407BFF"/>
<path d="M229.024 264.556C229.024 264.556 272.383 279.475 273.48 297.974C275.532 332.009 259.414 361.025 259.414 361.025H247.441C247.441 361.025 251.986 346.64 253.597 315.801C255.649 277.067 186.055 315.737 199.095 264.556H229.024Z" fill="#263238"/>
<path d="M263.036 357.722C263.097 357.722 261.527 363.551 261.527 363.551H245.111L245.409 358.351L263.036 357.722Z" fill="#407BFF"/>
<path d="M260.296 297.185H193.606C193.606 295.088 194.408 293.077 195.836 291.594C197.264 290.112 199.2 289.279 201.219 289.279H252.683C254.702 289.279 256.639 290.112 258.066 291.594C259.494 293.077 260.296 295.088 260.296 297.185Z" fill="#407BFF"/>
<path d="M196.694 297.175L186.64 384.724H188.794L201.547 297.175H196.694Z" fill="#407BFF"/>
<path opacity="0.4" d="M196.694 297.175L186.64 384.724H188.794L201.547 297.175H196.694Z" fill="black"/>
<path d="M210.145 297.175L209.95 384.724H212.095L214.998 297.175H210.145Z" fill="#407BFF"/>
<path opacity="0.4" d="M210.145 297.175L209.95 384.724H212.095L214.998 297.175H210.145Z" fill="black"/>
<path d="M257.208 297.175L267.263 384.724H265.108L252.365 297.175H257.208Z" fill="#407BFF"/>
<path opacity="0.4" d="M257.208 297.175L267.263 384.724H265.108L252.365 297.175H257.208Z" fill="black"/>
<path d="M243.757 297.175L243.952 384.724H241.808L238.904 297.175H243.757Z" fill="#407BFF"/>
<path opacity="0.4" d="M243.757 297.175L243.952 384.724H241.808L238.904 297.175H243.757Z" fill="black"/>
</svg>
