<svg width="980" height="820" viewBox="0 0 980 820" fill="none" xmlns="http://www.w3.org/2000/svg">
<path d="M1099.45 719.919H0V720.469H1099.45V719.919Z" fill="#E6E6E6"/>
<path d="M274.467 753.189H201.639V753.739H274.467V753.189Z" fill="#E6E6E6"/>
<path d="M178.595 753.189H136.398V753.739H178.595V753.189Z" fill="#E6E6E6"/>
<path d="M462.978 761.281H420.781V761.83H462.978V761.281Z" fill="#E6E6E6"/>
<path d="M683 773.551H588.03V774.1H683V773.551Z" fill="#E6E6E6"/>
<path d="M568.459 773.551H554.54V774.1H568.459V773.551Z" fill="#E6E6E6"/>
<path d="M996.871 761.281H790.878V761.83H996.871V761.281Z" fill="#E6E6E6"/>
<path d="M521.139 621.849H96.5536C93.2275 621.843 90.0395 620.517 87.6896 618.163C85.3397 615.809 84.0199 612.619 84.0199 609.293V12.4458C84.0489 9.13868 85.3814 5.97656 87.7282 3.64625C90.075 1.31595 93.2464 0.00566522 96.5536 0H521.139C524.469 0 527.663 1.32283 530.017 3.67748C532.372 6.03214 533.695 9.22573 533.695 12.5557V609.293C533.695 612.623 532.372 615.816 530.017 618.171C527.663 620.526 524.469 621.849 521.139 621.849ZM96.5536 0.439781C93.3732 0.445606 90.3251 1.71309 88.0783 3.96401C85.8315 6.21494 84.5696 9.26539 84.5696 12.4458V609.293C84.5696 612.473 85.8315 615.524 88.0783 617.775C90.3251 620.026 93.3732 621.293 96.5536 621.299H521.139C524.321 621.293 527.372 620.026 529.622 617.776C531.872 615.526 533.139 612.475 533.145 609.293V12.4458C533.139 9.26337 531.872 6.21297 529.622 3.96267C527.372 1.71237 524.321 0.445594 521.139 0.439781H96.5536Z" fill="#E6E6E6"/>
<path d="M996.783 621.849H572.175C568.847 621.843 565.657 620.518 563.304 618.165C560.95 615.811 559.626 612.621 559.62 609.293V12.4458C559.654 9.13667 560.992 5.97458 563.342 3.64488C565.692 1.31518 568.866 0.00560343 572.175 0H996.783C1000.09 0.0114442 1003.25 1.32428 1005.59 3.65397C1007.94 5.98366 1009.27 9.14248 1009.29 12.4458V609.293C1009.29 612.615 1007.98 615.802 1005.63 618.156C1003.29 620.509 1000.11 621.837 996.783 621.849ZM572.175 0.439781C568.993 0.445594 565.943 1.71237 563.692 3.96267C561.442 6.21297 560.175 9.26337 560.169 12.4458V609.293C560.175 612.475 561.442 615.526 563.692 617.776C565.943 620.026 568.993 621.293 572.175 621.299H996.783C999.965 621.293 1003.02 620.026 1005.27 617.776C1007.52 615.526 1008.78 612.475 1008.79 609.293V12.4458C1008.78 9.26337 1007.52 6.21297 1005.27 3.96267C1003.02 1.71237 999.965 0.445594 996.783 0.439781H572.175Z" fill="#E6E6E6"/>
<path d="M587.986 532.09H539.632V723.9H587.986V532.09Z" fill="#E0E0E0"/>
<path d="M578.794 723.9H587.986V697.777H569.163L578.794 723.9Z" fill="#FAFAFA"/>
<path d="M376.1 532.09H327.746V723.9H376.1V532.09Z" fill="#E0E0E0"/>
<path d="M587.986 532.09H368.096V707.87H587.986V532.09Z" fill="#FAFAFA"/>
<path d="M580.004 540.731V587.238H376.012V540.731H579.938M580.795 539.874H375.22V588.073H580.861V539.874H580.795Z" fill="#E0E0E0"/>
<path d="M377.265 723.9H368.096V697.777H386.896L377.265 723.9Z" fill="#FAFAFA"/>
<path d="M473.181 563.974C473.181 564.935 473.466 565.874 474 566.673C474.534 567.473 475.293 568.095 476.181 568.463C477.069 568.831 478.046 568.927 478.989 568.74C479.931 568.552 480.797 568.089 481.477 567.41C482.156 566.73 482.619 565.864 482.807 564.922C482.994 563.979 482.898 563.002 482.53 562.114C482.162 561.226 481.54 560.467 480.74 559.933C479.941 559.399 479.002 559.114 478.041 559.114C476.752 559.114 475.516 559.626 474.604 560.537C473.693 561.449 473.181 562.685 473.181 563.974Z" fill="#E6E6E6"/>
<path d="M580.004 596.715V643.222H376.012V596.715H579.938M580.795 595.88H375.22V644.08H580.861V595.902L580.795 595.88Z" fill="#E0E0E0"/>
<path d="M473.181 620.09C473.181 621.051 473.466 621.99 474 622.789C474.534 623.589 475.293 624.211 476.181 624.579C477.069 624.947 478.046 625.043 478.989 624.856C479.931 624.668 480.797 624.205 481.477 623.526C482.156 622.846 482.619 621.98 482.807 621.038C482.994 620.095 482.898 619.118 482.53 618.23C482.162 617.342 481.54 616.583 480.74 616.049C479.941 615.515 479.002 615.23 478.041 615.23C476.752 615.23 475.516 615.742 474.604 616.653C473.693 617.565 473.181 618.801 473.181 620.09Z" fill="#E6E6E6"/>
<path d="M580.004 652.721V699.25H376.012V652.721H579.938M580.795 651.864H375.22V700.085H580.861V651.864H580.795Z" fill="#E0E0E0"/>
<path d="M473.181 675.986C473.185 676.946 473.474 677.883 474.011 678.679C474.547 679.476 475.308 680.095 476.196 680.459C477.084 680.824 478.061 680.917 479.002 680.727C479.943 680.537 480.807 680.073 481.485 679.392C482.162 678.712 482.623 677.846 482.808 676.904C482.994 675.962 482.897 674.986 482.528 674.099C482.16 673.212 481.537 672.454 480.738 671.921C479.94 671.388 479.001 671.104 478.041 671.104C477.401 671.104 476.767 671.23 476.176 671.476C475.585 671.722 475.048 672.082 474.597 672.535C474.145 672.989 473.788 673.527 473.545 674.119C473.302 674.711 473.178 675.346 473.181 675.986Z" fill="#E6E6E6"/>
<path d="M346.568 420.693H298.215V723.922H346.568V420.693Z" fill="#E0E0E0"/>
<path d="M337.377 723.9H346.568V697.777H327.768L337.377 723.9Z" fill="#FAFAFA"/>
<path d="M165.863 420.693H117.509V723.922H165.863V420.693Z" fill="#E0E0E0"/>
<path d="M346.568 420.693H157.837V707.892H346.568V420.693Z" fill="#FAFAFA"/>
<path d="M338.432 428.785V493.807H165.973V428.785H338.432ZM339.444 427.796H164.917V494.752H339.4V427.818L339.444 427.796Z" fill="#E0E0E0"/>
<path d="M338.433 501.745V674.204H256.282V501.745H338.433ZM339.444 500.733H255.292V675.216H339.444V500.733Z" fill="#E0E0E0"/>
<path d="M248.124 501.745V674.204H165.973V501.745H248.124ZM249.113 500.733H164.917V675.216H249.069V500.733H249.113Z" fill="#E0E0E0"/>
<path d="M167.028 723.9H157.837V697.777H176.659L167.028 723.9Z" fill="#FAFAFA"/>
<path d="M247.332 461.329C247.328 462.295 247.61 463.241 248.144 464.047C248.678 464.853 249.439 465.482 250.33 465.855C251.222 466.228 252.204 466.327 253.152 466.141C254.101 465.956 254.973 465.492 255.658 464.811C256.343 464.129 256.81 463.259 257 462.312C257.19 461.364 257.095 460.381 256.726 459.488C256.357 458.595 255.731 457.831 254.928 457.294C254.125 456.756 253.18 456.469 252.214 456.469C250.923 456.469 249.685 456.981 248.77 457.892C247.855 458.802 247.338 460.038 247.332 461.329Z" fill="#E6E6E6"/>
<path d="M264.747 583.874C264.747 584.84 265.034 585.785 265.572 586.588C266.109 587.391 266.873 588.017 267.766 588.386C268.659 588.754 269.642 588.85 270.589 588.66C271.537 588.469 272.407 588.002 273.089 587.318C273.77 586.633 274.234 585.761 274.419 584.812C274.605 583.864 274.505 582.882 274.133 581.99C273.76 581.099 273.131 580.338 272.325 579.804C271.519 579.27 270.573 578.988 269.607 578.992C268.967 578.992 268.333 579.118 267.742 579.364C267.151 579.61 266.614 579.969 266.163 580.423C265.711 580.877 265.354 581.415 265.111 582.007C264.868 582.599 264.745 583.234 264.747 583.874Z" fill="#E6E6E6"/>
<path d="M229.939 583.874C229.943 584.834 230.232 585.771 230.769 586.567C231.305 587.364 232.066 587.983 232.954 588.348C233.842 588.712 234.819 588.805 235.76 588.615C236.701 588.425 237.565 587.961 238.242 587.28C238.92 586.6 239.38 585.734 239.566 584.792C239.752 583.85 239.654 582.874 239.286 581.987C238.918 581.1 238.295 580.343 237.496 579.81C236.697 579.277 235.759 578.992 234.798 578.992C234.158 578.992 233.525 579.119 232.934 579.364C232.343 579.61 231.806 579.97 231.354 580.423C230.903 580.877 230.545 581.415 230.302 582.007C230.06 582.599 229.936 583.234 229.939 583.874Z" fill="#E6E6E6"/>
<path d="M224.442 336.146H204.058C205.936 346.034 207.119 356.041 207.598 366.095C207.598 377.089 192.074 420.693 214.195 420.693C236.316 420.693 220.791 377.199 220.791 366.095C221.307 356.039 222.526 346.031 224.442 336.146Z" fill="#E0E0E0"/>
<path d="M146.886 380.739V393.933C146.91 401.005 149.73 407.782 154.731 412.783C159.732 417.784 166.508 420.604 173.581 420.627H186.775C193.847 420.604 200.624 417.784 205.625 412.783C210.626 407.782 213.446 401.005 213.469 393.933V380.739H146.886Z" fill="#F5F5F5"/>
<path d="M430.259 504.12C430.259 519.512 447.476 532.09 468.519 532.09H487.518C508.561 532.09 525.779 519.512 525.779 504.12H430.259Z" fill="#E0E0E0"/>
<path d="M933.674 481.559C922.152 490.97 906.232 508.188 891.676 532.419C881.956 548.559 876.107 565.403 873.535 587.788C873.535 562.5 873.689 535.344 873.776 509.705C876.701 503.108 883.386 487.892 888.179 475.886C904.165 435.8 910.168 425.927 924.527 391.36C943.723 345.183 963.382 290.519 957.752 294.894C946.274 303.8 902.296 386.149 897.547 397.935C884.6 429.388 876.597 462.655 873.82 496.555C873.82 472.368 873.996 450.379 874.084 433.315C874.392 377.661 875.338 359.696 875.799 354.155C877.581 351.34 879.669 348.064 880.901 346.305C891.236 331.352 895.216 318.643 904.935 296.346C918.744 264.792 930.618 208.742 927.144 211.556C912.675 223.342 901.285 248.63 886.288 280.887C871.292 313.145 875.58 331.682 872.611 359.212C871.995 364.622 871.512 385.027 871.16 413.283C867.29 383.158 859.989 363.324 846.686 345.293C830.326 323.106 814.494 308.132 802.884 300.304C791.274 292.476 822.938 346.964 838.066 370.669C851.546 391.866 863.969 410.535 871.05 428.939C870.676 467.266 870.5 515.774 870.5 560.873C867.026 540.336 861.353 518.193 853.788 501.063C844.685 480.482 830.7 448.905 819.552 438.197C816.891 435.624 831.206 497.039 840.397 513.355C849.589 529.671 856.339 545.085 862.122 554.343C863.464 556.541 867.949 564.831 870.5 569.625C870.5 624.751 870.808 673.391 871.292 689.949H873.667C873.513 685.683 873.469 657.625 873.535 620.507C879.274 600.365 892.379 577.365 903.198 556.387C914.984 533.673 945.197 472.214 933.674 481.559Z" fill="#E0E0E0"/>
<path d="M906.914 723.899H838L832.789 656.349H912.125L906.914 723.899Z" fill="#F0F0F0"/>
<path d="M917.249 664.221H827.644L825.093 641.419H919.821L917.249 664.221Z" fill="#F5F5F5"/>
<path d="M273.235 45.0774H149.987V180.42H273.235V45.0774Z" fill="#E0E0E0"/>
<path d="M286.582 45.0774H159.266V180.42H286.582V45.0774Z" fill="#F5F5F5"/>
<path d="M275.918 169.755V55.7422L169.931 55.7422V169.755H275.918Z" fill="white"/>
<path d="M250.213 142.093V83.3604H195.614V142.093H250.213Z" fill="#F5F5F5"/>
<path d="M901.658 60.8435H787.162V186.577H901.658V60.8435Z" fill="#E0E0E0"/>
<path d="M914.06 60.8435H795.804V186.577H914.06V60.8435Z" fill="#F5F5F5"/>
<path d="M904.165 176.659V70.7605H805.721V176.659H904.165Z" fill="white"/>
<path d="M854.932 154.429C871.897 154.429 885.65 140.675 885.65 123.71C885.65 106.745 871.897 92.9915 854.932 92.9915C837.966 92.9915 824.213 106.745 824.213 123.71C824.213 140.675 837.966 154.429 854.932 154.429Z" fill="#F5F5F5"/>
<path d="M401.277 125.777H309.847V226.179H401.277V125.777Z" fill="#E0E0E0"/>
<path d="M411.172 125.777H316.729V226.179H411.172V125.777Z" fill="#F5F5F5"/>
<path d="M403.256 218.263V133.693H324.645V218.263H403.256Z" fill="white"/>
<path d="M363.962 154.583L342.457 191.832H385.467L363.962 154.583Z" fill="#F5F5F5"/>
<path d="M549.725 819.222C785.188 819.222 976.069 808.077 976.069 794.33C976.069 780.583 785.188 769.439 549.725 769.439C314.261 769.439 123.38 780.583 123.38 794.33C123.38 808.077 314.261 819.222 549.725 819.222Z" fill="#F5F5F5"/>
<path d="M767.965 238.426L746.152 229.631C746.152 229.631 717.369 282.119 709.123 284.779C697.909 288.385 674.688 298.412 660.923 300.172C659.054 302.37 655.997 309.209 656.283 311.694C674.776 317.873 715.412 309.671 724.119 303.206C743.931 288.539 767.965 238.426 767.965 238.426Z" fill="#E58A7B"/>
<path d="M774.672 226.487C778.74 241.505 756.707 271.718 756.707 271.718L727.836 255.534C727.836 255.534 733.245 243.11 739.841 230.467C750.418 210.039 770.032 209.357 774.672 226.487Z" fill="#407BFF"/>
<path opacity="0.2" d="M774.672 226.487C778.74 241.505 756.707 271.718 756.707 271.718L727.836 255.534C727.836 255.534 733.245 243.11 739.841 230.467C750.418 210.039 770.032 209.357 774.672 226.487Z" fill="black"/>
<path opacity="0.2" d="M739.292 261.999L750.66 268.376L752.661 233.479C746.042 238.558 741.381 253.863 739.292 261.999Z" fill="black"/>
<path d="M755.674 215.184C755.674 215.184 733.201 265.187 746.306 358.289H834.856C836.263 344.699 831.602 278.381 848.467 214.349C838.753 212.45 828.925 211.194 819.046 210.589C806.515 209.862 793.953 209.862 781.423 210.589C772.736 211.471 764.129 213.007 755.674 215.184Z" fill="#407BFF"/>
<path opacity="0.2" d="M755.674 215.184C755.674 215.184 733.201 265.187 746.306 358.289H834.856C836.263 344.699 831.602 278.381 848.467 214.349C838.753 212.45 828.925 211.194 819.046 210.589C806.515 209.862 793.953 209.862 781.423 210.589C772.736 211.471 764.129 213.007 755.674 215.184Z" fill="black"/>
<g style="mix-blend-mode:multiply">
<path d="M735.136 796.309C735.004 798.684 768.581 800.597 810.118 800.597C851.656 800.597 885.475 798.684 885.607 796.309C885.738 793.935 852.183 792.043 810.624 792.043C769.065 792.043 735.29 793.957 735.136 796.309Z" fill="#E8ECF1"/>
</g>
<path d="M794.244 733.911L778.538 739.99L792.067 774.939L807.772 768.859L794.244 733.911Z" fill="#E58A7B"/>
<path d="M864.277 779.4H847.719L841.651 741.073H858.208L864.277 779.4Z" fill="#E58A7B"/>
<path d="M846.576 777.487H865.179C865.501 777.488 865.813 777.603 866.059 777.812C866.305 778.022 866.468 778.312 866.52 778.63L868.917 793.341C868.967 793.71 868.938 794.085 868.83 794.442C868.723 794.799 868.54 795.128 868.293 795.407C868.047 795.687 867.744 795.91 867.404 796.062C867.063 796.214 866.695 796.291 866.322 796.287C859.835 796.177 856.713 795.781 848.533 795.781C843.498 795.781 833.141 796.309 826.148 796.309C819.156 796.309 818.694 789.449 821.575 788.811C834.504 786.018 839.518 782.214 843.827 778.52C844.587 777.853 845.565 777.485 846.576 777.487Z" fill="#263238"/>
<path d="M791.604 771.814L809.195 766.668C809.509 766.58 809.843 766.601 810.143 766.729C810.443 766.857 810.691 767.084 810.844 767.372L817.441 780.565C817.594 780.9 817.672 781.264 817.67 781.632C817.668 782 817.586 782.364 817.428 782.696C817.271 783.029 817.044 783.324 816.761 783.56C816.478 783.796 816.147 783.967 815.792 784.061C809.393 785.821 805.105 786.898 797.101 789.229C791.582 790.834 785.952 793.451 780.499 795.188C776.717 796.397 767.834 796.441 763.238 796.441C756.443 796.441 754.926 789.273 757.851 788.943C765.217 788.129 766.206 788.503 770.274 786.458C776.93 783.549 782.963 779.383 788.041 774.188C788.999 773.097 790.228 772.278 791.604 771.814Z" fill="#263238"/>
<path d="M663.694 300.084L645.487 292.454L637.989 312.639C645.451 313.776 653.043 313.776 660.505 312.639L663.694 300.084Z" fill="#E58A7B"/>
<path d="M631.942 291.926L631.458 305.339L637.989 312.595L645.487 292.41L631.942 291.926Z" fill="#E58A7B"/>
<path d="M796.398 736.878L780.644 742.961L787.621 761.033L803.375 754.951L796.398 736.878Z" fill="#CF6F64"/>
<path d="M858.208 741.073H841.651L844.795 760.841H861.353L858.208 741.073Z" fill="#CF6F64"/>
<path opacity="0.2" d="M743.492 333.111C743.822 337.091 744.195 341.159 744.679 345.337L810.514 323.964C820.795 320.917 829.73 314.456 835.845 305.647C836.109 299.776 836.439 293.597 836.945 287.154C837.165 284.032 837.429 280.821 837.714 277.567C838 274.313 838.396 270.706 838.814 267.232L743.492 333.111Z" fill="black"/>
<path d="M764.997 260.987L762.798 260.723C764.095 249.729 772.297 241.065 780.939 241.285V243.484C773.375 243.33 766.162 251.136 764.997 260.987Z" fill="white"/>
<path d="M776.717 281.283H776.343V279.084C783.907 279.37 791.01 271.476 792.175 261.647L794.374 261.911C793.209 272.663 785.271 281.283 776.717 281.283Z" fill="white"/>
<path d="M817.815 168.216C814.714 180.332 811.064 202.519 819.046 210.589C819.046 210.589 813.461 222.88 790.966 222.88C770.406 222.88 781.423 210.589 781.423 210.589C795.1 207.378 795.342 197.395 793.539 187.94L817.815 168.216Z" fill="#E58A7B"/>
<path d="M807.919 176.264L793.561 187.94C794.006 190.113 794.263 192.32 794.33 194.537C798.53 198.714 806.952 188.138 807.809 182.728C808.245 180.599 808.283 178.407 807.919 176.264Z" fill="#CF6F64"/>
<path d="M768.867 168.062C769.866 169.794 771.212 171.301 772.82 172.489C774.428 173.677 776.264 174.52 778.212 174.966C783.49 176.132 786.128 171.272 784.677 166.391C783.38 161.993 779.048 156.078 773.683 157.089C772.533 157.326 771.457 157.835 770.545 158.573C769.633 159.311 768.911 160.257 768.439 161.331C767.968 162.406 767.76 163.577 767.835 164.749C767.909 165.92 768.263 167.056 768.867 168.062Z" fill="#CF6F64"/>
<path d="M777.597 129.295C769.373 133.055 766.47 165.731 776.805 170.569C787.14 175.406 793.165 122.149 777.597 129.295Z" fill="#263238"/>
<path d="M820.321 149.987C818.342 166.391 818.122 176.044 809.327 184.444C806.601 187.231 803.158 189.211 799.378 190.165C795.598 191.119 791.628 191.01 787.906 189.85C784.185 188.689 780.856 186.523 778.287 183.59C775.719 180.657 774.011 177.072 773.353 173.229C770.692 158.497 774.364 134.155 790.812 127.624C794.268 126.1 798.068 125.527 801.82 125.967C805.571 126.406 809.137 127.84 812.147 130.122C815.158 132.403 817.503 135.448 818.94 138.941C820.377 142.434 820.854 146.248 820.321 149.987Z" fill="#E58A7B"/>
<path d="M793.297 137.783C805.479 134.683 814.428 132.572 811.218 142.709C806.974 156.254 801.872 169.359 808.711 169.953C812.889 170.327 831.36 162.499 829.007 154.561C826.962 147.656 835.604 145.765 837.143 142.269C842.838 129.603 826.544 131.274 829.447 123.578C832.349 115.882 816.253 103.48 807.458 109.659C793.143 119.642 768.581 119.488 781.489 103.062C790.746 91.3423 774.232 93.7391 774.232 93.7391C774.232 93.7391 784.215 99.6541 767.416 108.802C749.649 118.565 765.942 144.798 793.297 137.783Z" fill="#263238"/>
<path d="M826.786 168.062C824.381 171.542 820.768 174.003 816.649 174.966C811.218 176.132 809.129 171.272 811.174 166.391C812.999 161.993 818.012 156.078 823.202 157.089C828.391 158.101 829.579 163.752 826.786 168.062Z" fill="#E58A7B"/>
<path d="M746.306 358.289C746.306 358.289 731.442 491.322 730.276 541.809C729.089 594.318 780.653 758.158 780.653 758.158L807.04 747.164C807.04 747.164 776.255 597.463 780.653 545.899C785.315 489.673 804.577 358.377 804.577 358.377L746.306 358.289Z" fill="#407BFF"/>
<path opacity="0.2" d="M783.248 394.812C771.396 419.396 779.378 468.014 785.799 496.819C788.239 476.479 791.142 454.402 793.891 433.975C793.627 402.574 791.186 378.32 783.248 394.812Z" fill="black"/>
<path d="M805.874 738.456C806.006 738.456 808.997 746.856 808.997 746.856L778.564 759.654L773.771 750.726L805.874 738.456Z" fill="#407BFF"/>
<path d="M777.729 358.289C777.729 358.289 789.097 484.813 796.617 532.199C804.885 584.115 837.297 757.015 837.297 757.015H867.62C867.62 757.015 849.457 588.315 846.026 536.905C842.288 481.141 834.856 358.289 834.856 358.289H777.729Z" fill="#407BFF"/>
<path d="M868.081 749.121C868.213 749.121 869.093 757.587 869.093 757.587H835.757L833.383 747.867L868.081 749.121Z" fill="#407BFF"/>
<path opacity="0.2" d="M856.471 739.094C856.402 739.095 856.336 739.071 856.283 739.026C856.231 738.982 856.196 738.92 856.185 738.852C856.009 737.313 839.628 584.929 836.549 538.752C833.207 488.661 826.478 377.551 826.412 376.43C826.409 376.393 826.414 376.356 826.426 376.322C826.437 376.287 826.456 376.255 826.481 376.229C826.506 376.202 826.536 376.18 826.57 376.166C826.603 376.151 826.639 376.144 826.676 376.144C826.748 376.143 826.818 376.171 826.871 376.22C826.924 376.268 826.956 376.336 826.962 376.408C826.962 377.529 833.756 488.551 837.099 538.73C840.177 584.907 856.559 737.181 856.713 738.83C856.719 738.866 856.718 738.904 856.709 738.939C856.7 738.975 856.683 739.009 856.66 739.038C856.638 739.067 856.609 739.091 856.576 739.108C856.544 739.125 856.508 739.135 856.471 739.138V739.094Z" fill="black"/>
<path d="M795.166 154.561C795.166 155.902 794.33 156.979 793.451 156.979C792.571 156.979 791.933 155.902 792.021 154.561C792.109 153.219 792.857 152.142 793.737 152.142C794.616 152.142 795.254 153.241 795.166 154.561Z" fill="#263238"/>
<path d="M780.081 154.561C780.081 155.902 779.224 156.979 778.366 156.979C777.509 156.979 776.849 155.902 776.915 154.561C776.981 153.219 777.772 152.142 778.652 152.142C779.532 152.142 780.169 153.241 780.081 154.561Z" fill="#263238"/>
<path d="M784.831 155.242C782.996 159.338 780.63 163.175 777.794 166.654C779.993 168.853 784.105 167.842 784.105 167.842L784.831 155.242Z" fill="#DF5753"/>
<path d="M785.227 173.449C785.176 173.449 785.125 173.439 785.078 173.419C785.032 173.399 784.989 173.369 784.954 173.332C784.919 173.295 784.892 173.251 784.875 173.203C784.857 173.155 784.85 173.104 784.853 173.053C784.859 172.946 784.905 172.846 784.983 172.772C785.061 172.698 785.164 172.657 785.271 172.657C786.953 172.669 788.616 172.304 790.138 171.588C791.66 170.873 793.002 169.826 794.066 168.524C794.142 168.457 794.24 168.42 794.341 168.42C794.442 168.42 794.54 168.457 794.616 168.524C794.687 168.597 794.727 168.696 794.727 168.798C794.727 168.901 794.687 168.999 794.616 169.073C793.477 170.457 792.042 171.569 790.418 172.326C788.793 173.083 787.019 173.467 785.227 173.449Z" fill="#263238"/>
<path d="M797.848 150.515C797.743 150.569 797.626 150.597 797.508 150.597C797.389 150.597 797.272 150.569 797.167 150.515C796.344 149.983 795.408 149.652 794.434 149.549C793.46 149.446 792.475 149.573 791.56 149.921C791.47 149.966 791.373 149.992 791.273 149.998C791.174 150.005 791.074 149.991 790.98 149.958C790.885 149.926 790.799 149.874 790.725 149.807C790.65 149.741 790.59 149.659 790.548 149.569C790.466 149.373 790.464 149.154 790.543 148.956C790.621 148.759 790.772 148.6 790.966 148.514C792.116 148.044 793.361 147.859 794.598 147.974C795.834 148.089 797.025 148.5 798.068 149.173C798.153 149.231 798.225 149.304 798.28 149.389C798.336 149.475 798.374 149.57 798.393 149.671C798.411 149.771 798.409 149.874 798.388 149.973C798.366 150.073 798.325 150.167 798.266 150.251C798.155 150.377 798.01 150.468 797.848 150.515Z" fill="#263238"/>
<path d="M774.254 146.117C774.137 146.088 774.03 146.027 773.946 145.941C773.873 145.869 773.815 145.784 773.776 145.689C773.736 145.595 773.715 145.494 773.715 145.391C773.715 145.289 773.736 145.187 773.776 145.093C773.815 144.999 773.873 144.913 773.946 144.841C774.789 143.896 775.839 143.158 777.014 142.685C778.188 142.212 779.456 142.017 780.719 142.115C780.82 142.13 780.917 142.167 781.004 142.221C781.09 142.276 781.165 142.348 781.222 142.432C781.28 142.517 781.32 142.612 781.339 142.713C781.359 142.813 781.357 142.916 781.335 143.016C781.288 143.22 781.168 143.399 780.998 143.521C780.828 143.642 780.619 143.697 780.411 143.676C779.412 143.613 778.412 143.778 777.486 144.159C776.56 144.54 775.733 145.127 775.068 145.875C774.968 145.986 774.839 146.068 774.695 146.11C774.552 146.153 774.399 146.155 774.254 146.117Z" fill="#263238"/>
<path d="M856.977 235.986L834.108 229.895C834.108 229.895 811.68 285.109 803.741 288.693C792.967 293.619 765.679 310.682 754.068 318.752C753.431 321.501 753.936 328.779 755.388 330.78C775.178 327.174 813.065 312.595 820.981 305.185C839.034 288.276 856.977 235.986 856.977 235.986Z" fill="#E58A7B"/>
<path d="M841.013 780.389C839.897 780.477 838.785 780.174 837.868 779.532C837.585 779.276 837.373 778.951 837.254 778.588C837.134 778.226 837.111 777.839 837.187 777.465C837.201 777.231 837.277 777.005 837.409 776.812C837.541 776.618 837.722 776.464 837.934 776.365C839.781 775.42 844.949 778.696 845.543 779.07C845.608 779.11 845.658 779.17 845.686 779.242C845.714 779.313 845.717 779.392 845.697 779.466C845.678 779.542 845.639 779.613 845.586 779.671C845.532 779.728 845.464 779.771 845.389 779.795C843.955 780.148 842.488 780.347 841.013 780.389ZM838.814 776.959C838.647 776.922 838.475 776.922 838.308 776.959C838.224 777.002 838.154 777.068 838.107 777.15C838.06 777.232 838.038 777.326 838.044 777.421C837.986 777.676 837.996 777.943 838.073 778.194C838.15 778.445 838.292 778.671 838.484 778.85C839.342 779.62 841.497 779.707 844.333 779.158C842.644 778.045 840.742 777.296 838.748 776.959H838.814Z" fill="#407BFF"/>
<path d="M845.279 779.795C845.222 779.814 845.16 779.814 845.103 779.795C843.454 778.872 840.353 775.244 840.815 773.397C840.884 773.104 841.049 772.843 841.285 772.655C841.52 772.468 841.812 772.365 842.112 772.363C842.407 772.324 842.708 772.349 842.992 772.436C843.277 772.523 843.539 772.671 843.761 772.869C845.587 774.43 845.697 779.224 845.697 779.466C845.707 779.538 845.694 779.612 845.658 779.675C845.622 779.739 845.566 779.789 845.499 779.817C845.425 779.832 845.348 779.825 845.279 779.795ZM842.332 773.089H842.178C841.673 773.089 841.607 773.375 841.585 773.485C841.321 774.562 843.278 777.311 844.905 778.608C844.897 776.751 844.322 774.94 843.256 773.419C843.001 773.196 842.671 773.078 842.332 773.089Z" fill="#407BFF"/>
<path d="M782.632 777.641C781.287 778.11 779.822 778.11 778.476 777.641C778.171 777.475 777.912 777.235 777.723 776.943C777.535 776.651 777.423 776.316 777.399 775.97C777.371 775.752 777.399 775.531 777.479 775.327C777.56 775.124 777.691 774.944 777.86 774.804C779.62 773.221 786.81 774.804 787.624 775.112C787.701 775.132 787.769 775.178 787.817 775.242C787.865 775.305 787.89 775.384 787.887 775.464C787.891 775.546 787.87 775.628 787.826 775.698C787.783 775.769 787.72 775.825 787.646 775.86C786.026 776.591 784.35 777.186 782.632 777.641ZM779.048 775.024C778.796 775.075 778.562 775.188 778.366 775.354C778.296 775.406 778.242 775.477 778.211 775.559C778.18 775.641 778.173 775.73 778.19 775.816C778.205 776.046 778.277 776.27 778.399 776.466C778.522 776.662 778.692 776.824 778.894 776.937C780.059 777.553 782.764 777.069 786.26 775.596C783.905 775.002 781.467 774.808 779.048 775.024Z" fill="#407BFF"/>
<path d="M787.58 775.86H787.404C785.205 775.464 780.807 772.935 780.675 771.044C780.675 770.604 780.873 769.988 781.928 769.637C782.285 769.51 782.664 769.456 783.041 769.479C783.419 769.501 783.789 769.6 784.127 769.769C786.502 770.934 787.756 775.156 787.822 775.354C787.837 775.42 787.835 775.49 787.816 775.555C787.796 775.621 787.761 775.68 787.712 775.728C787.679 775.781 787.634 775.827 787.58 775.86ZM782.368 770.296H782.148C781.467 770.538 781.467 770.824 781.467 770.912C781.467 772.055 784.655 774.144 786.876 774.848C786.364 773.082 785.282 771.535 783.798 770.45C783.356 770.226 782.847 770.171 782.368 770.296Z" fill="#407BFF"/>
<path d="M755.937 317.455L733.003 328.01L730.342 334.606L738.808 340.302C738.808 340.302 754.64 338.587 759.148 328.406L755.937 317.455Z" fill="#E58A7B"/>
<path d="M756.905 331.154C756.392 326.748 754.938 322.503 752.639 318.708L756.267 315.982C758.997 320.354 760.738 325.269 761.369 330.385L756.905 331.154Z" fill="#263238"/>
<path d="M760.819 320.578C761.304 321.34 761.542 322.234 761.501 323.136C761.46 324.039 761.142 324.907 760.59 325.623C760.039 326.338 759.28 326.867 758.417 327.136C757.554 327.405 756.63 327.401 755.769 327.126C754.908 326.851 754.153 326.317 753.606 325.598C753.06 324.878 752.748 324.008 752.713 323.105C752.679 322.202 752.923 321.31 753.414 320.551C753.904 319.792 754.616 319.202 755.454 318.862C756.394 318.383 757.484 318.295 758.489 318.616C759.494 318.937 760.331 319.642 760.819 320.578Z" fill="#263238"/>
<path d="M717.501 336.542L720.557 339.62L741.139 330.824L733.003 328.01L717.501 336.542Z" fill="#E58A7B"/>
<path opacity="0.2" d="M805.874 738.456C806.006 738.456 808.997 746.856 808.997 746.856L778.564 759.654L773.771 750.726L805.874 738.456Z" fill="black"/>
<path opacity="0.2" d="M868.081 749.121C868.213 749.121 869.093 757.587 869.093 757.587H835.757L833.383 747.867L868.081 749.121Z" fill="black"/>
<path d="M862.936 229.653C868.983 249.157 845.345 275.83 845.345 275.83L812.691 262.504C816.561 251.231 821.024 240.17 826.06 229.367C836.087 207.752 856.823 209.973 862.936 229.653Z" fill="#407BFF"/>
<path opacity="0.2" d="M862.936 229.653C868.983 249.157 845.345 275.83 845.345 275.83L812.691 262.504C816.561 251.231 821.024 240.17 826.06 229.367C836.087 207.752 856.823 209.973 862.936 229.653Z" fill="black"/>
<path d="M538.466 34.2368H524.415V36.5017H538.466V34.2368Z" fill="#407BFF"/>
<path d="M720.355 123.878L718.655 161.617L720.917 161.719L722.618 123.98L720.355 123.878Z" fill="#407BFF"/>
<path d="M715.983 44.3958H456.513L432.37 584.709H691.84L715.983 44.3958Z" fill="#407BFF"/>
<path opacity="0.56" d="M708.243 51.8279H448.773L424.629 592.141H684.099L708.243 51.8279Z" fill="#FAFAFA"/>
<path opacity="0.07" d="M700.503 59.2383H441.033L416.867 599.552H676.337L700.503 59.2383Z" fill="#407BFF"/>
<path d="M670.972 294.894H449.499L447.652 336.234H669.125L670.972 294.894Z" fill="white"/>
<path d="M571.296 264.725H450.84L450.027 283.218H570.482L571.296 264.725Z" fill="#407BFF"/>
<path d="M665.98 406.466H444.507L442.66 447.806H664.133L665.98 406.466Z" fill="white"/>
<path opacity="0.47" d="M625.367 503.636H476.435L474.215 553.177H623.146L625.367 503.636Z" fill="#407BFF"/>
<path d="M615.406 560.873H466.474C466.41 560.89 466.341 560.89 466.277 560.873C466.255 560.809 466.255 560.739 466.277 560.675L468.475 511.112C468.475 511.078 468.482 511.045 468.496 511.014C468.509 510.983 468.529 510.955 468.554 510.933C468.579 510.91 468.608 510.893 468.64 510.882C468.672 510.871 468.706 510.867 468.739 510.87H617.671C617.698 510.857 617.728 510.849 617.759 510.849C617.789 510.849 617.819 510.857 617.847 510.87C617.862 510.897 617.87 510.927 617.87 510.958C617.87 510.989 617.862 511.019 617.847 511.046L615.692 560.719C615.665 560.771 615.624 560.813 615.573 560.841C615.522 560.868 615.463 560.879 615.406 560.873ZM466.738 560.345H615.142L617.341 511.31H468.937L466.738 560.345Z" fill="white"/>
<path d="M545.283 376.297H445.849L445.035 394.812H544.447L545.283 376.297Z" fill="#407BFF"/>
<path d="M622.53 161.355C621.962 173.386 617.683 184.946 610.282 194.449C604.804 201.626 597.753 207.453 589.673 211.482C581.592 215.511 572.695 217.635 563.666 217.691C556.369 217.747 549.138 216.308 542.419 213.463C535.699 210.618 529.633 206.428 524.594 201.15C519.556 195.873 515.651 189.619 513.12 182.775C510.59 175.931 509.487 168.641 509.881 161.355C510.654 146.236 517.174 131.983 528.108 121.511C539.041 111.039 553.562 105.14 568.701 105.019C576.003 104.951 583.242 106.381 589.97 109.221C596.697 112.061 602.771 116.25 607.816 121.53C612.861 126.81 616.77 133.068 619.3 139.918C621.831 146.768 622.93 154.064 622.53 161.355Z" fill="white"/>
<path d="M627.83 116.805C627.686 120.004 626.549 123.079 624.575 125.601C623.115 127.507 621.239 129.055 619.09 130.126C616.94 131.197 614.575 131.762 612.174 131.78C609.847 131.794 607.552 131.238 605.49 130.161C603.428 129.084 601.661 127.518 600.343 125.601C598.599 123.01 597.735 119.926 597.881 116.805C598.093 112.791 599.829 109.009 602.734 106.231C605.639 103.452 609.495 101.886 613.515 101.853C615.454 101.835 617.376 102.215 619.163 102.968C620.95 103.722 622.564 104.833 623.905 106.234C625.246 107.635 626.286 109.296 626.961 111.114C627.636 112.932 627.932 114.869 627.83 116.805Z" fill="#407BFF"/>
<path d="M473.357 315.564C473.251 317.336 472.478 319.002 471.193 320.226C469.907 321.45 468.205 322.142 466.43 322.161C465.573 322.171 464.723 322.005 463.933 321.674C463.143 321.342 462.429 320.853 461.835 320.234C461.241 319.616 460.781 318.882 460.482 318.079C460.183 317.276 460.052 316.42 460.098 315.564C460.193 313.788 460.963 312.116 462.251 310.89C463.538 309.664 465.246 308.976 467.024 308.967C467.88 308.96 468.729 309.128 469.518 309.461C470.307 309.793 471.019 310.283 471.612 310.901C472.205 311.518 472.666 312.25 472.966 313.052C473.266 313.854 473.399 314.709 473.357 315.564Z" fill="#263238"/>
<path d="M502.998 315.564C502.898 317.338 502.126 319.007 500.839 320.232C499.553 321.457 497.848 322.147 496.072 322.161C495.216 322.168 494.369 322 493.581 321.667C492.793 321.335 492.082 320.844 491.491 320.226C490.899 319.608 490.441 318.876 490.143 318.074C489.846 317.272 489.716 316.418 489.761 315.564C489.856 313.792 490.623 312.123 491.906 310.898C493.189 309.672 494.891 308.981 496.665 308.967C497.522 308.957 498.372 309.123 499.163 309.454C499.953 309.785 500.667 310.275 501.261 310.894C501.854 311.512 502.315 312.245 502.614 313.049C502.912 313.852 503.043 314.708 502.998 315.564Z" fill="#263238"/>
<path d="M532.661 315.564C532.561 317.338 531.789 319.007 530.502 320.232C529.216 321.457 527.511 322.147 525.735 322.161C524.879 322.168 524.03 322 523.241 321.667C522.452 321.335 521.739 320.845 521.147 320.227C520.554 319.61 520.093 318.877 519.793 318.076C519.493 317.274 519.36 316.419 519.402 315.564C519.502 313.79 520.274 312.121 521.561 310.896C522.847 309.671 524.552 308.981 526.328 308.967C527.185 308.957 528.035 309.123 528.826 309.454C529.616 309.785 530.33 310.275 530.924 310.894C531.518 311.512 531.978 312.245 532.277 313.049C532.576 313.852 532.706 314.708 532.661 315.564Z" fill="#263238"/>
<path d="M468.365 427.136C468.26 428.908 467.486 430.574 466.201 431.798C464.916 433.022 463.214 433.714 461.439 433.733C460.583 433.74 459.734 433.572 458.945 433.239C458.156 432.907 457.444 432.417 456.851 431.799C456.258 431.182 455.797 430.45 455.497 429.648C455.197 428.846 455.064 427.991 455.106 427.136C455.207 425.362 455.979 423.693 457.265 422.468C458.551 421.243 460.256 420.553 462.033 420.539C462.889 420.532 463.737 420.7 464.526 421.033C465.315 421.365 466.028 421.855 466.621 422.473C467.214 423.09 467.674 423.823 467.974 424.624C468.274 425.426 468.407 426.281 468.365 427.136Z" fill="#263238"/>
<path d="M498.007 427.136C497.906 428.906 497.138 430.572 495.856 431.797C494.574 433.021 492.875 433.713 491.102 433.733C490.245 433.743 489.395 433.577 488.605 433.246C487.814 432.915 487.1 432.425 486.507 431.806C485.913 431.188 485.453 430.455 485.154 429.651C484.855 428.848 484.724 427.992 484.769 427.136C484.87 425.362 485.642 423.693 486.928 422.468C488.215 421.243 489.919 420.553 491.696 420.539C492.551 420.532 493.399 420.7 494.186 421.033C494.974 421.366 495.686 421.856 496.277 422.474C496.868 423.092 497.326 423.824 497.624 424.626C497.921 425.428 498.052 426.282 498.007 427.136Z" fill="#263238"/>
<path d="M527.736 427.136C527.635 428.91 526.863 430.579 525.577 431.804C524.29 433.029 522.586 433.719 520.809 433.733C519.954 433.737 519.107 433.567 518.319 433.233C517.532 432.9 516.82 432.409 516.228 431.792C515.636 431.176 515.175 430.445 514.874 429.644C514.573 428.844 514.438 427.99 514.476 427.136C514.582 425.364 515.355 423.698 516.641 422.474C517.926 421.25 519.628 420.558 521.403 420.539C522.26 420.529 523.11 420.695 523.9 421.026C524.691 421.358 525.405 421.848 525.998 422.466C526.592 423.084 527.052 423.818 527.351 424.621C527.65 425.424 527.781 426.28 527.736 427.136Z" fill="#263238"/>
<path d="M557.333 427.136C557.227 428.908 556.454 430.574 555.168 431.798C553.883 433.022 552.181 433.714 550.406 433.733C549.551 433.737 548.704 433.567 547.917 433.233C547.129 432.9 546.418 432.409 545.825 431.792C545.233 431.176 544.772 430.445 544.471 429.644C544.17 428.844 544.035 427.99 544.074 427.136C544.179 425.364 544.953 423.698 546.238 422.474C547.523 421.25 549.225 420.559 551 420.539C551.856 420.532 552.705 420.7 553.494 421.033C554.283 421.365 554.995 421.855 555.588 422.473C556.181 423.09 556.642 423.823 556.942 424.624C557.242 425.426 557.375 426.281 557.333 427.136Z" fill="#263238"/>
<path d="M587.106 427.136C587 428.908 586.227 430.574 584.942 431.798C583.656 433.022 581.954 433.714 580.18 433.733C579.322 433.743 578.472 433.577 577.682 433.246C576.892 432.915 576.177 432.425 575.584 431.806C574.99 431.188 574.53 430.455 574.231 429.651C573.932 428.848 573.801 427.992 573.847 427.136C573.947 425.362 574.719 423.693 576.006 422.468C577.292 421.243 578.997 420.553 580.773 420.539C581.629 420.532 582.478 420.7 583.267 421.033C584.056 421.365 584.769 421.855 585.361 422.473C585.954 423.09 586.415 423.823 586.715 424.624C587.015 425.426 587.148 426.281 587.106 427.136Z" fill="#263238"/>
<path d="M582.606 158.421C591.809 149.421 592.298 134.995 583.697 126.199C575.095 117.404 560.662 117.57 551.458 126.57C542.255 135.57 541.766 149.996 550.367 158.792C558.969 167.587 573.402 167.421 582.606 158.421Z" fill="#407BFF"/>
<path d="M610.282 194.449C604.804 201.626 597.753 207.453 589.672 211.482C581.592 215.511 572.695 217.635 563.666 217.691C554.91 217.765 546.27 215.684 538.509 211.631C530.747 207.577 524.102 201.677 519.16 194.449C529.847 183.806 546.756 176.857 565.491 176.857C584.225 176.857 600.541 183.806 610.282 194.449Z" fill="#407BFF"/>
<path opacity="0.1" d="M582.606 158.421C591.809 149.421 592.298 134.995 583.697 126.199C575.095 117.404 560.662 117.57 551.458 126.57C542.255 135.57 541.766 149.996 550.367 158.792C558.969 167.587 573.402 167.421 582.606 158.421Z" fill="white"/>
<path opacity="0.1" d="M610.282 194.449C604.804 201.626 597.753 207.453 589.672 211.482C581.592 215.511 572.695 217.635 563.666 217.691C554.91 217.765 546.27 215.684 538.509 211.631C530.747 207.577 524.102 201.677 519.16 194.449C529.847 183.806 546.756 176.857 565.491 176.857C584.225 176.857 600.541 183.806 610.282 194.449Z" fill="white"/>
<path d="M286.758 346.195C284.669 350.768 282.47 355.804 280.557 360.685C278.644 365.567 276.687 370.602 274.994 375.616C271.537 385.496 268.904 395.646 267.122 405.961L266.638 409.193C266.592 409.748 266.644 410.306 266.792 410.842C267.311 412.665 268.129 414.389 269.211 415.944C272.035 419.969 275.311 423.658 278.974 426.938C282.837 430.531 286.889 433.915 291.112 437.075C295.334 440.33 299.776 443.496 304.152 446.486L300.04 454.205C289.591 449.652 279.673 443.967 270.465 437.251C265.552 433.668 261.118 429.471 257.271 424.761C254.991 421.958 253.213 418.781 252.016 415.372C251.32 413.242 250.963 411.016 250.96 408.775C250.96 408.248 250.96 407.478 250.96 407.104V406.027L251.18 403.828C252.441 392.372 254.85 381.071 258.371 370.097C260.086 364.687 261.911 359.3 264 354.045C266.089 348.789 268.244 343.644 270.904 338.301L286.758 346.195Z" fill="#E58A7B"/>
<path d="M301.051 445.123L316.597 437.251L312.573 454.315C312.573 454.315 301.909 457.305 296.961 452.116L301.051 445.123Z" fill="#E58A7B"/>
<path d="M330.824 440.044L326.69 454.161L312.573 454.315L316.597 437.251L330.824 440.044Z" fill="#E58A7B"/>
<path d="M352.769 263.868C353.601 266.915 354.758 269.864 356.222 272.664C355.794 273.148 355.243 273.509 354.628 273.706C354.012 273.903 353.355 273.931 352.725 273.785L352.769 263.868Z" fill="#DF5753"/>
<path d="M352.308 264C353.218 264 353.957 262.868 353.957 261.471C353.957 260.075 353.218 258.942 352.308 258.942C351.397 258.942 350.658 260.075 350.658 261.471C350.658 262.868 351.397 264 352.308 264Z" fill="#263238"/>
<path d="M351.824 259.031L355.166 258.085C355.166 258.085 353.539 260.68 351.824 259.031Z" fill="#263238"/>
<path d="M309.825 280.008C311.826 290.233 313.827 308.989 306.658 315.828C306.658 315.828 309.473 326.207 328.493 326.207C349.405 326.207 338.476 315.828 338.476 315.828C327.064 313.101 327.35 304.635 329.351 296.675L309.825 280.008Z" fill="#E58A7B"/>
<path d="M304.262 256.7C305.317 273.785 305.405 281.041 314.025 289.815C327.02 303.008 347.778 297.995 351.846 281.019C355.518 265.627 353.187 240.296 336.454 233.501C332.78 231.988 328.782 231.437 324.836 231.9C320.891 232.363 317.129 233.825 313.906 236.147C310.683 238.47 308.106 241.576 306.418 245.173C304.731 248.769 303.988 252.736 304.262 256.7Z" fill="#E58A7B"/>
<path d="M305.955 237.481C297.379 240.604 285.945 238.273 290.431 264.726C295.18 292.739 287.88 301.953 287.88 301.953C287.88 301.953 320.402 308.879 353.605 301.535C353.605 301.535 343.468 283.812 346.305 270.751C349.933 254.259 347.074 248.168 347.074 248.168C347.074 248.168 318.005 233.083 305.955 237.481Z" fill="#263238"/>
<path d="M342.237 265.605C342.246 268.854 343.176 272.033 344.919 274.775C347.25 278.337 349.999 276.974 350.68 273.191C351.296 269.871 350.834 264 347.866 261.713C344.897 259.426 342.281 261.669 342.237 265.605Z" fill="#E58A7B"/>
<path d="M298.5 240.362C296.038 233.435 307.78 222.771 332.627 227.168C357.475 231.566 358.552 252.258 358.552 252.258L353.539 246.277L353.759 252.566L328.23 257.469L298.5 240.362Z" fill="#263238"/>
<path d="M300.611 316.993C300.465 315.989 300.716 314.968 301.312 314.146C301.907 313.325 302.8 312.768 303.8 312.596C311.54 311.32 329.131 308.726 337.971 309.957C344.567 310.88 346.283 314.707 346.568 317.851C346.613 318.402 346.54 318.955 346.352 319.475C346.165 319.995 345.869 320.469 345.484 320.864C345.098 321.26 344.633 321.569 344.118 321.77C343.604 321.971 343.052 322.059 342.5 322.029L304.284 320.314C303.383 320.268 302.525 319.913 301.856 319.308C301.187 318.703 300.747 317.885 300.611 316.993Z" fill="#407BFF"/>
<path opacity="0.6" d="M300.611 316.993C300.465 315.989 300.716 314.968 301.312 314.146C301.907 313.325 302.8 312.768 303.8 312.596C311.54 311.32 329.131 308.726 337.971 309.957C344.567 310.88 346.283 314.707 346.568 317.851C346.613 318.402 346.54 318.955 346.352 319.475C346.165 319.995 345.869 320.469 345.484 320.864C345.098 321.26 344.633 321.569 344.118 321.77C343.604 321.971 343.052 322.059 342.5 322.029L304.284 320.314C303.383 320.268 302.525 319.913 301.856 319.308C301.187 318.703 300.747 317.885 300.611 316.993Z" fill="black"/>
<path d="M322.71 701.141L336.893 710.992L360.619 678.822L346.436 668.993L322.71 701.141Z" fill="#E58A7B"/>
<path d="M289.639 700.503L304.613 709.035L325.613 675.018L310.638 666.486L289.639 700.503Z" fill="#E58A7B"/>
<path d="M360.597 678.822L348.371 695.402L334.189 685.573L346.414 668.993L360.597 678.822Z" fill="#CF6F64"/>
<path d="M310.616 666.486L325.613 675.04L314.794 692.565L299.798 684.012L310.616 666.486Z" fill="#CF6F64"/>
<path d="M334.672 424.388C334.672 424.388 390.041 494.159 379.64 560.895C371.262 614.79 322.666 687.772 322.666 687.772L299.82 676.425C315.923 644.157 329.666 610.763 340.939 576.507C344.416 565.872 345.43 554.586 343.907 543.501C342.383 532.416 338.361 521.822 332.144 512.519C304.086 471.554 259.14 495.94 289.375 424.388H334.672Z" fill="#407BFF"/>
<path opacity="0.6" d="M334.672 424.388C334.672 424.388 390.041 494.159 379.64 560.895C371.262 614.79 322.666 687.772 322.666 687.772L299.82 676.425C315.923 644.157 329.666 610.763 340.939 576.507C344.416 565.872 345.43 554.586 343.907 543.501C342.383 532.416 338.361 521.822 332.144 512.519C304.086 471.554 259.14 495.94 289.375 424.388H334.672Z" fill="black"/>
<path opacity="0.4" d="M361.829 469.201L353.781 461.197C353.781 461.835 369.371 558.081 373.747 585.127C376.329 577.226 378.306 569.14 379.662 560.939C384.807 528.198 374.055 494.752 361.829 469.201Z" fill="black"/>
<path d="M359.388 424.388C359.388 424.388 426.059 512.08 427.95 564.655C429.511 608.633 355.386 693.841 355.386 693.841L333.837 679.9C333.837 679.9 377.221 619.386 388.15 569.955C383.928 520.963 294.652 424.388 294.652 424.388H359.388Z" fill="#407BFF"/>
<path opacity="0.6" d="M359.388 424.388C359.388 424.388 426.059 512.08 427.95 564.655C429.511 608.633 355.386 693.841 355.386 693.841L333.837 679.9C333.837 679.9 377.221 619.386 388.15 569.955C383.928 520.963 294.652 424.388 294.652 424.388H359.388Z" fill="black"/>
<path d="M276.907 319.742C269.783 321.435 262.944 347.338 262.944 347.338L290.804 365.941C290.804 365.941 300.084 345.447 296.829 336.476C293.465 327.13 285.857 317.609 276.907 319.742Z" fill="#407BFF"/>
<path opacity="0.2" d="M282.361 336.432L280.426 359.014L290.782 365.963C293.642 359.525 295.759 352.782 297.093 345.865L282.361 336.432Z" fill="black"/>
<path d="M367.634 320.248C367.634 320.248 375.858 323.128 359.388 424.366H289.331C290.518 395.78 290.54 378.189 276.907 319.742C286.717 317.72 296.66 316.412 306.658 315.828C317.251 315.068 327.884 315.068 338.476 315.828C352.154 317.081 367.634 320.248 367.634 320.248Z" fill="#407BFF"/>
<path d="M374.758 336.432C376.342 340.829 378.013 345.557 379.772 350.109C381.531 354.661 383.202 359.344 384.983 363.962L390.371 377.771L391.734 381.223L392.437 382.938L392.767 383.796C392.767 383.95 392.767 383.95 392.767 383.928C392.366 383.361 391.839 382.895 391.228 382.565C390.358 382.053 389.378 381.758 388.37 381.707C387.532 381.681 386.699 381.838 385.929 382.169C384.917 382.631 384.917 382.828 384.939 382.806C385.122 382.66 385.285 382.49 385.423 382.301C386.64 380.703 387.694 378.986 388.567 377.177C389.601 375.154 390.59 372.999 391.58 370.822C393.515 366.425 395.296 361.873 397.077 357.277C398.858 352.682 400.551 348.042 402.201 343.358L407.214 329.329L415.68 331.528C414.009 341.555 411.854 351.318 409.259 361.257C408.006 366.205 406.532 371.108 404.861 376.056C404.026 378.541 403.102 381.003 402.047 383.532C400.947 386.277 399.592 388.912 398.001 391.404C397.416 392.243 396.769 393.037 396.066 393.779C394.943 394.992 393.58 395.958 392.064 396.616C390.718 397.193 389.261 397.464 387.798 397.407C386.159 397.346 384.562 396.869 383.158 396.022C381.502 394.988 380.127 393.56 379.156 391.866C378.826 391.294 378.54 390.722 378.343 390.305L377.925 389.469L377.089 387.754L375.418 384.346C373.219 379.772 371.02 375.154 369.107 370.515C367.194 365.875 365.171 361.169 363.28 356.442C361.389 351.714 359.696 346.986 358.091 341.885L374.758 336.432Z" fill="#E58A7B"/>
<path d="M367.634 320.248C376.056 322.249 385.533 347.14 385.533 347.14L360.487 368.448C360.487 368.448 344.282 341.313 347.558 332.364C350.966 323.04 356.639 317.631 367.634 320.248Z" fill="#407BFF"/>
<path d="M411.194 321.457L419.99 314.113L426.103 323.634L421.595 331.572C421.595 331.572 414.426 338.169 408.094 334.804C407.088 332.545 406.847 330.02 407.407 327.611C407.966 325.203 409.296 323.042 411.194 321.457Z" fill="#E58A7B"/>
<path d="M435.866 314.135L435.206 316.532L421.287 318.862L419.924 314.113L435.866 314.135Z" fill="#E58A7B"/>
<path d="M357.101 694.962L331.99 678.734L336.497 670.906L364.709 688.255L357.101 694.962Z" fill="#407BFF"/>
<path d="M314.443 707.892C312.239 707.622 310.122 706.872 308.242 705.693C308.164 705.666 308.097 705.615 308.049 705.548C308.001 705.481 307.976 705.401 307.976 705.319C307.976 705.237 308.001 705.157 308.049 705.09C308.097 705.023 308.164 704.972 308.242 704.945C308.923 704.725 314.838 702.9 316.553 704.307C316.746 704.468 316.893 704.677 316.978 704.912C317.063 705.148 317.083 705.402 317.037 705.649C317.007 706.045 316.875 706.426 316.656 706.757C316.437 707.088 316.137 707.357 315.784 707.54C315.372 707.765 314.912 707.885 314.443 707.892ZM309.495 705.473C312.244 706.88 314.442 707.386 315.498 706.858C315.728 706.731 315.921 706.547 316.06 706.324C316.198 706.1 316.277 705.845 316.29 705.583C316.29 705.231 316.29 705.077 316.092 704.989C315.168 704.241 311.87 704.813 309.451 705.473H309.495Z" fill="#263238"/>
<path d="M308.396 705.847C308.28 705.845 308.169 705.798 308.088 705.715C308.055 705.654 308.038 705.586 308.038 705.517C308.038 705.448 308.055 705.38 308.088 705.319C308.088 705.121 309.517 700.349 311.76 699.272C312.046 699.141 312.358 699.074 312.672 699.074C312.987 699.074 313.298 699.141 313.585 699.272C313.894 699.37 314.161 699.568 314.344 699.835C314.528 700.101 314.616 700.422 314.596 700.745C314.443 702.724 310.419 705.451 308.571 705.913L308.396 705.847ZM312.661 699.844C312.448 699.85 312.238 699.903 312.046 699.998C310.682 700.657 309.561 703.23 309.011 704.791C310.946 703.978 313.607 701.823 313.695 700.613C313.695 700.415 313.695 700.174 313.189 699.954C313.025 699.865 312.846 699.806 312.661 699.778V699.844Z" fill="#263238"/>
<path d="M345.821 717.391C343.336 717.391 339.884 714.203 337.993 712.246C337.944 712.178 337.918 712.097 337.918 712.015C337.918 711.932 337.944 711.851 337.993 711.784C338.036 711.713 338.098 711.655 338.171 711.616C338.245 711.578 338.327 711.56 338.41 711.564C339.29 711.564 346.92 712.707 347.998 714.862C348.112 715.055 348.172 715.276 348.172 715.5C348.172 715.724 348.112 715.944 347.998 716.138C347.836 716.473 347.592 716.762 347.288 716.978C346.984 717.193 346.631 717.328 346.261 717.369L345.821 717.391ZM339.444 712.553C342.215 715.236 344.655 716.731 346.041 716.555C346.283 716.524 346.514 716.433 346.714 716.291C346.913 716.149 347.075 715.961 347.184 715.742C347.233 715.667 347.259 715.579 347.259 715.489C347.259 715.399 347.233 715.311 347.184 715.236C346.612 714.049 342.544 713.037 339.444 712.553Z" fill="#263238"/>
<path d="M339.686 712.443C339.192 712.457 338.699 712.42 338.213 712.333C338.145 712.323 338.081 712.296 338.027 712.253C337.973 712.211 337.931 712.155 337.905 712.091C337.872 712.027 337.855 711.955 337.855 711.883C337.855 711.81 337.872 711.738 337.905 711.674C338.037 711.52 341.005 707.936 343.82 707.694C344.617 707.632 345.406 707.884 346.019 708.397C346.876 709.145 346.832 709.805 346.612 710.222C346.063 711.718 342.259 712.443 339.686 712.443ZM339.114 711.63C341.577 711.762 345.513 710.948 346.019 709.871C346.019 709.871 346.195 709.519 345.623 709.035C345.395 708.837 345.13 708.688 344.842 708.597C344.555 708.507 344.252 708.476 343.952 708.507C342.056 709.036 340.367 710.134 339.114 711.652V711.63Z" fill="#263238"/>
<path d="M308.989 703.472L290.343 698.194C290.021 698.097 289.675 698.122 289.371 698.264C289.066 698.406 288.825 698.655 288.693 698.964L282.405 713.103C282.257 713.465 282.188 713.854 282.201 714.245C282.215 714.636 282.311 715.02 282.483 715.371C282.656 715.722 282.9 716.032 283.201 716.282C283.502 716.531 283.853 716.715 284.23 716.819C290.826 718.534 293.993 719.018 302.195 721.371C307.252 722.778 314.464 725.395 321.435 727.374C328.405 729.353 330.736 722.558 328.032 721.107C315.806 714.642 314.838 710.112 311.496 705.275C310.897 704.399 310.01 703.761 308.989 703.472Z" fill="#407BFF"/>
<path d="M338.498 709.673L322.578 698.678C322.308 698.482 321.976 698.391 321.643 698.423C321.311 698.456 321.002 698.609 320.775 698.854L310.221 710.2C309.963 710.494 309.772 710.838 309.658 711.211C309.544 711.585 309.511 711.978 309.561 712.365C309.611 712.751 309.743 713.123 309.947 713.455C310.152 713.787 310.425 714.072 310.748 714.29C316.356 718.05 319.258 719.568 326.273 724.427C330.67 727.418 339.18 734.058 345.117 738.192C351.054 742.326 355.474 736.653 353.363 734.41C343.908 724.317 341.841 717.985 340.28 712.245C340.009 711.204 339.378 710.293 338.498 709.673Z" fill="#407BFF"/>
<path d="M325.591 689.223L296.895 674.952L299.864 667.168L330.516 682.208L325.591 689.223Z" fill="#407BFF"/>
<path d="M288.276 420.254L285.857 426.586C285.615 427.07 286.187 427.576 287 427.576H359.74C360.378 427.576 360.905 427.268 360.949 426.872L361.565 420.584C361.565 420.166 361.059 419.792 360.377 419.792H289.419C289.205 419.772 288.99 419.803 288.791 419.884C288.592 419.964 288.415 420.091 288.276 420.254Z" fill="#407BFF"/>
<path opacity="0.4" d="M288.276 420.254L285.857 426.586C285.615 427.07 286.187 427.576 287 427.576H359.74C360.378 427.576 360.905 427.268 360.949 426.872L361.565 420.584C361.565 420.166 361.059 419.792 360.377 419.792H289.419C289.205 419.772 288.99 419.803 288.791 419.884C288.592 419.964 288.415 420.091 288.276 420.254Z" fill="white"/>
<path d="M299.732 428.192H297.819C297.445 428.192 297.159 427.994 297.181 427.752L298.083 419.594C298.083 419.374 298.435 419.176 298.808 419.176H300.721C301.095 419.176 301.381 419.374 301.359 419.594L300.458 427.752C300.436 427.994 300.106 428.192 299.732 428.192Z" fill="#407BFF"/>
<path d="M344.589 428.192H342.698C342.325 428.192 342.039 427.994 342.061 427.752L342.94 419.594C342.94 419.374 343.314 419.176 343.688 419.176H345.579C345.953 419.176 346.261 419.374 346.217 419.594L345.337 427.752C345.227 427.994 344.985 428.192 344.589 428.192Z" fill="#407BFF"/>
<g style="mix-blend-mode:multiply">
<path d="M298.061 800.575C330.595 800.575 356.969 798.665 356.969 796.309C356.969 793.953 330.595 792.043 298.061 792.043C265.526 792.043 239.152 793.953 239.152 796.309C239.152 798.665 265.526 800.575 298.061 800.575Z" fill="#F5F5F5"/>
</g>
<path d="M333.947 790.284C323.524 787.25 311.958 783.358 304.965 779.29C304.767 779.158 304.547 779.092 304.35 778.982V731.794H325.437C327.038 731.699 328.542 730.996 329.642 729.829C330.742 728.662 331.354 727.119 331.354 725.516C331.354 723.912 330.742 722.369 329.642 721.202C328.542 720.035 327.038 719.333 325.437 719.238H304.459V504.142H291.794V719.238H270.838C269.983 719.187 269.126 719.312 268.32 719.605C267.514 719.897 266.777 720.351 266.153 720.939C265.529 721.527 265.032 722.237 264.693 723.023C264.353 723.81 264.178 724.659 264.178 725.516C264.178 726.373 264.353 727.221 264.693 728.008C265.032 728.795 265.529 729.504 266.153 730.092C266.777 730.68 267.514 731.134 268.32 731.427C269.126 731.72 269.983 731.844 270.838 731.794H291.794V778.916C291.596 778.916 291.398 779.092 291.2 779.224C284.098 783.358 272.619 787.25 262.197 790.218C261.493 790.431 260.888 790.889 260.492 791.509C260.097 792.129 259.936 792.871 260.04 793.599C260.144 794.327 260.504 794.994 261.057 795.479C261.61 795.964 262.319 796.235 263.054 796.243H333.089C333.792 796.195 334.457 795.908 334.974 795.429C335.49 794.95 335.827 794.308 335.927 793.611C336.027 792.913 335.885 792.203 335.525 791.597C335.165 790.992 334.608 790.528 333.947 790.284Z" fill="#E0E0E0"/>
<path d="M337.179 482.241H258.986C252.696 482.241 247.596 487.34 247.596 493.631V516.873C247.596 523.164 252.696 528.264 258.986 528.264H337.179C343.47 528.264 348.569 523.164 348.569 516.873V493.631C348.569 487.34 343.47 482.241 337.179 482.241Z" fill="#407BFF"/>
<path d="M258.261 528.286V532.288C258.261 535.586 261.845 538.269 266.243 538.269H330.011C334.408 538.269 337.993 535.586 337.993 532.288V528.286H258.261Z" fill="#407BFF"/>
<path opacity="0.3" d="M258.261 528.286V532.288C258.261 535.586 261.845 538.269 266.243 538.269H330.011C334.408 538.269 337.993 535.586 337.993 532.288V528.286H258.261Z" fill="white"/>
</svg>
