<svg width="700" height="520" viewBox="0 0 700 520" fill="none" xmlns="http://www.w3.org/2000/svg">
<path d="M700 456.968H0V457.317H700V456.968Z" fill="#E6E6E6"/>
<path d="M174.748 478.086H128.38V478.435H174.748V478.086Z" fill="#E6E6E6"/>
<path d="M113.708 478.086H86.842V478.435H113.708V478.086Z" fill="#E6E6E6"/>
<path d="M294.77 483.222H267.904V483.571H294.77V483.222Z" fill="#E6E6E6"/>
<path d="M434.854 491.01H374.388V491.359H434.854V491.01Z" fill="#E6E6E6"/>
<path d="M361.928 491.01H353.066V491.359H361.928V491.01Z" fill="#E6E6E6"/>
<path d="M634.69 483.222H503.538V483.571H634.69V483.222Z" fill="#E6E6E6"/>
<path d="M331.8 394.718H61.474C59.3563 394.714 57.3266 393.873 55.8305 392.378C54.3343 390.884 53.494 388.859 53.494 386.748V7.89994C53.5125 5.80077 54.3609 3.79361 55.855 2.31446C57.3492 0.835297 59.3684 0.00359599 61.474 0H331.8C333.92 0 335.953 0.839665 337.453 2.33428C338.952 3.82889 339.794 5.85602 339.794 7.96972V386.748C339.794 388.862 338.952 390.889 337.453 392.383C335.953 393.878 333.92 394.718 331.8 394.718ZM61.474 0.279151C59.4491 0.282848 57.5084 1.08738 56.0779 2.51615C54.6474 3.94493 53.844 5.88119 53.844 7.89994V386.748C53.844 388.767 54.6474 390.703 56.0779 392.132C57.5084 393.56 59.4491 394.365 61.474 394.369H331.8C333.826 394.365 335.768 393.561 337.201 392.133C338.634 390.704 339.44 388.768 339.444 386.748V7.89994C339.44 5.87991 338.634 3.94368 337.201 2.5153C335.768 1.08693 333.826 0.28284 331.8 0.279151H61.474Z" fill="#E6E6E6"/>
<path d="M634.634 394.718H364.294C362.175 394.714 360.144 393.873 358.645 392.379C357.147 390.886 356.304 388.861 356.3 386.748V7.89994C356.322 5.79949 357.174 3.79236 358.67 2.31358C360.166 0.834809 362.187 0.00355677 364.294 0H634.634C636.737 0.00726417 638.753 0.840588 640.244 2.31935C641.735 3.79812 642.582 5.80318 642.6 7.89994V386.748C642.6 388.857 641.762 390.88 640.268 392.374C638.775 393.867 636.749 394.71 634.634 394.718ZM364.294 0.279151C362.268 0.28284 360.326 1.08693 358.893 2.5153C357.46 3.94368 356.654 5.87991 356.65 7.89994V386.748C356.654 388.768 357.46 390.704 358.893 392.133C360.326 393.561 362.268 394.365 364.294 394.369H634.634C636.66 394.365 638.602 393.561 640.035 392.133C641.468 390.704 642.274 388.768 642.278 386.748V7.89994C642.274 5.87991 641.468 3.94368 640.035 2.5153C638.602 1.08693 636.66 0.28284 634.634 0.279151H364.294Z" fill="#E6E6E6"/>
<path d="M374.36 337.743H343.574V459.494H374.36V337.743Z" fill="#E0E0E0"/>
<path d="M368.508 459.494H374.36V442.913H362.376L368.508 459.494Z" fill="#FAFAFA"/>
<path d="M239.456 337.743H208.67V459.494H239.456V337.743Z" fill="#E0E0E0"/>
<path d="M374.36 337.743H234.36V449.319H374.36V337.743Z" fill="#FAFAFA"/>
<path d="M369.278 343.228V372.749H239.4V343.228H369.236M369.782 342.684H238.896V373.279H369.824V342.684H369.782Z" fill="#E0E0E0"/>
<path d="M240.198 459.494H234.36V442.913H246.33L240.198 459.494Z" fill="#FAFAFA"/>
<path d="M301.266 357.982C301.266 358.592 301.447 359.188 301.787 359.695C302.127 360.203 302.611 360.598 303.176 360.831C303.741 361.065 304.363 361.126 304.964 361.007C305.564 360.888 306.115 360.594 306.548 360.163C306.98 359.731 307.275 359.182 307.395 358.583C307.514 357.985 307.453 357.365 307.218 356.801C306.984 356.238 306.588 355.756 306.079 355.417C305.57 355.078 304.972 354.897 304.36 354.897C303.539 354.897 302.752 355.222 302.172 355.8C301.592 356.379 301.266 357.164 301.266 357.982Z" fill="#E6E6E6"/>
<path d="M369.278 378.764V408.284H239.4V378.764H369.236M369.782 378.234H238.896V408.829H369.824V378.248L369.782 378.234Z" fill="#E0E0E0"/>
<path d="M301.266 393.601C301.266 394.211 301.447 394.807 301.787 395.315C302.127 395.822 302.611 396.217 303.176 396.451C303.741 396.684 304.363 396.745 304.964 396.626C305.564 396.507 306.115 396.213 306.548 395.782C306.98 395.351 307.275 394.801 307.395 394.203C307.514 393.604 307.453 392.984 307.218 392.421C306.984 391.857 306.588 391.375 306.079 391.036C305.57 390.697 304.972 390.516 304.36 390.516C303.539 390.516 302.752 390.841 302.172 391.42C301.592 391.998 301.266 392.783 301.266 393.601Z" fill="#E6E6E6"/>
<path d="M369.278 414.314V443.848H239.4V414.314H369.236M369.782 413.77H238.896V444.378H369.824V413.77H369.782Z" fill="#E0E0E0"/>
<path d="M301.266 429.081C301.269 429.691 301.453 430.286 301.794 430.791C302.136 431.296 302.62 431.69 303.186 431.921C303.751 432.152 304.373 432.211 304.972 432.091C305.571 431.97 306.121 431.675 306.553 431.243C306.984 430.811 307.277 430.262 307.396 429.664C307.514 429.066 307.452 428.446 307.217 427.884C306.983 427.321 306.586 426.84 306.077 426.501C305.569 426.163 304.971 425.983 304.36 425.983C303.953 425.983 303.549 426.063 303.173 426.219C302.796 426.375 302.455 426.603 302.167 426.891C301.88 427.179 301.652 427.521 301.498 427.896C301.343 428.272 301.264 428.675 301.266 429.081Z" fill="#E6E6E6"/>
<path d="M220.654 267.035H189.868V459.508H220.654V267.035Z" fill="#E0E0E0"/>
<path d="M214.802 459.494H220.654V442.913H208.684L214.802 459.494Z" fill="#FAFAFA"/>
<path d="M105.602 267.035H74.816V459.508H105.602V267.035Z" fill="#E0E0E0"/>
<path d="M220.654 267.035H100.492V449.333H220.654V267.035Z" fill="#FAFAFA"/>
<path d="M215.474 272.171V313.443H105.672V272.171H215.474ZM216.118 271.543H105V314.044H216.09V271.557L216.118 271.543Z" fill="#E0E0E0"/>
<path d="M215.474 318.482V427.95H163.17V318.482H215.474ZM216.118 317.84H162.54V428.592H216.118V317.84Z" fill="#E0E0E0"/>
<path d="M157.976 318.482V427.95H105.672V318.482H157.976ZM158.606 317.84H105V428.592H158.578V317.84H158.606Z" fill="#E0E0E0"/>
<path d="M106.344 459.494H100.492V442.913H112.476L106.344 459.494Z" fill="#FAFAFA"/>
<path d="M157.472 292.828C157.469 293.441 157.649 294.042 157.989 294.553C158.329 295.065 158.813 295.464 159.381 295.701C159.949 295.937 160.574 296.001 161.178 295.883C161.782 295.765 162.337 295.471 162.773 295.038C163.209 294.605 163.506 294.053 163.627 293.452C163.748 292.85 163.688 292.226 163.453 291.659C163.218 291.092 162.82 290.608 162.308 290.267C161.797 289.926 161.195 289.743 160.58 289.743C159.758 289.743 158.97 290.068 158.387 290.646C157.805 291.224 157.476 292.009 157.472 292.828Z" fill="#E6E6E6"/>
<path d="M168.56 370.613C168.56 371.226 168.743 371.826 169.085 372.336C169.427 372.846 169.913 373.243 170.482 373.477C171.051 373.711 171.676 373.772 172.279 373.651C172.883 373.53 173.437 373.234 173.871 372.799C174.305 372.364 174.6 371.811 174.718 371.209C174.836 370.607 174.773 369.983 174.535 369.418C174.298 368.852 173.897 368.369 173.384 368.03C172.872 367.691 172.269 367.512 171.654 367.514C171.246 367.514 170.843 367.595 170.467 367.751C170.09 367.906 169.749 368.135 169.461 368.423C169.174 368.711 168.946 369.052 168.791 369.428C168.637 369.804 168.558 370.207 168.56 370.613Z" fill="#E6E6E6"/>
<path d="M146.398 370.613C146.401 371.222 146.585 371.817 146.926 372.323C147.268 372.828 147.752 373.221 148.318 373.453C148.883 373.684 149.505 373.743 150.104 373.623C150.703 373.502 151.253 373.207 151.685 372.775C152.116 372.343 152.409 371.794 152.528 371.196C152.646 370.598 152.584 369.978 152.349 369.415C152.115 368.853 151.718 368.372 151.209 368.033C150.701 367.695 150.103 367.514 149.492 367.514C149.084 367.514 148.681 367.595 148.305 367.751C147.928 367.906 147.587 368.135 147.299 368.423C147.012 368.711 146.784 369.052 146.629 369.428C146.475 369.804 146.396 370.207 146.398 370.613Z" fill="#E6E6E6"/>
<path d="M142.898 213.368H129.92C131.116 219.644 131.869 225.997 132.174 232.378C132.174 239.357 122.29 267.034 136.374 267.034C150.458 267.034 140.574 239.427 140.574 232.378C140.902 225.995 141.678 219.643 142.898 213.368Z" fill="#E0E0E0"/>
<path d="M93.52 241.674V250.048C93.5348 254.538 95.3302 258.839 98.5143 262.014C101.699 265.188 106.013 266.978 110.516 266.993H118.916C123.419 266.978 127.734 265.188 130.918 262.014C134.102 258.839 135.897 254.538 135.912 250.048V241.674H93.52Z" fill="#F5F5F5"/>
<path d="M273.938 319.989C273.938 329.76 284.9 337.743 298.298 337.743H310.394C323.792 337.743 334.754 329.76 334.754 319.989H273.938Z" fill="#E0E0E0"/>
<path d="M594.454 305.669C587.118 311.643 576.982 322.571 567.714 337.953C561.526 348.197 557.802 358.889 556.164 373.098C556.164 357.046 556.262 339.809 556.318 323.535C558.18 319.347 562.436 309.689 565.488 302.068C575.666 276.623 579.488 270.357 588.63 248.415C600.852 219.105 613.368 184.406 609.784 187.184C602.476 192.837 574.476 245.107 571.452 252.589C563.209 272.554 558.114 293.67 556.346 315.188C556.346 299.835 556.458 285.877 556.514 275.046C556.71 239.72 557.312 228.317 557.606 224.799C558.74 223.013 560.07 220.933 560.854 219.816C567.434 210.325 569.968 202.258 576.156 188.105C584.948 168.076 592.508 132.498 590.296 134.285C581.084 141.766 573.832 157.817 564.284 178.293C554.736 198.769 557.466 210.535 555.576 228.01C555.184 231.443 554.876 244.396 554.652 262.331C552.188 243.209 547.54 230.62 539.07 219.174C528.654 205.091 518.574 195.586 511.182 190.617C503.79 185.649 523.95 220.235 533.582 235.281C542.164 248.736 550.074 260.586 554.582 272.269C554.344 296.597 554.232 327.387 554.232 356.014C552.02 342.977 548.408 328.922 543.592 318.049C537.796 304.985 528.892 284.942 521.794 278.145C520.1 276.512 529.214 315.495 535.066 325.851C540.918 336.208 545.216 345.992 548.898 351.868C549.752 353.264 552.608 358.526 554.232 361.569C554.232 396.56 554.428 427.434 554.736 437.944H556.248C556.15 435.236 556.122 417.427 556.164 393.866C559.818 381.081 568.162 366.482 575.05 353.166C582.554 338.748 601.79 299.737 594.454 305.669Z" fill="#E0E0E0"/>
<path d="M577.416 459.494H533.54L530.222 416.617H580.734L577.416 459.494Z" fill="#F0F0F0"/>
<path d="M583.996 421.614H526.946L525.322 407.14H585.634L583.996 421.614Z" fill="#F5F5F5"/>
<path d="M173.964 28.6128H95.4941V114.521H173.964V28.6128Z" fill="#E0E0E0"/>
<path d="M182.462 28.6128H101.402V114.521H182.462V28.6128Z" fill="#F5F5F5"/>
<path d="M175.672 107.752V35.3826L108.192 35.3826V107.752H175.672Z" fill="white"/>
<path d="M159.306 90.1933V52.9128H124.544V90.1933H159.306Z" fill="#F5F5F5"/>
<path d="M574.07 38.6204H501.172V118.429H574.07V38.6204Z" fill="#E0E0E0"/>
<path d="M581.966 38.6204H506.674V118.429H581.966V38.6204Z" fill="#F5F5F5"/>
<path d="M575.666 112.135V44.9153L512.988 44.9153V112.135H575.666Z" fill="white"/>
<path d="M544.32 98.0233C555.121 98.0233 563.878 89.2935 563.878 78.5247C563.878 67.7559 555.121 59.0261 544.32 59.0261C533.518 59.0261 524.762 67.7559 524.762 78.5247C524.762 89.2935 533.518 98.0233 544.32 98.0233Z" fill="#F5F5F5"/>
<path d="M255.486 79.8369H197.274V143.567H255.486V79.8369Z" fill="#E0E0E0"/>
<path d="M261.786 79.8369H201.656V143.567H261.786V79.8369Z" fill="#F5F5F5"/>
<path d="M256.746 138.542V84.8613H206.696V138.542H256.746Z" fill="white"/>
<path d="M231.728 98.1211L218.036 121.765H245.42L231.728 98.1211Z" fill="#F5F5F5"/>
<path d="M350 520C499.915 520 621.446 512.926 621.446 504.2C621.446 495.474 499.915 488.4 350 488.4C200.084 488.4 78.554 495.474 78.554 504.2C78.554 512.926 200.084 520 350 520Z" fill="#F5F5F5"/>
<path d="M488.95 151.341L475.062 145.758C475.062 145.758 456.736 179.074 451.486 180.763C444.346 183.052 429.562 189.417 420.798 190.533C419.608 191.929 417.662 196.27 417.844 197.847C429.618 201.769 455.49 196.563 461.034 192.46C473.648 183.15 488.95 151.341 488.95 151.341Z" fill="#E58A7B"/>
<path d="M493.22 143.762C495.81 153.295 481.782 172.473 481.782 172.473L463.4 162.2C463.4 162.2 466.844 154.314 471.044 146.288C477.778 133.322 490.266 132.889 493.22 143.762Z" fill="#407BFF"/>
<path opacity="0.2" d="M493.22 143.762C495.81 153.295 481.782 172.473 481.782 172.473L463.4 162.2C463.4 162.2 466.844 154.314 471.044 146.288C477.778 133.322 490.266 132.889 493.22 143.762Z" fill="black"/>
<path opacity="0.2" d="M470.694 166.303L477.932 170.351L479.206 148.2C474.992 151.425 472.024 161.139 470.694 166.303Z" fill="black"/>
<path d="M481.124 136.588C481.124 136.588 466.816 168.327 475.16 227.423H531.538C532.434 218.798 529.466 176.702 540.204 136.058C534.019 134.853 527.762 134.055 521.472 133.671C513.494 133.21 505.496 133.21 497.518 133.671C491.988 134.231 486.507 135.206 481.124 136.588Z" fill="#407BFF"/>
<path opacity="0.2" d="M481.124 136.588C481.124 136.588 466.816 168.327 475.16 227.423H531.538C532.434 218.798 529.466 176.702 540.204 136.058C534.019 134.853 527.762 134.055 521.472 133.671C513.494 133.21 505.496 133.21 497.518 133.671C491.988 134.231 486.507 135.206 481.124 136.588Z" fill="black"/>
<g style="mix-blend-mode:multiply">
<path d="M468.048 505.457C467.964 506.964 489.342 508.178 515.788 508.178C542.234 508.178 563.766 506.964 563.85 505.457C563.934 503.949 542.57 502.749 516.11 502.749C489.65 502.749 468.146 503.963 468.048 505.457Z" fill="#E8ECF1"/>
</g>
<path d="M505.681 465.849L495.681 469.708L504.295 491.891L514.294 488.033L505.681 465.849Z" fill="#E58A7B"/>
<path d="M550.27 494.723H539.728L535.864 470.395H546.406L550.27 494.723Z" fill="#E58A7B"/>
<path d="M539 493.509H550.844C551.049 493.509 551.248 493.583 551.404 493.716C551.561 493.848 551.665 494.032 551.698 494.234L553.224 503.572C553.256 503.806 553.237 504.045 553.169 504.271C553.1 504.497 552.984 504.706 552.827 504.884C552.67 505.061 552.477 505.203 552.261 505.299C552.044 505.396 551.809 505.445 551.572 505.442C547.442 505.373 545.454 505.121 540.246 505.121C537.04 505.121 530.446 505.456 525.994 505.456C521.542 505.456 521.248 501.102 523.082 500.697C531.314 498.924 534.506 496.51 537.25 494.165C537.734 493.741 538.356 493.508 539 493.509Z" fill="#263238"/>
<path d="M504 489.908L515.2 486.642C515.4 486.586 515.613 486.599 515.804 486.68C515.995 486.762 516.152 486.906 516.25 487.088L520.45 495.463C520.548 495.675 520.597 495.906 520.596 496.14C520.595 496.374 520.542 496.604 520.442 496.816C520.342 497.027 520.197 497.214 520.017 497.364C519.837 497.513 519.626 497.622 519.4 497.682C515.326 498.799 512.596 499.483 507.5 500.962C503.986 501.981 500.402 503.642 496.93 504.745C494.522 505.512 488.866 505.54 485.94 505.54C481.614 505.54 480.648 500.99 482.51 500.781C487.2 500.264 487.83 500.501 490.42 499.203C494.658 497.357 498.499 494.712 501.732 491.415C502.342 490.722 503.124 490.202 504 489.908Z" fill="#263238"/>
<path d="M422.562 190.478L410.97 185.635L406.196 198.447C410.947 199.169 415.781 199.169 420.532 198.447L422.562 190.478Z" fill="#E58A7B"/>
<path d="M402.346 185.3L402.038 193.814L406.196 198.42L410.97 185.607L402.346 185.3Z" fill="#E58A7B"/>
<path d="M507.053 467.733L497.022 471.593L501.464 483.065L511.495 479.204L507.053 467.733Z" fill="#CF6F64"/>
<path d="M546.406 470.395H535.864L537.866 482.943H548.408L546.406 470.395Z" fill="#CF6F64"/>
<path opacity="0.2" d="M473.368 211.442C473.578 213.968 473.816 216.55 474.124 219.202L516.04 205.636C522.586 203.701 528.275 199.6 532.168 194.009C532.336 190.282 532.546 186.36 532.868 182.271C533.008 180.289 533.176 178.251 533.358 176.185C533.54 174.12 533.792 171.831 534.058 169.625L473.368 211.442Z" fill="black"/>
<path d="M487.06 165.661L485.66 165.494C486.486 158.515 491.708 153.016 497.21 153.155V154.551C492.394 154.453 487.802 159.408 487.06 165.661Z" fill="white"/>
<path d="M494.522 178.544H494.284V177.148C499.1 177.33 503.622 172.319 504.364 166.08L505.764 166.248C505.022 173.073 499.968 178.544 494.522 178.544Z" fill="white"/>
<path d="M520.688 106.775C518.714 114.465 516.39 128.548 521.472 133.671C521.472 133.671 517.916 141.473 503.594 141.473C490.504 141.473 497.518 133.671 497.518 133.671C506.226 131.633 506.38 125.296 505.232 119.295L520.688 106.775Z" fill="#E58A7B"/>
<path d="M514.388 111.883L505.246 119.294C505.529 120.674 505.693 122.075 505.736 123.482C508.41 126.134 513.772 119.42 514.318 115.987C514.596 114.635 514.619 113.243 514.388 111.883Z" fill="#CF6F64"/>
<path d="M489.524 106.677C490.16 107.776 491.017 108.733 492.041 109.487C493.064 110.241 494.233 110.777 495.474 111.06C498.834 111.8 500.514 108.715 499.59 105.616C498.764 102.825 496.006 99.0704 492.59 99.7125C491.858 99.8627 491.173 100.186 490.592 100.654C490.012 101.123 489.552 101.723 489.252 102.405C488.951 103.087 488.819 103.831 488.867 104.574C488.914 105.317 489.14 106.039 489.524 106.677Z" fill="#CF6F64"/>
<path d="M495.082 82.0703C489.846 84.457 487.998 105.198 494.578 108.268C501.158 111.339 504.994 77.5341 495.082 82.0703Z" fill="#263238"/>
<path d="M522.284 95.2039C521.024 105.616 520.884 111.744 515.284 117.075C513.549 118.845 511.357 120.101 508.95 120.707C506.543 121.313 504.016 121.243 501.646 120.507C499.276 119.77 497.157 118.395 495.522 116.534C493.887 114.672 492.799 112.396 492.38 109.957C490.686 100.605 493.024 85.1545 503.496 81.0091C505.696 80.0416 508.116 79.6784 510.505 79.9571C512.893 80.2359 515.163 81.1465 517.08 82.5945C518.996 84.0426 520.49 85.9754 521.405 88.1925C522.32 90.4096 522.623 92.8304 522.284 95.2039Z" fill="#E58A7B"/>
<path d="M505.078 87.4578C512.834 85.4898 518.532 84.1499 516.488 90.5843C513.786 99.1821 510.538 107.501 514.892 107.878C517.552 108.115 529.312 103.146 527.814 98.1074C526.512 93.7247 532.014 92.5244 532.994 90.3052C536.62 82.2656 526.246 83.3264 528.094 78.4413C529.942 73.5562 519.694 65.6842 514.094 69.6062C504.98 75.9429 489.342 75.8452 497.56 65.419C503.454 57.9796 492.94 59.501 492.94 59.501C492.94 59.501 499.296 63.2556 488.6 69.0619C477.288 75.259 487.662 91.9103 505.078 87.4578Z" fill="#263238"/>
<path d="M526.4 106.677C524.869 108.886 522.568 110.448 519.946 111.06C516.488 111.8 515.158 108.715 516.46 105.616C517.622 102.825 520.814 99.0704 524.118 99.7125C527.422 100.354 528.178 103.942 526.4 106.677Z" fill="#E58A7B"/>
<path d="M475.16 227.423C475.16 227.423 465.696 311.866 464.954 343.912C464.198 377.243 497.028 481.24 497.028 481.24L513.828 474.261C513.828 474.261 494.228 379.239 497.028 346.509C499.996 310.819 512.26 227.479 512.26 227.479L475.16 227.423Z" fill="#407BFF"/>
<path opacity="0.2" d="M498.68 250.607C491.134 266.211 496.216 297.071 500.304 315.355C501.858 302.445 503.706 288.431 505.456 275.465C505.288 255.534 503.734 240.138 498.68 250.607Z" fill="black"/>
<path d="M513.086 468.734C513.17 468.734 515.074 474.066 515.074 474.066L495.698 482.189L492.646 476.522L513.086 468.734Z" fill="#407BFF"/>
<path d="M495.166 227.423C495.166 227.423 502.404 307.735 507.192 337.813C512.456 370.767 533.092 480.514 533.092 480.514H552.398C552.398 480.514 540.834 373.433 538.65 340.8C536.27 305.404 531.538 227.423 531.538 227.423H495.166Z" fill="#407BFF"/>
<path d="M552.692 475.504C552.776 475.504 553.336 480.877 553.336 480.877H532.112L530.6 474.708L552.692 475.504Z" fill="#407BFF"/>
<path opacity="0.2" d="M545.3 469.139C545.256 469.139 545.214 469.124 545.18 469.096C545.147 469.068 545.125 469.029 545.118 468.985C545.006 468.008 534.576 371.283 532.616 341.972C530.488 310.177 526.204 239.65 526.162 238.938C526.16 238.915 526.163 238.892 526.171 238.87C526.178 238.848 526.19 238.828 526.206 238.811C526.222 238.794 526.241 238.78 526.262 238.771C526.284 238.761 526.307 238.757 526.33 238.757C526.376 238.757 526.42 238.774 526.454 238.805C526.488 238.836 526.508 238.879 526.512 238.924C526.512 239.636 530.838 310.107 532.966 341.958C534.926 371.269 545.356 467.925 545.454 468.971C545.458 468.995 545.457 469.018 545.451 469.041C545.445 469.064 545.435 469.085 545.421 469.103C545.406 469.122 545.388 469.137 545.367 469.148C545.346 469.159 545.323 469.165 545.3 469.167V469.139Z" fill="black"/>
<path d="M506.268 98.1071C506.268 98.9585 505.736 99.6424 505.176 99.6424C504.616 99.6424 504.21 98.9585 504.266 98.1071C504.322 97.2557 504.798 96.5718 505.358 96.5718C505.918 96.5718 506.324 97.2696 506.268 98.1071Z" fill="#263238"/>
<path d="M496.664 98.1071C496.664 98.9585 496.118 99.6424 495.572 99.6424C495.026 99.6424 494.606 98.9585 494.648 98.1071C494.69 97.2557 495.194 96.5718 495.754 96.5718C496.314 96.5718 496.72 97.2696 496.664 98.1071Z" fill="#263238"/>
<path d="M499.688 98.5398C498.519 101.14 497.013 103.575 495.208 105.784C496.608 107.179 499.226 106.537 499.226 106.537L499.688 98.5398Z" fill="#DF5753"/>
<path d="M499.94 110.096C499.908 110.097 499.875 110.09 499.846 110.077C499.816 110.064 499.789 110.046 499.767 110.022C499.744 109.999 499.727 109.971 499.716 109.94C499.705 109.91 499.7 109.878 499.702 109.845C499.706 109.777 499.735 109.713 499.785 109.667C499.834 109.62 499.9 109.594 499.968 109.594C501.039 109.601 502.098 109.37 503.067 108.915C504.036 108.461 504.89 107.797 505.568 106.97C505.616 106.928 505.679 106.905 505.743 106.905C505.807 106.905 505.87 106.928 505.918 106.97C505.963 107.017 505.989 107.079 505.989 107.144C505.989 107.21 505.963 107.272 505.918 107.319C505.193 108.197 504.279 108.903 503.245 109.384C502.211 109.864 501.081 110.108 499.94 110.096Z" fill="#263238"/>
<path d="M507.976 95.5391C507.909 95.5734 507.834 95.5913 507.759 95.5913C507.683 95.5913 507.609 95.5734 507.542 95.5391C507.018 95.2015 506.422 94.9916 505.802 94.9261C505.182 94.8606 504.555 94.9415 503.972 95.1622C503.915 95.1906 503.853 95.2073 503.79 95.2113C503.726 95.2154 503.663 95.2068 503.603 95.186C503.543 95.1652 503.487 95.1326 503.44 95.0902C503.393 95.0477 503.355 94.9963 503.328 94.9389C503.276 94.8147 503.275 94.6752 503.324 94.55C503.374 94.4249 503.471 94.3241 503.594 94.269C504.326 93.9709 505.119 93.8534 505.906 93.9263C506.694 93.9992 507.452 94.2604 508.116 94.6877C508.17 94.7241 508.215 94.7707 508.251 94.8249C508.286 94.8791 508.311 94.9398 508.322 95.0034C508.334 95.067 508.333 95.1323 508.319 95.1955C508.305 95.2587 508.279 95.3186 508.242 95.3716C508.171 95.4516 508.079 95.5097 507.976 95.5391Z" fill="#263238"/>
<path d="M492.954 92.7477C492.879 92.7297 492.811 92.691 492.758 92.636C492.711 92.5906 492.674 92.5363 492.649 92.4763C492.624 92.4164 492.611 92.3521 492.611 92.2871C492.611 92.2221 492.624 92.1578 492.649 92.0979C492.674 92.0379 492.711 91.9837 492.758 91.9382C493.295 91.3382 493.963 90.8698 494.711 90.5696C495.459 90.2694 496.266 90.1455 497.07 90.2074C497.134 90.2173 497.196 90.2403 497.251 90.275C497.306 90.3096 497.354 90.3552 497.391 90.4088C497.427 90.4625 497.453 90.5231 497.465 90.5869C497.477 90.6507 497.476 90.7163 497.462 90.7797C497.432 90.9089 497.356 91.0228 497.247 91.0999C497.139 91.177 497.006 91.212 496.874 91.1984C496.238 91.1585 495.601 91.2634 495.012 91.5052C494.422 91.747 493.896 92.1194 493.472 92.5942C493.408 92.6648 493.326 92.7165 493.235 92.7436C493.143 92.7707 493.046 92.7721 492.954 92.7477Z" fill="#263238"/>
<path d="M545.622 149.792L531.062 145.925C531.062 145.925 516.782 180.973 511.728 183.248C504.868 186.374 487.494 197.205 480.102 202.327C479.696 204.072 480.018 208.692 480.942 209.962C493.542 207.673 517.664 198.419 522.704 193.716C534.198 182.982 545.622 149.792 545.622 149.792Z" fill="#E58A7B"/>
<path d="M535.458 495.351C534.748 495.407 534.04 495.215 533.456 494.807C533.276 494.644 533.141 494.438 533.065 494.208C532.989 493.978 532.974 493.732 533.022 493.495C533.031 493.346 533.08 493.203 533.164 493.08C533.247 492.958 533.363 492.86 533.498 492.797C534.674 492.197 537.964 494.276 538.342 494.514C538.384 494.539 538.416 494.577 538.433 494.623C538.451 494.668 538.453 494.718 538.44 494.765C538.428 494.814 538.404 494.858 538.369 494.895C538.335 494.932 538.292 494.959 538.244 494.974C537.331 495.198 536.397 495.324 535.458 495.351ZM534.058 493.174C533.952 493.15 533.842 493.15 533.736 493.174C533.682 493.201 533.638 493.243 533.608 493.295C533.578 493.347 533.564 493.407 533.568 493.467C533.531 493.629 533.537 493.799 533.586 493.958C533.635 494.117 533.726 494.261 533.848 494.374C534.394 494.863 535.766 494.918 537.572 494.569C536.497 493.863 535.286 493.388 534.016 493.174H534.058Z" fill="#407BFF"/>
<path d="M538.174 494.974C538.138 494.986 538.098 494.986 538.062 494.974C537.012 494.388 535.038 492.085 535.332 490.913C535.376 490.727 535.481 490.561 535.631 490.442C535.781 490.323 535.966 490.258 536.158 490.257C536.346 490.232 536.537 490.247 536.718 490.303C536.899 490.358 537.067 490.452 537.208 490.578C538.37 491.569 538.44 494.611 538.44 494.765C538.447 494.811 538.438 494.858 538.415 494.898C538.392 494.938 538.357 494.97 538.314 494.988C538.267 494.998 538.218 494.993 538.174 494.974ZM536.298 490.717H536.2C535.878 490.717 535.836 490.899 535.822 490.969C535.654 491.652 536.9 493.397 537.936 494.221C537.931 493.042 537.565 491.892 536.886 490.927C536.724 490.785 536.513 490.711 536.298 490.717Z" fill="#407BFF"/>
<path d="M498.288 493.606C497.431 493.904 496.499 493.904 495.642 493.606C495.447 493.501 495.283 493.349 495.163 493.164C495.043 492.978 494.972 492.766 494.956 492.546C494.938 492.408 494.956 492.267 495.007 492.138C495.059 492.009 495.142 491.894 495.25 491.806C496.37 490.801 500.948 491.806 501.466 492.001C501.515 492.014 501.559 492.043 501.589 492.084C501.62 492.124 501.636 492.174 501.634 492.225C501.636 492.277 501.623 492.329 501.595 492.374C501.568 492.418 501.528 492.454 501.48 492.476C500.449 492.94 499.381 493.318 498.288 493.606ZM496.006 491.946C495.846 491.978 495.697 492.05 495.572 492.155C495.527 492.188 495.493 492.233 495.473 492.285C495.454 492.337 495.449 492.394 495.46 492.448C495.469 492.595 495.515 492.736 495.593 492.861C495.671 492.985 495.78 493.088 495.908 493.16C496.65 493.551 498.372 493.244 500.598 492.308C499.099 491.931 497.546 491.809 496.006 491.946Z" fill="#407BFF"/>
<path d="M501.438 492.476H501.326C499.926 492.225 497.126 490.62 497.042 489.419C497.042 489.14 497.168 488.749 497.84 488.526C498.067 488.445 498.308 488.411 498.549 488.426C498.789 488.44 499.024 488.503 499.24 488.61C500.752 489.349 501.55 492.029 501.592 492.155C501.602 492.197 501.601 492.241 501.588 492.283C501.576 492.324 501.553 492.362 501.522 492.392C501.501 492.426 501.472 492.455 501.438 492.476ZM498.12 488.945H497.98C497.546 489.098 497.546 489.28 497.546 489.335C497.546 490.061 499.576 491.387 500.99 491.834C500.664 490.713 499.975 489.731 499.03 489.042C498.749 488.9 498.425 488.865 498.12 488.945Z" fill="#407BFF"/>
<path d="M481.292 201.504L466.69 208.204L464.996 212.391L470.386 216.006C470.386 216.006 480.466 214.917 483.336 208.455L481.292 201.504Z" fill="#E58A7B"/>
<path d="M481.908 210.2C481.582 207.403 480.655 204.708 479.192 202.3L481.502 200.569C483.24 203.344 484.348 206.464 484.75 209.711L481.908 210.2Z" fill="#263238"/>
<path d="M484.4 203.486C484.709 203.97 484.86 204.537 484.834 205.11C484.808 205.683 484.606 206.234 484.254 206.689C483.903 207.143 483.42 207.478 482.871 207.649C482.321 207.82 481.733 207.818 481.185 207.643C480.637 207.468 480.156 207.13 479.808 206.673C479.46 206.216 479.261 205.664 479.239 205.09C479.217 204.517 479.373 203.951 479.685 203.469C479.997 202.988 480.451 202.613 480.984 202.397C481.582 202.094 482.277 202.037 482.917 202.241C483.556 202.445 484.089 202.893 484.4 203.486Z" fill="#263238"/>
<path d="M456.82 213.619L458.766 215.573L471.87 209.99L466.69 208.204L456.82 213.619Z" fill="#E58A7B"/>
<path opacity="0.2" d="M513.086 468.734C513.17 468.734 515.074 474.066 515.074 474.066L495.698 482.189L492.646 476.522L513.086 468.734Z" fill="black"/>
<path opacity="0.2" d="M552.692 475.504C552.776 475.504 553.336 480.877 553.336 480.877H532.112L530.6 474.708L552.692 475.504Z" fill="black"/>
<path d="M549.416 145.772C553.266 158.152 538.216 175.083 538.216 175.083L517.426 166.625C519.89 159.469 522.732 152.448 525.938 145.591C532.322 131.87 545.524 133.28 549.416 145.772Z" fill="#407BFF"/>
<path opacity="0.2" d="M549.416 145.772C553.266 158.152 538.216 175.083 538.216 175.083L517.426 166.625C519.89 159.469 522.732 152.448 525.938 145.591C532.322 131.87 545.524 133.28 549.416 145.772Z" fill="black"/>
<path d="M342.832 21.7317H333.886V23.1693H342.832V21.7317Z" fill="#407BFF"/>
<path d="M458.637 78.6318L457.555 102.586L458.995 102.651L460.078 78.6965L458.637 78.6318Z" fill="#407BFF"/>
<path d="M455.854 28.1802H290.654L275.282 371.143H440.482L455.854 28.1802Z" fill="#407BFF"/>
<path opacity="0.56" d="M450.926 32.8977H285.726L270.354 375.861H435.554L450.926 32.8977Z" fill="#FAFAFA"/>
<path opacity="0.07" d="M445.998 37.6016H280.798L265.412 380.565H430.612L445.998 37.6016Z" fill="#407BFF"/>
<path d="M427.196 187.184H286.188L285.012 213.424H426.02L427.196 187.184Z" fill="white"/>
<path d="M363.734 168.034H287.042L286.524 179.772H363.216L363.734 168.034Z" fill="#407BFF"/>
<path d="M424.018 258.004H283.01L281.834 284.244H422.842L424.018 258.004Z" fill="white"/>
<path opacity="0.47" d="M398.16 319.682H303.338L301.924 351.129H396.746L398.16 319.682Z" fill="#407BFF"/>
<path d="M391.818 356.014H296.996C296.955 356.024 296.911 356.024 296.87 356.014C296.856 355.973 296.856 355.929 296.87 355.888L298.27 324.428C298.27 324.406 298.274 324.385 298.283 324.366C298.292 324.346 298.304 324.328 298.32 324.314C298.336 324.299 298.354 324.288 298.375 324.282C298.395 324.275 298.417 324.272 298.438 324.274H393.26C393.277 324.266 393.297 324.261 393.316 324.261C393.335 324.261 393.355 324.266 393.372 324.274C393.382 324.291 393.387 324.31 393.387 324.33C393.387 324.35 393.382 324.369 393.372 324.386L392 355.916C391.983 355.949 391.957 355.975 391.924 355.993C391.892 356.01 391.855 356.018 391.818 356.014ZM297.164 355.679H391.65L393.05 324.553H298.564L297.164 355.679Z" fill="white"/>
<path d="M347.172 238.854H283.864L283.346 250.607H346.64L347.172 238.854Z" fill="#407BFF"/>
<path d="M396.354 102.42C395.992 110.057 393.268 117.395 388.556 123.426C385.068 127.982 380.579 131.681 375.434 134.238C370.289 136.796 364.625 138.144 358.876 138.179C354.23 138.215 349.627 137.301 345.348 135.496C341.07 133.69 337.208 131.03 334 127.68C330.792 124.33 328.306 120.361 326.695 116.017C325.083 111.672 324.382 107.045 324.632 102.42C325.124 92.8231 329.276 83.776 336.237 77.129C343.198 70.4821 352.443 66.7376 362.082 66.6611C366.731 66.6179 371.34 67.5256 375.623 69.3282C379.907 71.1307 383.774 73.7898 386.986 77.1411C390.198 80.4924 392.686 84.4648 394.298 88.8128C395.909 93.1607 396.609 97.7919 396.354 102.42Z" fill="white"/>
<path d="M399.728 74.1421C399.637 76.1727 398.912 78.1243 397.656 79.7251C396.726 80.9352 395.532 81.9175 394.163 82.5972C392.795 83.277 391.289 83.6361 389.76 83.6471C388.279 83.6561 386.818 83.3034 385.505 82.6197C384.192 81.936 383.067 80.9422 382.228 79.7251C381.117 78.0804 380.567 76.1227 380.66 74.1421C380.795 71.594 381.901 69.1934 383.75 67.4298C385.6 65.6661 388.055 64.6723 390.614 64.651C391.849 64.6398 393.073 64.8807 394.21 65.359C395.348 65.8372 396.376 66.5427 397.229 67.4319C398.083 68.3211 398.746 69.3752 399.175 70.5292C399.605 71.6833 399.793 72.9128 399.728 74.1421Z" fill="#407BFF"/>
<path d="M301.378 200.304C301.311 201.429 300.818 202.486 300 203.263C299.181 204.04 298.098 204.479 296.968 204.491C296.422 204.498 295.881 204.392 295.378 204.182C294.875 203.972 294.42 203.661 294.042 203.268C293.664 202.876 293.371 202.41 293.181 201.9C292.991 201.39 292.907 200.847 292.936 200.304C292.997 199.177 293.487 198.115 294.307 197.337C295.127 196.559 296.214 196.122 297.346 196.117C297.891 196.112 298.431 196.219 298.934 196.43C299.436 196.641 299.89 196.952 300.267 197.344C300.645 197.736 300.938 198.201 301.129 198.71C301.32 199.219 301.405 199.761 301.378 200.304Z" fill="#263238"/>
<path d="M320.25 200.304C320.186 201.43 319.695 202.489 318.875 203.267C318.056 204.044 316.971 204.482 315.84 204.491C315.295 204.496 314.756 204.389 314.254 204.178C313.753 203.967 313.3 203.655 312.923 203.263C312.547 202.871 312.255 202.406 312.066 201.897C311.876 201.388 311.793 200.846 311.822 200.304C311.882 199.179 312.371 198.12 313.188 197.342C314.005 196.564 315.088 196.126 316.218 196.116C316.764 196.11 317.305 196.215 317.808 196.426C318.311 196.636 318.766 196.947 319.144 197.339C319.522 197.732 319.815 198.197 320.005 198.707C320.195 199.217 320.279 199.76 320.25 200.304Z" fill="#263238"/>
<path d="M339.136 200.304C339.072 201.43 338.581 202.489 337.761 203.267C336.942 204.044 335.857 204.482 334.726 204.491C334.181 204.495 333.641 204.389 333.138 204.178C332.636 203.967 332.182 203.656 331.805 203.264C331.427 202.872 331.134 202.407 330.943 201.898C330.752 201.389 330.667 200.847 330.694 200.304C330.758 199.178 331.249 198.118 332.069 197.341C332.888 196.563 333.973 196.125 335.104 196.116C335.65 196.11 336.191 196.215 336.694 196.426C337.197 196.636 337.652 196.947 338.03 197.339C338.408 197.732 338.701 198.197 338.891 198.707C339.081 199.217 339.165 199.76 339.136 200.304Z" fill="#263238"/>
<path d="M298.2 271.124C298.133 272.249 297.64 273.306 296.822 274.083C296.004 274.86 294.92 275.299 293.79 275.311C293.245 275.316 292.705 275.209 292.202 274.998C291.7 274.787 291.246 274.476 290.869 274.084C290.491 273.692 290.198 273.227 290.007 272.718C289.816 272.209 289.731 271.667 289.758 271.124C289.822 269.998 290.313 268.939 291.133 268.161C291.952 267.383 293.037 266.946 294.168 266.937C294.713 266.932 295.253 267.039 295.756 267.25C296.258 267.461 296.712 267.772 297.089 268.164C297.467 268.556 297.76 269.021 297.951 269.53C298.142 270.039 298.227 270.581 298.2 271.124Z" fill="#263238"/>
<path d="M317.072 271.124C317.008 272.248 316.519 273.305 315.703 274.082C314.886 274.86 313.805 275.299 312.676 275.311C312.13 275.318 311.589 275.213 311.086 275.002C310.583 274.792 310.128 274.481 309.75 274.089C309.372 273.696 309.079 273.231 308.889 272.721C308.699 272.211 308.615 271.667 308.644 271.124C308.708 269.998 309.199 268.939 310.019 268.161C310.838 267.383 311.923 266.946 313.054 266.937C313.599 266.932 314.138 267.039 314.64 267.25C315.141 267.461 315.594 267.773 315.971 268.165C316.347 268.557 316.639 269.022 316.828 269.531C317.018 270.04 317.101 270.582 317.072 271.124Z" fill="#263238"/>
<path d="M336 271.124C335.936 272.25 335.445 273.309 334.626 274.087C333.806 274.865 332.721 275.302 331.59 275.311C331.046 275.314 330.506 275.206 330.005 274.994C329.503 274.782 329.05 274.471 328.673 274.08C328.296 273.688 328.003 273.224 327.811 272.716C327.619 272.208 327.533 271.666 327.558 271.124C327.625 269.999 328.118 268.942 328.936 268.165C329.754 267.388 330.838 266.949 331.968 266.937C332.514 266.93 333.055 267.035 333.558 267.246C334.061 267.456 334.516 267.767 334.894 268.16C335.272 268.552 335.565 269.018 335.755 269.528C335.945 270.037 336.029 270.581 336 271.124Z" fill="#263238"/>
<path d="M354.844 271.124C354.777 272.249 354.284 273.306 353.466 274.083C352.648 274.86 351.564 275.299 350.434 275.311C349.89 275.314 349.35 275.206 348.849 274.994C348.347 274.782 347.894 274.471 347.517 274.08C347.14 273.688 346.847 273.224 346.655 272.716C346.464 272.208 346.377 271.666 346.402 271.124C346.469 269.999 346.962 268.942 347.78 268.165C348.599 267.388 349.682 266.949 350.812 266.937C351.357 266.932 351.897 267.039 352.4 267.25C352.902 267.461 353.356 267.772 353.733 268.164C354.111 268.556 354.404 269.021 354.595 269.53C354.786 270.039 354.871 270.581 354.844 271.124Z" fill="#263238"/>
<path d="M373.8 271.124C373.733 272.249 373.24 273.306 372.422 274.083C371.603 274.86 370.52 275.299 369.39 275.311C368.844 275.318 368.303 275.213 367.8 275.002C367.297 274.792 366.842 274.481 366.464 274.089C366.086 273.696 365.793 273.231 365.603 272.721C365.413 272.211 365.329 271.667 365.358 271.124C365.422 269.998 365.913 268.939 366.732 268.161C367.552 267.383 368.637 266.946 369.768 266.937C370.313 266.932 370.853 267.039 371.356 267.25C371.858 267.461 372.312 267.772 372.689 268.164C373.067 268.556 373.36 269.021 373.551 269.53C373.742 270.039 373.827 270.581 373.8 271.124Z" fill="#263238"/>
<path d="M370.935 100.558C376.795 94.8449 377.105 85.6879 371.629 80.1049C366.153 74.522 356.963 74.6274 351.104 80.3402C345.244 86.0531 344.933 95.2102 350.409 100.793C355.885 106.376 365.075 106.271 370.935 100.558Z" fill="#407BFF"/>
<path d="M388.556 123.426C385.068 127.982 380.579 131.681 375.434 134.238C370.289 136.796 364.625 138.144 358.876 138.179C353.301 138.226 347.801 136.905 342.859 134.333C337.917 131.76 333.687 128.014 330.54 123.426C337.344 116.671 348.11 112.26 360.038 112.26C371.966 112.26 382.354 116.671 388.556 123.426Z" fill="#407BFF"/>
<path opacity="0.1" d="M370.935 100.558C376.795 94.8449 377.105 85.6879 371.629 80.1049C366.153 74.522 356.963 74.6274 351.104 80.3402C345.244 86.0531 344.933 95.2102 350.409 100.793C355.885 106.376 365.075 106.271 370.935 100.558Z" fill="white"/>
<path opacity="0.1" d="M388.556 123.426C385.068 127.982 380.579 131.681 375.434 134.238C370.289 136.796 364.625 138.144 358.876 138.179C353.301 138.226 347.801 136.905 342.859 134.333C337.917 131.76 333.687 128.014 330.54 123.426C337.344 116.671 348.11 112.26 360.038 112.26C371.966 112.26 382.354 116.671 388.556 123.426Z" fill="white"/>
<path d="M182.574 219.747C181.244 222.65 179.844 225.846 178.626 228.945C177.408 232.043 176.162 235.24 175.084 238.422C172.883 244.693 171.207 251.136 170.072 257.683L169.764 259.735C169.735 260.087 169.768 260.441 169.862 260.782C170.192 261.938 170.713 263.033 171.402 264.02C173.2 266.575 175.285 268.917 177.618 270.999C180.077 273.279 182.657 275.427 185.346 277.433C188.034 279.499 190.862 281.509 193.648 283.407L191.03 288.306C184.377 285.416 178.063 281.807 172.2 277.545C169.072 275.27 166.249 272.606 163.8 269.617C162.348 267.837 161.216 265.821 160.454 263.657C160.011 262.305 159.784 260.892 159.782 259.47C159.782 259.135 159.782 258.646 159.782 258.409V257.725L159.922 256.329C160.725 249.057 162.258 241.884 164.5 234.918C165.592 231.485 166.754 228.065 168.084 224.73C169.414 221.394 170.786 218.128 172.48 214.736L182.574 219.747Z" fill="#E58A7B"/>
<path d="M191.674 282.541L201.572 277.545L199.01 288.376C199.01 288.376 192.22 290.274 189.07 286.98L191.674 282.541Z" fill="#E58A7B"/>
<path d="M210.63 279.317L207.998 288.278L199.01 288.376L201.572 277.545L210.63 279.317Z" fill="#E58A7B"/>
<path d="M224.602 167.49C225.131 169.424 225.868 171.296 226.8 173.073C226.528 173.381 226.177 173.609 225.785 173.735C225.393 173.86 224.975 173.877 224.574 173.785L224.602 167.49Z" fill="#DF5753"/>
<path d="M224.308 167.574C224.888 167.574 225.358 166.855 225.358 165.969C225.358 165.082 224.888 164.363 224.308 164.363C223.728 164.363 223.258 165.082 223.258 165.969C223.258 166.855 223.728 167.574 224.308 167.574Z" fill="#263238"/>
<path d="M224 164.419L226.128 163.819C226.128 163.819 225.092 165.466 224 164.419Z" fill="#263238"/>
<path d="M197.26 177.735C198.534 184.225 199.808 196.131 195.244 200.471C195.244 200.471 197.036 207.059 209.146 207.059C222.46 207.059 215.502 200.471 215.502 200.471C208.236 198.741 208.418 193.367 209.692 188.315L197.26 177.735Z" fill="#E58A7B"/>
<path d="M193.718 162.94C194.39 173.785 194.446 178.391 199.934 183.96C208.208 192.334 221.424 189.152 224.014 178.377C226.352 168.607 224.868 152.528 214.214 148.215C211.875 147.254 209.33 146.905 206.818 147.198C204.306 147.492 201.91 148.42 199.858 149.895C197.806 151.369 196.166 153.341 195.091 155.623C194.017 157.906 193.544 160.424 193.718 162.94Z" fill="#E58A7B"/>
<path d="M194.796 150.741C189.336 152.723 182.056 151.243 184.912 168.034C187.936 185.816 183.288 191.664 183.288 191.664C183.288 191.664 203.994 196.061 225.134 191.399C225.134 191.399 218.68 180.149 220.486 171.859C222.796 161.39 220.976 157.524 220.976 157.524C220.976 157.524 202.468 147.949 194.796 150.741Z" fill="#263238"/>
<path d="M217.896 168.593C217.902 170.655 218.494 172.673 219.604 174.413C221.088 176.674 222.838 175.809 223.272 173.408C223.664 171.3 223.37 167.574 221.48 166.122C219.59 164.671 217.924 166.094 217.896 168.593Z" fill="#E58A7B"/>
<path d="M190.05 152.569C188.482 148.173 195.958 141.403 211.778 144.195C227.598 146.986 228.284 160.12 228.284 160.12L225.092 156.324L225.232 160.316L208.978 163.428L190.05 152.569Z" fill="#263238"/>
<path d="M191.394 201.211C191.301 200.574 191.461 199.925 191.84 199.404C192.219 198.883 192.787 198.529 193.424 198.42C198.352 197.61 209.552 195.963 215.18 196.745C219.38 197.331 220.472 199.76 220.654 201.756C220.683 202.105 220.636 202.457 220.517 202.786C220.397 203.116 220.209 203.417 219.963 203.668C219.718 203.92 219.422 204.115 219.094 204.243C218.766 204.37 218.415 204.427 218.064 204.407L193.732 203.319C193.158 203.29 192.612 203.064 192.186 202.68C191.76 202.296 191.48 201.777 191.394 201.211Z" fill="#407BFF"/>
<path opacity="0.6" d="M191.394 201.211C191.301 200.574 191.461 199.925 191.84 199.404C192.219 198.883 192.787 198.529 193.424 198.42C198.352 197.61 209.552 195.963 215.18 196.745C219.38 197.331 220.472 199.76 220.654 201.756C220.683 202.105 220.636 202.457 220.517 202.786C220.397 203.116 220.209 203.417 219.963 203.668C219.718 203.92 219.422 204.115 219.094 204.243C218.766 204.37 218.415 204.427 218.064 204.407L193.732 203.319C193.158 203.29 192.612 203.064 192.186 202.68C191.76 202.296 191.48 201.777 191.394 201.211Z" fill="black"/>
<path d="M205.464 445.048L214.494 451.301L229.6 430.882L220.57 424.643L205.464 445.048Z" fill="#E58A7B"/>
<path d="M184.408 444.644L193.942 450.059L207.312 428.467L197.778 423.051L184.408 444.644Z" fill="#E58A7B"/>
<path d="M229.586 430.882L221.802 441.406L212.772 435.167L220.556 424.643L229.586 430.882Z" fill="#CF6F64"/>
<path d="M197.764 423.051L207.312 428.481L200.424 439.605L190.876 434.176L197.764 423.051Z" fill="#CF6F64"/>
<path d="M213.08 269.38C213.08 269.38 248.332 313.667 241.71 356.028C236.376 390.237 205.436 436.562 205.436 436.562L190.89 429.36C201.143 408.878 209.892 387.682 217.07 365.938C219.283 359.187 219.929 352.023 218.959 344.987C217.989 337.951 215.428 331.226 211.47 325.321C193.606 299.318 164.99 314.797 184.24 269.38H213.08Z" fill="#407BFF"/>
<path opacity="0.6" d="M213.08 269.38C213.08 269.38 248.332 313.667 241.71 356.028C236.376 390.237 205.436 436.562 205.436 436.562L190.89 429.36C201.143 408.878 209.892 387.682 217.07 365.938C219.283 359.187 219.929 352.023 218.959 344.987C217.989 337.951 215.428 331.226 211.47 325.321C193.606 299.318 164.99 314.797 184.24 269.38H213.08Z" fill="black"/>
<path opacity="0.4" d="M230.37 297.825L225.246 292.745C225.246 293.149 235.172 354.241 237.958 371.409C239.602 366.394 240.861 361.261 241.724 356.056C245 335.273 238.154 314.044 230.37 297.825Z" fill="black"/>
<path d="M228.816 269.38C228.816 269.38 271.264 325.042 272.468 358.414C273.462 386.329 226.268 440.415 226.268 440.415L212.548 431.566C212.548 431.566 240.17 393.155 247.128 361.778C244.44 330.681 187.6 269.38 187.6 269.38H228.816Z" fill="#407BFF"/>
<path opacity="0.6" d="M228.816 269.38C228.816 269.38 271.264 325.042 272.468 358.414C273.462 386.329 226.268 440.415 226.268 440.415L212.548 431.566C212.548 431.566 240.17 393.155 247.128 361.778C244.44 330.681 187.6 269.38 187.6 269.38H228.816Z" fill="black"/>
<path d="M176.302 202.956C171.766 204.031 167.412 220.473 167.412 220.473L185.15 232.281C185.15 232.281 191.058 219.272 188.986 213.578C186.844 207.646 182 201.602 176.302 202.956Z" fill="#407BFF"/>
<path opacity="0.2" d="M179.774 213.55L178.542 227.884L185.136 232.295C186.957 228.208 188.305 223.928 189.154 219.537L179.774 213.55Z" fill="black"/>
<path d="M234.066 203.277C234.066 203.277 239.302 205.105 228.816 269.366H184.212C184.968 251.221 184.982 240.055 176.302 202.956C182.548 201.673 188.878 200.842 195.244 200.472C201.988 199.989 208.758 199.989 215.502 200.472C224.21 201.267 234.066 203.277 234.066 203.277Z" fill="#407BFF"/>
<path d="M238.602 213.55C239.61 216.341 240.674 219.342 241.794 222.231C242.914 225.12 243.978 228.093 245.112 231.024L248.542 239.79L249.41 241.981L249.858 243.07L250.068 243.614C250.068 243.712 250.068 243.712 250.068 243.698C249.812 243.338 249.477 243.042 249.088 242.832C248.534 242.508 247.91 242.321 247.268 242.288C246.735 242.272 246.204 242.372 245.714 242.581C245.07 242.874 245.07 243 245.084 242.986C245.2 242.893 245.304 242.785 245.392 242.665C246.167 241.651 246.838 240.561 247.394 239.413C248.052 238.129 248.682 236.761 249.312 235.379C250.544 232.588 251.678 229.698 252.812 226.781C253.946 223.864 255.024 220.919 256.074 217.946L259.266 209.041L264.656 210.437C263.592 216.802 262.22 222.999 260.568 229.308C259.77 232.448 258.832 235.561 257.768 238.701C257.236 240.278 256.648 241.841 255.976 243.447C255.276 245.189 254.413 246.862 253.4 248.443C253.028 248.976 252.616 249.48 252.168 249.951C251.453 250.721 250.585 251.334 249.62 251.751C248.763 252.118 247.836 252.29 246.904 252.254C245.86 252.215 244.844 251.912 243.95 251.374C242.895 250.718 242.02 249.812 241.402 248.736C241.192 248.374 241.01 248.011 240.884 247.745L240.618 247.215L240.086 246.126L239.022 243.963C237.622 241.06 236.222 238.129 235.004 235.184C233.786 232.239 232.498 229.252 231.294 226.251C230.09 223.25 229.012 220.249 227.99 217.011L238.602 213.55Z" fill="#E58A7B"/>
<path d="M234.066 203.277C239.428 204.547 245.462 220.347 245.462 220.347L229.516 233.872C229.516 233.872 219.198 216.648 221.284 210.968C223.454 205.05 227.066 201.616 234.066 203.277Z" fill="#407BFF"/>
<path d="M261.8 204.045L267.4 199.383L271.292 205.426L268.422 210.465C268.422 210.465 263.858 214.652 259.826 212.517C259.186 211.083 259.033 209.48 259.389 207.951C259.745 206.422 260.592 205.051 261.8 204.045Z" fill="#E58A7B"/>
<path d="M277.508 199.397L277.088 200.918L268.226 202.398L267.358 199.383L277.508 199.397Z" fill="#E58A7B"/>
<path d="M227.36 441.126L211.372 430.826L214.242 425.857L232.204 436.869L227.36 441.126Z" fill="#407BFF"/>
<path d="M200.2 449.333C198.797 449.163 197.449 448.686 196.252 447.938C196.203 447.921 196.16 447.888 196.129 447.846C196.099 447.803 196.083 447.753 196.083 447.7C196.083 447.648 196.099 447.597 196.129 447.555C196.16 447.512 196.203 447.48 196.252 447.463C196.686 447.324 200.452 446.165 201.544 447.058C201.667 447.16 201.76 447.293 201.814 447.442C201.868 447.592 201.881 447.753 201.852 447.91C201.832 448.161 201.749 448.403 201.609 448.613C201.47 448.823 201.278 448.994 201.054 449.11C200.792 449.253 200.499 449.329 200.2 449.333ZM197.05 447.798C198.8 448.691 200.2 449.012 200.872 448.677C201.018 448.597 201.141 448.48 201.23 448.338C201.318 448.196 201.368 448.035 201.376 447.868C201.376 447.645 201.376 447.547 201.25 447.491C200.662 447.016 198.562 447.379 197.022 447.798H197.05Z" fill="#263238"/>
<path d="M196.35 448.035C196.276 448.034 196.206 448.004 196.154 447.952C196.133 447.913 196.122 447.87 196.122 447.826C196.122 447.782 196.133 447.739 196.154 447.701C196.154 447.575 197.064 444.546 198.492 443.862C198.674 443.779 198.873 443.736 199.073 443.736C199.273 443.736 199.472 443.779 199.654 443.862C199.851 443.924 200.021 444.05 200.137 444.219C200.254 444.389 200.311 444.592 200.298 444.797C200.2 446.053 197.638 447.784 196.462 448.077L196.35 448.035ZM199.066 444.225C198.93 444.229 198.796 444.263 198.674 444.323C197.806 444.741 197.092 446.375 196.742 447.365C197.974 446.849 199.668 445.481 199.724 444.714C199.724 444.588 199.724 444.434 199.402 444.295C199.297 444.239 199.184 444.201 199.066 444.183V444.225Z" fill="#263238"/>
<path d="M220.178 455.363C218.596 455.363 216.398 453.339 215.194 452.097C215.163 452.054 215.147 452.003 215.147 451.951C215.147 451.898 215.163 451.847 215.194 451.804C215.222 451.759 215.261 451.722 215.308 451.698C215.355 451.673 215.407 451.662 215.46 451.664C216.02 451.664 220.878 452.39 221.564 453.758C221.637 453.881 221.675 454.02 221.675 454.163C221.675 454.305 221.637 454.445 221.564 454.568C221.461 454.781 221.306 454.964 221.112 455.101C220.919 455.238 220.694 455.323 220.458 455.349L220.178 455.363ZM216.118 452.293C217.882 453.995 219.436 454.944 220.318 454.833C220.472 454.813 220.62 454.755 220.747 454.665C220.873 454.575 220.976 454.455 221.046 454.316C221.077 454.269 221.094 454.213 221.094 454.156C221.094 454.099 221.077 454.043 221.046 453.995C220.682 453.242 218.092 452.6 216.118 452.293Z" fill="#263238"/>
<path d="M216.272 452.223C215.958 452.231 215.643 452.208 215.334 452.153C215.291 452.146 215.25 452.129 215.216 452.102C215.181 452.075 215.155 452.04 215.138 451.999C215.117 451.958 215.106 451.913 215.106 451.867C215.106 451.821 215.117 451.775 215.138 451.734C215.222 451.636 217.112 449.361 218.904 449.208C219.411 449.168 219.914 449.329 220.304 449.654C220.85 450.129 220.822 450.548 220.682 450.813C220.332 451.762 217.91 452.223 216.272 452.223ZM215.908 451.706C217.476 451.79 219.982 451.273 220.304 450.59C220.304 450.59 220.416 450.366 220.052 450.059C219.907 449.934 219.738 449.839 219.555 449.781C219.372 449.724 219.179 449.704 218.988 449.724C217.781 450.06 216.706 450.757 215.908 451.72V451.706Z" fill="#263238"/>
<path d="M196.728 446.528L184.856 443.178C184.651 443.116 184.431 443.132 184.237 443.222C184.043 443.312 183.89 443.471 183.806 443.667L179.802 452.641C179.708 452.871 179.664 453.118 179.672 453.366C179.681 453.615 179.742 453.858 179.852 454.081C179.962 454.304 180.118 454.501 180.309 454.659C180.501 454.818 180.724 454.934 180.964 455C185.164 456.089 187.18 456.396 192.402 457.889C195.622 458.783 200.214 460.444 204.652 461.7C209.09 462.956 210.574 458.643 208.852 457.722C201.068 453.618 200.452 450.743 198.324 447.673C197.943 447.116 197.378 446.711 196.728 446.528Z" fill="#407BFF"/>
<path d="M215.516 450.464L205.38 443.485C205.208 443.36 204.996 443.303 204.785 443.323C204.573 443.344 204.376 443.441 204.232 443.597L197.512 450.799C197.348 450.985 197.226 451.204 197.154 451.441C197.081 451.678 197.06 451.927 197.092 452.173C197.124 452.418 197.208 452.654 197.338 452.865C197.468 453.076 197.642 453.256 197.848 453.395C201.418 455.782 203.266 456.745 207.732 459.829C210.532 461.728 215.95 465.943 219.73 468.567C223.51 471.191 226.324 467.59 224.98 466.166C218.96 459.76 217.644 455.74 216.65 452.097C216.477 451.436 216.076 450.858 215.516 450.464Z" fill="#407BFF"/>
<path d="M207.298 437.483L189.028 428.425L190.918 423.484L210.434 433.031L207.298 437.483Z" fill="#407BFF"/>
<path d="M183.54 266.756L182 270.775C181.846 271.082 182.21 271.403 182.728 271.403H229.04C229.446 271.403 229.782 271.208 229.81 270.957L230.202 266.965C230.202 266.7 229.88 266.462 229.446 266.462H184.268C184.132 266.45 183.995 266.47 183.868 266.521C183.742 266.572 183.629 266.652 183.54 266.756Z" fill="#407BFF"/>
<path opacity="0.4" d="M183.54 266.756L182 270.775C181.846 271.082 182.21 271.403 182.728 271.403H229.04C229.446 271.403 229.782 271.208 229.81 270.957L230.202 266.965C230.202 266.7 229.88 266.462 229.446 266.462H184.268C184.132 266.45 183.995 266.47 183.868 266.521C183.742 266.572 183.629 266.652 183.54 266.756Z" fill="white"/>
<path d="M190.834 271.794H189.616C189.378 271.794 189.196 271.669 189.21 271.515L189.784 266.337C189.784 266.197 190.008 266.072 190.246 266.072H191.464C191.702 266.072 191.884 266.197 191.87 266.337L191.296 271.515C191.282 271.669 191.072 271.794 190.834 271.794Z" fill="#407BFF"/>
<path d="M219.394 271.794H218.19C217.952 271.794 217.77 271.669 217.784 271.515L218.344 266.337C218.344 266.197 218.582 266.072 218.82 266.072H220.024C220.262 266.072 220.458 266.197 220.43 266.337L219.87 271.515C219.8 271.669 219.646 271.794 219.394 271.794Z" fill="#407BFF"/>
<g style="mix-blend-mode:multiply">
<path d="M189.77 508.164C210.484 508.164 227.276 506.952 227.276 505.457C227.276 503.961 210.484 502.749 189.77 502.749C169.056 502.749 152.264 503.961 152.264 505.457C152.264 506.952 169.056 508.164 189.77 508.164Z" fill="#F5F5F5"/>
</g>
<path d="M212.618 501.632C205.982 499.706 198.618 497.236 194.166 494.653C194.04 494.57 193.9 494.528 193.774 494.458V464.505H207.2C208.219 464.445 209.177 463.999 209.877 463.258C210.577 462.518 210.967 461.538 210.967 460.52C210.967 459.503 210.577 458.523 209.877 457.782C209.177 457.042 208.219 456.596 207.2 456.536H193.844V320.003H185.78V456.536H172.438C171.893 456.503 171.348 456.583 170.835 456.768C170.322 456.954 169.852 457.242 169.455 457.616C169.058 457.989 168.741 458.439 168.525 458.938C168.309 459.438 168.197 459.976 168.197 460.52C168.197 461.065 168.309 461.603 168.525 462.102C168.741 462.602 169.058 463.052 169.455 463.425C169.852 463.798 170.322 464.087 170.835 464.273C171.348 464.458 171.893 464.537 172.438 464.505H185.78V494.416C185.654 494.416 185.528 494.528 185.402 494.612C180.88 497.236 173.572 499.706 166.936 501.59C166.488 501.725 166.103 502.016 165.851 502.41C165.599 502.803 165.497 503.274 165.563 503.736C165.629 504.198 165.859 504.622 166.211 504.93C166.563 505.238 167.014 505.41 167.482 505.415H212.072C212.519 505.384 212.943 505.202 213.272 504.898C213.601 504.593 213.815 504.186 213.879 503.743C213.943 503.301 213.852 502.85 213.623 502.466C213.393 502.081 213.039 501.787 212.618 501.632Z" fill="#E0E0E0"/>
<path d="M214.676 306.102H164.892C160.887 306.102 157.64 309.339 157.64 313.332V328.085C157.64 332.078 160.887 335.315 164.892 335.315H214.676C218.681 335.315 221.928 332.078 221.928 328.085V313.332C221.928 309.339 218.681 306.102 214.676 306.102Z" fill="#407BFF"/>
<path d="M164.43 335.329V337.869C164.43 339.963 166.712 341.665 169.512 341.665H210.112C212.912 341.665 215.194 339.963 215.194 337.869V335.329H164.43Z" fill="#407BFF"/>
<path opacity="0.3" d="M164.43 335.329V337.869C164.43 339.963 166.712 341.665 169.512 341.665H210.112C212.912 341.665 215.194 339.963 215.194 337.869V335.329H164.43Z" fill="white"/>
</svg>
